<svg xmlns="http://www.w3.org/2000/svg" xmlns:xlink="http://www.w3.org/1999/xlink" viewBox="0 0 2880.06 2800"><defs><style>.cls-1{fill:url(#linear-gradient);}.cls-2{fill:url(#linear-gradient-2);}.cls-3{isolation:isolate;}.cls-4{fill:#f4f7fa;}.cls-5{fill:#97a6b7;}.cls-6{fill:url(#linear-gradient-3);}.cls-10,.cls-11,.cls-12,.cls-7{fill:#fff;}.cls-8,.cls-9{fill:#d8dee8;}.cls-15,.cls-52,.cls-8{opacity:0.3;}.cls-15,.cls-30,.cls-32,.cls-37,.cls-47,.cls-52,.cls-8{mix-blend-mode:multiply;}.cls-10{opacity:0.6;}.cls-10,.cls-11,.cls-12,.cls-27{mix-blend-mode:soft-light;}.cls-11{opacity:0.36;}.cls-13{fill:url(#linear-gradient-4);}.cls-14{fill:url(#linear-gradient-5);}.cls-16{fill:url(#linear-gradient-6);}.cls-17{fill:url(#linear-gradient-7);}.cls-18{fill:url(#linear-gradient-8);}.cls-19{fill:url(#linear-gradient-9);}.cls-20{fill:url(#linear-gradient-10);}.cls-21{fill:url(#linear-gradient-11);}.cls-22{fill:url(#linear-gradient-12);}.cls-23{fill:url(#linear-gradient-13);}.cls-24{fill:url(#linear-gradient-14);}.cls-25{fill:url(#linear-gradient-15);}.cls-26{clip-path:url(#clip-path);}.cls-27{opacity:0.8;}.cls-28{clip-path:url(#clip-path-2);}.cls-29{fill:url(#linear-gradient-18);}.cls-30,.cls-47{opacity:0.5;}.cls-30{fill:url(#linear-gradient-19);}.cls-31{fill:url(#linear-gradient-20);}.cls-32,.cls-37{opacity:0.2;}.cls-32{fill:url(#linear-gradient-21);}.cls-33{fill:url(#linear-gradient-22);}.cls-34{fill:url(#linear-gradient-23);}.cls-35{fill:url(#linear-gradient-24);}.cls-36,.cls-37{fill:url(#linear-gradient-25);}.cls-38{fill:url(#linear-gradient-27);}.cls-39{fill:url(#linear-gradient-28);}.cls-40{fill:url(#linear-gradient-29);}.cls-41{fill:url(#linear-gradient-30);}.cls-42{fill:url(#linear-gradient-31);}.cls-43{fill:url(#linear-gradient-32);}.cls-44{fill:url(#linear-gradient-33);}.cls-45{fill:url(#linear-gradient-34);}.cls-46{fill:url(#linear-gradient-35);}.cls-47{fill:url(#linear-gradient-36);}.cls-48{fill:url(#linear-gradient-37);}.cls-49{fill:url(#linear-gradient-38);}.cls-50{fill:url(#linear-gradient-39);}.cls-51{fill:url(#linear-gradient-40);}.cls-52{fill:url(#linear-gradient-41);}.cls-53{fill:url(#linear-gradient-42);}.cls-54{fill:url(#linear-gradient-43);}.cls-55{fill:url(#linear-gradient-44);}.cls-56{fill:url(#linear-gradient-45);}.cls-57{fill:url(#linear-gradient-46);}</style><linearGradient id="linear-gradient" x1="-13945.61" y1="-101985.49" x2="53366.08" y2="328329.7" gradientUnits="userSpaceOnUse"><stop offset="0" stop-color="#ff9085"/><stop offset="1" stop-color="#fb6fbb"/></linearGradient><linearGradient id="linear-gradient-2" x1="-8124.1" y1="-66210.87" x2="36249.35" y2="217463.03" gradientUnits="userSpaceOnUse"><stop offset="0" stop-color="#e38ddd"/><stop offset="1" stop-color="#9571f6"/></linearGradient><linearGradient id="linear-gradient-3" x1="1950.16" y1="2996.19" x2="1956.95" y2="2419.32" gradientUnits="userSpaceOnUse"><stop offset="0.49" stop-color="#ebeff2"/><stop offset="1" stop-color="#fff"/></linearGradient><linearGradient id="linear-gradient-4" x1="2381.31" y1="522.57" x2="2791.48" y2="1345.69" gradientUnits="userSpaceOnUse"><stop offset="0" stop-color="#311944"/><stop offset="1" stop-color="#893976"/></linearGradient><linearGradient id="linear-gradient-5" x1="2622.52" y1="1063.22" x2="3020.92" y2="1802.14" gradientUnits="userSpaceOnUse"><stop offset="0" stop-color="#ffc444"/><stop offset="1" stop-color="#f36f56"/></linearGradient><linearGradient id="linear-gradient-6" x1="2513.11" y1="1112.33" x2="2900.14" y2="1889.02" xlink:href="#linear-gradient-5"/><linearGradient id="linear-gradient-7" x1="539.53" y1="589.58" x2="949.7" y2="1412.7" xlink:href="#linear-gradient-4"/><linearGradient id="linear-gradient-8" x1="780.74" y1="1130.23" x2="1179.14" y2="1869.15" xlink:href="#linear-gradient-5"/><linearGradient id="linear-gradient-9" x1="671.33" y1="1179.34" x2="1058.37" y2="1956.03" xlink:href="#linear-gradient-5"/><linearGradient id="linear-gradient-10" x1="1063.9" y1="151.1" x2="1537.35" y2="1101.21" xlink:href="#linear-gradient-4"/><linearGradient id="linear-gradient-11" x1="1212.26" y1="531.29" x2="1669.88" y2="1380.05" xlink:href="#linear-gradient-5"/><linearGradient id="linear-gradient-12" x1="1078.78" y1="590.12" x2="1518.89" y2="1473.31" xlink:href="#linear-gradient-5"/><linearGradient id="linear-gradient-13" x1="1993.14" y1="224.29" x2="2405.57" y2="1051.93" xlink:href="#linear-gradient-4"/><linearGradient id="linear-gradient-14" x1="2118.16" y1="565.75" x2="2518.75" y2="1308.73" xlink:href="#linear-gradient-5"/><linearGradient id="linear-gradient-15" x1="2005.72" y1="608.85" x2="2396.2" y2="1392.46" xlink:href="#linear-gradient-5"/><clipPath id="clip-path" transform="translate(-312.87 -379.49)"><path class="cls-1" d="M1960.67,2840.35S1872,2591,2007.12,2479.14s230.24,14.86,233.33-236.39,122.13-689.57,412-581.23c88.06,32.91,150.55,91.46,133.88,190.25-12.25,72.6-66.87,134.91-68.91,209.64-2,72.3,57.08,123.42,82.56,186.3,31.17,76.94-6.32,148.55-61.76,202.7-58.47,57.12-129.74,101.33-197.23,146.83-36.67,24.72-79,50.65-103.23,89.07-30.54,48.52-12.4,127.72-27.66,181.53-12.81,45.17-48.54,57.16-90.52,68.93-88.48,24.8-177.76,12.3-268.11,8.89Z"/></clipPath><clipPath id="clip-path-2" transform="translate(-312.87 -379.49)"><path class="cls-2" d="M2259,2438.91c171.91.62,225.7,135.25,278,33.11s355.93-531,536.56-362.48-12.25,255.67-63.05,362.49,15.7,220.81-126.8,252.48c-67.06,14.89-178.91,6-231.33,57.51-42.6,41.84-34.27,109.8-74.65,152.39-35.4,37.32-92.8,43.7-141.49,45.14-29,.85-57.82-1.31-86.54-5.23-19.66-2.69-72.2-24.51-89.74-18.68,0,0-141.57,47.09-142.48-82.32C2117.45,2873.32,2087.1,2438.28,2259,2438.91Z"/></clipPath><linearGradient id="linear-gradient-18" x1="2161.5" y1="2598.29" x2="1781.62" y2="3712.62" gradientUnits="userSpaceOnUse"><stop offset="0" stop-color="#ffc444"/><stop offset="0.51" stop-color="#f9984d"/><stop offset="1" stop-color="#f36f56"/></linearGradient><linearGradient id="linear-gradient-19" x1="2334.54" y1="2271.48" x2="2224.29" y2="2594.89" xlink:href="#linear-gradient-5"/><linearGradient id="linear-gradient-20" x1="330.98" y1="2289.39" x2="2197.13" y2="2289.39" gradientUnits="userSpaceOnUse"><stop offset="0" stop-color="#aa80f9"/><stop offset="1" stop-color="#6165d7"/></linearGradient><linearGradient id="linear-gradient-21" x1="333.38" y1="2570.08" x2="2171.3" y2="2570.08" xlink:href="#linear-gradient-20"/><linearGradient id="linear-gradient-22" x1="1964.18" y1="2531.03" x2="1584.29" y2="3645.35" xlink:href="#linear-gradient-5"/><linearGradient id="linear-gradient-23" x1="1942.58" y1="1332.13" x2="1772.56" y2="1965.01" gradientUnits="userSpaceOnUse"><stop offset="0" stop-color="#893976"/><stop offset="1" stop-color="#311944"/></linearGradient><linearGradient id="linear-gradient-24" x1="1644.06" y1="2421.89" x2="1264.18" y2="3536.21" xlink:href="#linear-gradient-5"/><linearGradient id="linear-gradient-25" x1="1885.21" y1="997.18" x2="786.05" y2="2882.5" xlink:href="#linear-gradient-20"/><linearGradient id="linear-gradient-27" x1="2076.77" y1="1492.04" x2="1980.07" y2="1657.9" xlink:href="#linear-gradient-20"/><linearGradient id="linear-gradient-28" x1="1875.13" y1="1391.04" x2="1979.03" y2="918.74" gradientUnits="userSpaceOnUse"><stop offset="0" stop-color="#26264f"/><stop offset="1" stop-color="#444b8c"/></linearGradient><linearGradient id="linear-gradient-29" x1="1874.82" y1="1432.37" x2="2402.65" y2="1269.83" xlink:href="#linear-gradient-23"/><linearGradient id="linear-gradient-30" x1="1920.59" y1="1401.04" x2="2024.5" y2="928.74" xlink:href="#linear-gradient-28"/><linearGradient id="linear-gradient-31" x1="2004.43" y1="1348.75" x2="1834.4" y2="1981.63" xlink:href="#linear-gradient-23"/><linearGradient id="linear-gradient-32" x1="1939.51" y1="1619.25" x2="1870.01" y2="1738.46" xlink:href="#linear-gradient-20"/><linearGradient id="linear-gradient-33" x1="5434.51" y1="1619.25" x2="5365.01" y2="1738.46" gradientTransform="matrix(-1, 0, 0, 1, 7375.6, 0)" xlink:href="#linear-gradient-20"/><linearGradient id="linear-gradient-34" x1="4502.37" y1="1890.98" x2="4482.8" y2="1924.56" gradientTransform="translate(-978.88 -2251.23) rotate(30.06)" xlink:href="#linear-gradient-20"/><linearGradient id="linear-gradient-35" x1="1948.31" y1="1635.37" x2="1928.74" y2="1668.95" xlink:href="#linear-gradient-20"/><linearGradient id="linear-gradient-36" x1="1929" y1="2733.55" x2="1672.39" y2="3486.27" xlink:href="#linear-gradient-5"/><linearGradient id="linear-gradient-37" x1="1743.32" y1="2505.52" x2="1648.4" y2="2236.59" gradientUnits="userSpaceOnUse"><stop offset="0" stop-color="#444b8c"/><stop offset="1" stop-color="#3e4177"/></linearGradient><linearGradient id="linear-gradient-38" x1="1641.53" y1="2495.37" x2="1676.33" y2="2735.83" xlink:href="#linear-gradient-37"/><linearGradient id="linear-gradient-39" x1="2331.14" y1="2516.43" x2="2146.08" y2="2253.65" xlink:href="#linear-gradient-37"/><linearGradient id="linear-gradient-40" x1="1976.17" y1="2951.32" x2="2381.15" y2="2128.7" xlink:href="#linear-gradient-37"/><linearGradient id="linear-gradient-41" x1="1778.34" y1="2423.33" x2="2668.03" y2="2423.33" xlink:href="#linear-gradient-37"/><linearGradient id="linear-gradient-42" x1="569.56" y1="2132.7" x2="749.5" y2="2132.7" gradientTransform="matrix(-0.98, 0.21, 0.21, 0.98, 1851.84, 318.86)" xlink:href="#linear-gradient-23"/><linearGradient id="linear-gradient-43" x1="-1693.91" y1="2626.77" x2="-1565.06" y2="2626.77" gradientTransform="matrix(-1, 0, 0, 1, 997.42, 0)" xlink:href="#linear-gradient-23"/><linearGradient id="linear-gradient-44" x1="980.26" y1="2841.57" x2="593.12" y2="3705.01" xlink:href="#linear-gradient-23"/><linearGradient id="linear-gradient-45" x1="1109.05" y1="2899.32" x2="721.91" y2="3762.76" xlink:href="#linear-gradient-23"/><linearGradient id="linear-gradient-46" x1="1222.93" y1="3059.67" x2="481.19" y2="2120.13" xlink:href="#linear-gradient"/></defs><g class="cls-3"><g id="Illustration"><path class="cls-4" d="M1797.71,380.13C1060.43,358.36,421.78,893.33,325.3,1595.28c-105.5,767.48,475.13,1458,1189.58,1568.64,888.65,137.57,1750.59-658.29,1673.2-1521.69C3129.77,991.74,2547.17,402.26,1797.71,380.13Z" transform="translate(-312.87 -379.49)"/><path class="cls-5" d="M2197.71,2500.75a111.81,111.81,0,0,1-74.13-84.18l-55.11-272.73-471.37,16.74-58,284.12c-8.13,39.79,24.4,79.71,61.85,94.37l197.22,77.16a256.4,256.4,0,0,0,115.29,16.71l416.78-35.65a25.85,25.85,0,0,0,23.38-22.91c1.41-12.29,9.95-26.08-1.67-29.93Z" transform="translate(-312.87 -379.49)"/><path class="cls-6" d="M2202.38,2484.16a110.84,110.84,0,0,1-74.06-83.12l-55.05-269.3-459.88,16.55-58,280.55a82.09,82.09,0,0,0,50.78,93.16l197,76.19a258.91,258.91,0,0,0,115.18,16.5l416.36-35.2a25.69,25.69,0,0,0,5.84-50Z" transform="translate(-312.87 -379.49)"/><path class="cls-5" d="M633.92,2325.11c-51.12,3-92.94-30.11-92.94-73.94V671.65c0-43.82,41.82-77.66,92.94-75.45L3008.13,760.57c37.53,1.62,57.66-28.67,57.66,8.6V2112.54c0,37.27-30.38,69.4-67.91,71.64Z" transform="translate(-312.87 -379.49)"/><path class="cls-7" d="M655.16,2325.11c-51.12,3-92.93-30.11-92.93-73.94V671.65c0-43.82,41.81-77.66,92.93-75.45l2364,102.43c37.53,1.63,67.92,33.27,67.92,70.54V2112.54c0,37.27-30.39,69.4-67.92,71.64Z" transform="translate(-312.87 -379.49)"/><path class="cls-8" d="M3019.12,730.25,655.16,633c-27.33-1.13-49.54,16.93-49.54,40.33V2248.79c0,23.4,22.21,41.09,49.54,39.52l2364-135.74c20.12-1.16,36.38-18.3,36.38-38.3V768C3055.5,748,3039.24,731.07,3019.12,730.25Z" transform="translate(-312.87 -379.49)"/><path class="cls-9" d="M3001.56,2038.9,680.78,2153.46c-24.36,1.2-44.15-14.9-44.15-36V694c0-21.07,19.79-37.41,44.15-36.51l2320.78,86.15a34.41,34.41,0,0,1,32.94,34.09V2004.4A34.94,34.94,0,0,1,3001.56,2038.9Z" transform="translate(-312.87 -379.49)"/><polygon class="cls-10" points="946.87 428.35 416.86 412.76 416.86 362.23 946.87 379.37 946.87 428.35"/><polygon class="cls-11" points="1196.47 421.71 1074.03 418.01 1074.03 383.48 1196.47 387.44 1196.47 421.71"/><polygon class="cls-11" points="1196.47 469.33 1074.03 465.98 1074.03 431.45 1196.47 435.06 1196.47 469.33"/><polygon class="cls-10" points="1806.62 486.03 1331.62 473.03 1331.62 439.04 1806.62 453.03 1806.62 486.03"/><polygon class="cls-10" points="1884.51 533.78 1414.23 522.27 1414.23 488.46 1884.51 500.95 1884.51 533.78"/><polygon class="cls-10" points="1884.51 579.41 1414.23 569.26 1414.23 535.44 1884.51 546.57 1884.51 579.41"/><polygon class="cls-10" points="1884.51 625.03 1414.23 616.24 1414.23 582.43 1884.51 592.2 1884.51 625.03"/><polygon class="cls-11" points="1196.47 516.94 1074.03 513.95 1074.03 479.42 1196.47 482.67 1196.47 516.94"/><polygon class="cls-11" points="1196.47 564.56 1074.03 561.91 1074.03 527.39 1196.47 530.29 1196.47 564.56"/><polygon class="cls-11" points="1196.47 612.17 1074.03 609.88 1074.03 575.36 1196.47 577.9 1196.47 612.17"/><polygon class="cls-11" points="1196.47 659.78 1074.03 657.85 1074.03 623.33 1196.47 625.52 1196.47 659.78"/><polygon class="cls-10" points="1524.56 664.97 1223.18 660.21 1223.18 625.99 1524.56 631.38 1524.56 664.97"/><polygon class="cls-11" points="1196.47 707.4 1074.03 705.82 1074.03 671.29 1196.47 673.13 1196.47 707.4"/><polygon class="cls-11" points="1196.47 755.01 1074.03 753.79 1074.03 719.26 1196.47 720.74 1196.47 755.01"/><polygon class="cls-11" points="1196.47 802.63 1074.03 801.75 1074.03 767.23 1196.47 768.36 1196.47 802.63"/><polygon class="cls-10" points="1665.76 713.46 1331.62 709.14 1331.62 675.16 1665.76 680.17 1665.76 713.46"/><polygon class="cls-10" points="1839.35 761.46 1414.23 757.2 1414.23 723.38 1839.35 728.53 1839.35 761.46"/><polygon class="cls-10" points="1839.35 807.21 1414.23 804.18 1414.23 770.37 1839.35 774.28 1839.35 807.21"/><polygon class="cls-11" points="1196.47 850.24 1074.03 849.72 1074.03 815.2 1196.47 815.97 1196.47 850.24"/><polygon class="cls-11" points="1196.47 897.86 1074.03 897.69 1074.03 863.17 1196.47 863.59 1196.47 897.86"/><polygon class="cls-11" points="1196.47 945.47 1074.03 945.66 1074.03 911.13 1196.47 911.2 1196.47 945.47"/><polygon class="cls-11" points="1196.47 993.09 1074.03 993.63 1074.03 959.1 1196.47 958.82 1196.47 993.09"/><polygon class="cls-11" points="1196.47 1040.7 1074.03 1041.6 1074.03 1007.07 1196.47 1006.43 1196.47 1040.7"/><polygon class="cls-11" points="1196.47 1088.31 1074.03 1089.57 1074.03 1055.04 1196.47 1054.04 1196.47 1088.31"/><polygon class="cls-11" points="1196.47 1135.93 1074.03 1137.53 1074.03 1103.01 1196.47 1101.66 1196.47 1135.93"/><polygon class="cls-11" points="1196.47 1183.54 1074.03 1185.5 1074.03 1150.98 1196.47 1149.27 1196.47 1183.54"/><polygon class="cls-11" points="1196.47 1231.16 1074.03 1233.47 1074.03 1198.94 1196.47 1196.89 1196.47 1231.16"/><polygon class="cls-11" points="1196.47 1278.77 1074.03 1281.44 1074.03 1246.91 1196.47 1244.5 1196.47 1278.77"/><polygon class="cls-11" points="1196.47 1326.39 1074.03 1329.41 1074.03 1294.88 1196.47 1292.12 1196.47 1326.39"/><polygon class="cls-11" points="1196.47 1374 1074.03 1377.37 1074.03 1342.85 1196.47 1339.73 1196.47 1374"/><polygon class="cls-11" points="1196.47 1421.61 1074.03 1425.34 1074.03 1390.82 1196.47 1387.35 1196.47 1421.61"/><polygon class="cls-11" points="1196.47 1469.23 1074.03 1473.31 1074.03 1438.79 1196.47 1434.96 1196.47 1469.23"/><polygon class="cls-11" points="1196.47 1516.84 1074.03 1521.28 1074.03 1486.76 1196.47 1482.57 1196.47 1516.84"/><polygon class="cls-11" points="1196.47 1564.46 1074.03 1569.25 1074.03 1534.72 1196.47 1530.19 1196.47 1564.46"/><polygon class="cls-11" points="1196.47 1612.07 1074.03 1617.22 1074.03 1582.69 1196.47 1577.8 1196.47 1612.07"/><polygon class="cls-11" points="1196.47 1659.69 1074.03 1665.18 1074.03 1630.66 1196.47 1625.42 1196.47 1659.69"/><polygon class="cls-10" points="1556.27 432.6 1222.35 422.5 1222.35 388.28 1556.27 399.08 1556.27 432.6"/><polygon class="cls-10" points="1806.62 1403.03 1331.62 1417.5 1331.62 1383.51 1806.62 1370.03 1806.62 1403.03"/><polygon class="cls-10" points="1884.51 1446.29 1414.23 1461.97 1414.23 1428.15 1884.51 1413.45 1884.51 1446.29"/><polygon class="cls-10" points="1884.51 1491.91 1414.23 1508.95 1414.23 1475.14 1884.51 1459.07 1884.51 1491.91"/><polygon class="cls-10" points="2087.17 1529.61 1629.07 1547.53 1629.07 1514.16 2087.17 1497.19 2087.17 1529.61"/><polygon class="cls-10" points="2087.17 1574.65 1629.07 1593.89 1629.07 1560.53 2087.17 1542.23 2087.17 1574.65"/><polygon class="cls-10" points="2087.17 1619.69 1629.07 1640.26 1629.07 1606.89 2087.17 1587.27 2087.17 1619.69"/><polygon class="cls-10" points="1556.27 1364.08 1222.35 1373.29 1222.35 1339.07 1556.27 1330.56 1556.27 1364.08"/><polygon class="cls-10" points="1806.62 898.68 1331.62 898.04 1331.62 864.05 1806.62 865.68 1806.62 898.68"/><polygon class="cls-10" points="1884.51 944.41 1414.23 945.14 1414.23 911.32 1884.51 911.57 1884.51 944.41"/><polygon class="cls-10" points="1884.51 990.04 1414.23 992.12 1414.23 958.3 1884.51 957.2 1884.51 990.04"/><polygon class="cls-10" points="1884.51 1035.66 1414.23 1039.11 1414.23 1005.29 1884.51 1002.82 1884.51 1035.66"/><polygon class="cls-10" points="1524.56 1084.96 1223.18 1088.04 1223.18 1053.83 1524.56 1051.38 1524.56 1084.96"/><polygon class="cls-10" points="1665.76 1129.78 1331.62 1134.16 1331.62 1100.17 1665.76 1096.48 1665.76 1129.78"/><polygon class="cls-10" points="1839.35 1173.26 1414.23 1180.06 1414.23 1146.24 1839.35 1140.33 1839.35 1173.26"/><polygon class="cls-10" points="1839.35 1219.02 1414.23 1227.04 1414.23 1193.23 1839.35 1186.08 1839.35 1219.02"/><polygon class="cls-10" points="1933.59 1262.72 1513.59 1271.87 1513.59 1238.26 1933.59 1229.98 1933.59 1262.72"/><polygon class="cls-10" points="1933.59 1308.2 1513.59 1318.56 1513.59 1284.95 1933.59 1275.46 1933.59 1308.2"/><polygon class="cls-10" points="1556.27 851.77 1222.35 850.35 1222.35 816.14 1556.27 818.25 1556.27 851.77"/><polygon class="cls-12" points="946.87 504.88 643.5 497.35 643.5 447.48 946.87 455.9 946.87 504.88"/><polygon class="cls-10" points="565.03 495.4 622.17 496.82 622.17 446.89 565.03 445.3 565.03 495.4"/><polygon class="cls-10" points="946.87 575.29 643.5 569.04 643.5 519.17 946.87 526.31 946.87 575.29"/><polygon class="cls-10" points="565.03 567.42 622.17 568.6 622.17 518.66 565.03 517.32 565.03 567.42"/><polygon class="cls-10" points="946.87 645.7 643.5 640.72 643.5 590.85 946.87 596.72 946.87 645.7"/><polygon class="cls-10" points="565.03 639.44 622.17 640.37 622.17 590.44 565.03 589.34 565.03 639.44"/><polygon class="cls-12" points="946.87 1145.48 416.86 1152.63 416.86 1102.1 946.87 1096.51 946.87 1145.48"/><polygon class="cls-10" points="946.87 1222.02 643.5 1227.5 643.5 1177.63 946.87 1173.04 946.87 1222.02"/><polygon class="cls-10" points="565.03 1228.91 622.17 1227.88 622.17 1177.95 565.03 1178.81 565.03 1228.91"/><polygon class="cls-10" points="946.87 1292.43 643.5 1299.18 643.5 1249.31 946.87 1243.45 946.87 1292.43"/><polygon class="cls-10" points="565.03 1300.93 622.17 1299.66 622.17 1249.73 565.03 1250.83 565.03 1300.93"/><polygon class="cls-10" points="946.87 1362.84 643.5 1370.87 643.5 1321 946.87 1313.86 946.87 1362.84"/><polygon class="cls-10" points="565.03 1372.95 622.17 1371.43 622.17 1321.5 565.03 1322.85 565.03 1372.95"/><polygon class="cls-12" points="946.87 716.59 416.86 710.14 416.86 659.6 946.87 667.61 946.87 716.59"/><polygon class="cls-10" points="946.87 793.12 643.5 790.82 643.5 740.95 946.87 744.14 946.87 793.12"/><polygon class="cls-10" points="565.03 790.22 622.17 790.65 622.17 740.72 565.03 740.12 565.03 790.22"/><polygon class="cls-10" points="946.87 863.53 643.5 862.5 643.5 812.63 946.87 814.55 946.87 863.53"/><polygon class="cls-10" points="565.03 862.24 622.17 862.43 622.17 812.5 565.03 812.14 565.03 862.24"/><polygon class="cls-10" points="946.87 1005.26 643.5 1006.81 643.5 956.94 946.87 956.28 946.87 1005.26"/><polygon class="cls-10" points="565.03 1007.21 622.17 1006.92 622.17 956.99 565.03 957.11 565.03 1007.21"/><polygon class="cls-10" points="946.87 1075.67 643.5 1078.49 643.5 1028.63 946.87 1026.69 946.87 1075.67"/><polygon class="cls-10" points="565.03 1079.23 622.17 1078.69 622.17 1028.76 565.03 1029.13 565.03 1079.23"/><polygon class="cls-10" points="946.87 933.94 643.5 934.19 643.5 884.32 946.87 884.96 946.87 933.94"/><polygon class="cls-10" points="565.03 934.25 622.17 934.21 622.17 884.28 565.03 884.16 565.03 934.25"/><polygon class="cls-12" points="946.87 1433.22 416.86 1449.49 416.86 1398.95 946.87 1384.24 946.87 1433.22"/><polygon class="cls-10" points="946.87 1509.75 643.5 1520.45 643.5 1470.58 946.87 1460.77 946.87 1509.75"/><polygon class="cls-10" points="565.03 1523.22 622.17 1521.2 622.17 1471.27 565.03 1473.12 565.03 1523.22"/><polygon class="cls-10" points="946.87 1580.16 643.5 1592.14 643.5 1542.27 946.87 1531.18 946.87 1580.16"/><polygon class="cls-10" points="565.03 1595.24 622.17 1592.98 622.17 1543.05 565.03 1545.14 565.03 1595.24"/><polygon class="cls-10" points="946.87 1650.57 643.5 1663.83 643.5 1613.96 946.87 1601.59 946.87 1650.57"/><polygon class="cls-10" points="565.03 1667.26 622.17 1664.76 622.17 1614.83 565.03 1617.16 565.03 1667.26"/><polygon class="cls-10" points="1011.27 1648 999.6 1648.51 999.6 381.08 1011.27 381.45 1011.27 1648"/><path class="cls-10" d="M2772.33,2086.41c-514.6,10.76-630.32,84.24-776.54-3.8-200.93-121-109.42-336.18-305.19-449.06-246.11-141.91-529.87,118-658.32-8.72-127.92-126.19,113.72-423.18-26.16-754.24C950,737.74,854.39,651.45,788.36,602l-133.2-5.77C604,594,562.23,627.83,562.23,671.65V2251.17c0,43.83,41.81,77,92.93,73.94l2364-140.93c37.53-2.24,67.92-34.37,67.92-71.64v-23.89C3016.19,2086.14,2906.44,2083.61,2772.33,2086.41Z" transform="translate(-312.87 -379.49)"/><path class="cls-13" d="M3028.07,1262.58c0-142.24-131.21-253.29-287.48-248.2-89,2.89-166.42,43-214.77,102.23l0,0c-.3.37-.58.75-.88,1.12-.83,1-1.64,2.09-2.46,3.14q-2.24,2.87-4.4,5.79c-.85,1.15-1.68,2.31-2.51,3.47-1.38,2-2.72,3.91-4,5.89-.76,1.13-1.52,2.26-2.25,3.41-1.48,2.28-2.89,4.6-4.28,6.94-.51.84-1,1.67-1.53,2.52q-2.76,4.74-5.28,9.6c-.45.86-.86,1.74-1.29,2.6-1.23,2.43-2.43,4.87-3.57,7.34-.56,1.21-1.09,2.44-1.63,3.66-1,2.18-1.9,4.38-2.8,6.6q-.78,1.92-1.53,3.87-1.3,3.4-2.5,6.86c-.42,1.21-.85,2.41-1.25,3.62-.95,2.89-1.84,5.82-2.68,8.76-.17.61-.37,1.21-.54,1.83q-1.47,5.33-2.67,10.73c-.24,1.06-.44,2.13-.66,3.2-.54,2.59-1.05,5.18-1.5,7.79-.23,1.33-.43,2.67-.63,4q-.57,3.63-1,7.29c-.17,1.36-.33,2.73-.47,4.11-.26,2.57-.46,5.15-.63,7.75-.08,1.2-.19,2.4-.25,3.62-.19,3.79-.31,7.59-.31,11.42,0,91.28,55.28,171.79,138.16,214.9q11.43,6,23.56,10.94,6.06,2.49,12.29,4.73a305.21,305.21,0,0,0,94.32,17.67h0c4.6.13,9.18.15,13.74.09,1.53,0,3.05-.11,4.59-.16,3-.08,6-.17,9-.35,1.83-.1,3.64-.27,5.46-.41,2.68-.2,5.35-.4,8-.67,1.94-.2,3.87-.44,5.8-.68,2.51-.3,5-.61,7.5-1,2-.29,3.95-.61,5.93-.94q3.62-.6,7.19-1.27c2-.38,4-.79,6-1.21,2.33-.49,4.66-1,7-1.56,2-.47,4-.95,5.93-1.46q3.43-.89,6.82-1.85c1.95-.56,3.9-1.11,5.83-1.7.71-.21,1.44-.4,2.15-.62l-.05,0C2949.55,1464,3028.07,1372.24,3028.07,1262.58Z" transform="translate(-312.87 -379.49)"/><path class="cls-14" d="M3006.59,1262.61c0,141.87-130.53,253.07-286,248.53-149.7-4.37-267-115.17-267-247.62s117.32-243.63,267-248.49C2876.06,1010,3006.59,1120.74,3006.59,1262.61Z" transform="translate(-312.87 -379.49)"/><path class="cls-7" d="M2622.21,1384a80.79,80.79,0,0,1-22.6-3.22v-33.18a72,72,0,0,0,18,2.78q12.65.15,18.13-8t5.48-25.65V1139.3l38.93-.92v178.33q0,33.36-14.75,50.62T2622.21,1384Z" transform="translate(-312.87 -379.49)"/><path class="cls-7" d="M2870,1307q0,31-22.27,48.67t-61.14,16.9q-35.6-.52-62.57-14.41V1314q22.18,10.26,37.7,14.54a112,112,0,0,0,28.53,4.41q15.63.12,24-5.86t8.41-18a20.12,20.12,0,0,0-3.71-11.92,41.37,41.37,0,0,0-10.86-10q-7.14-4.81-29-15.33-20.37-9.69-30.46-18.57a68.86,68.86,0,0,1-16.09-20.64q-6-11.76-6-27.53,0-29.74,19.75-47.14t55.28-18.34a130.48,130.48,0,0,1,33.55,3.45,228.58,228.58,0,0,1,33.77,11.16l-15.65,38q-18.21-7.23-30-10a94.9,94.9,0,0,0-23.17-2.58q-13.47.23-20.63,6.68a21.36,21.36,0,0,0-7.15,16.63,20.48,20.48,0,0,0,2.89,11,31.6,31.6,0,0,0,9.21,9q6.33,4.35,30.13,15.65,31.7,15.08,43.6,30.47T2870,1307Z" transform="translate(-312.87 -379.49)"/><g class="cls-15"><path class="cls-16" d="M2788.19,1449.4c-33.74-74.28.37-142.93-45.19-190.57-45.76-47.86-104.45-3.12-166.67-41.42-23.79-14.64-50.08-42.66-69.5-100.46-33.51,41.14-53.28,91.87-53.28,146.57,0,132.45,117.32,243.25,267,247.62A304.92,304.92,0,0,0,2821,1497.4,170.75,170.75,0,0,1,2788.19,1449.4Z" transform="translate(-312.87 -379.49)"/></g><path class="cls-17" d="M1186.29,1329.58c0-142.24-131.21-253.28-287.48-248.2-89,2.9-166.42,43-214.77,102.24l0,0c-.3.37-.58.75-.88,1.12-.83,1-1.64,2.09-2.46,3.14q-2.23,2.87-4.4,5.78c-.84,1.16-1.68,2.31-2.5,3.48-1.38,1.94-2.73,3.91-4,5.89-.75,1.13-1.52,2.26-2.25,3.41-1.47,2.28-2.89,4.6-4.28,6.93-.51.85-1,1.68-1.53,2.53q-2.74,4.74-5.28,9.6c-.45.86-.85,1.73-1.29,2.6-1.23,2.43-2.43,4.87-3.57,7.34-.56,1.21-1.09,2.43-1.63,3.66-1,2.18-1.9,4.38-2.79,6.59-.52,1.29-1,2.58-1.53,3.88-.88,2.27-1.7,4.56-2.5,6.86-.42,1.21-.86,2.4-1.26,3.62-1,2.89-1.84,5.82-2.68,8.75-.17.62-.37,1.22-.54,1.84-1,3.54-1.86,7.12-2.67,10.73-.24,1.06-.43,2.13-.66,3.2-.54,2.58-1,5.18-1.5,7.79-.22,1.33-.43,2.67-.63,4-.37,2.42-.71,4.85-1,7.28-.16,1.37-.33,2.74-.47,4.12-.26,2.57-.46,5.15-.63,7.75-.08,1.2-.18,2.4-.25,3.61-.19,3.79-.31,7.6-.31,11.43,0,91.28,55.28,171.79,138.16,214.9q11.43,6,23.56,10.94,6.06,2.49,12.29,4.73a305,305,0,0,0,94.32,17.66h0c4.61.14,9.18.16,13.74.09,1.54,0,3.06-.1,4.59-.15,3-.09,6-.18,9-.35,1.83-.1,3.63-.27,5.46-.41,2.67-.2,5.34-.4,8-.67,1.94-.2,3.87-.45,5.8-.68,2.51-.3,5-.61,7.5-1,2-.29,4-.61,5.93-.94q3.61-.6,7.19-1.27c2-.38,4-.79,6-1.21q3.51-.73,7-1.56c2-.47,4-.95,5.93-1.46q3.44-.89,6.82-1.86c1.95-.55,3.9-1.1,5.83-1.69.71-.22,1.44-.4,2.15-.62l-.05,0C1107.77,1531.05,1186.29,1439.24,1186.29,1329.58Z" transform="translate(-312.87 -379.49)"/><path class="cls-18" d="M1164.82,1329.62c0,141.87-130.54,253.07-286,248.53-149.7-4.37-267-115.17-267-247.62s117.32-243.63,267-248.49C1034.28,1077,1164.82,1187.75,1164.82,1329.62Z" transform="translate(-312.87 -379.49)"/><path class="cls-7" d="M808.64,1398.33l-111-56.49v-18.19l111-64.28v31l-76.8,41,76.8,36.14Z" transform="translate(-312.87 -379.49)"/><path class="cls-7" d="M926.72,1234.29l-63.13,190.8-31.71-.33,62.63-190Z" transform="translate(-312.87 -379.49)"/><path class="cls-7" d="M950.19,1367.93l81.13-37-81.13-41.5v-31.52l118.31,64.84v19l-118.31,57.54Z" transform="translate(-312.87 -379.49)"/><g class="cls-15"><path class="cls-19" d="M946.41,1516.41c-33.74-74.29.37-142.93-45.18-190.57-45.77-47.86-104.46-3.12-166.67-41.42-23.8-14.64-50.08-42.67-69.51-100.46-33.51,41.14-53.28,91.86-53.28,146.57,0,132.45,117.32,243.25,267,247.62a305.15,305.15,0,0,0,100.38-13.74A171.11,171.11,0,0,1,946.41,1516.41Z" transform="translate(-312.87 -379.49)"/></g><path class="cls-20" d="M1699.37,772.28c.46-168.17-168.45-296.83-359.31-287.75-103.83,4.94-191.37,50.08-244.67,114.48l0-.06c-.33.4-.63.81-1,1.21-.91,1.11-1.79,2.25-2.68,3.38q-2.45,3.08-4.8,6.22c-.92,1.23-1.83,2.48-2.73,3.73q-2.23,3.12-4.39,6.32c-.82,1.21-1.65,2.42-2.44,3.65-1.6,2.45-3.13,4.93-4.64,7.42-.55.91-1.12,1.79-1.65,2.7q-3,5.07-5.7,10.26c-.49.91-.93,1.85-1.4,2.77-1.32,2.6-2.61,5.2-3.84,7.83-.6,1.29-1.17,2.6-1.75,3.9q-1.56,3.49-3,7c-.56,1.37-1.11,2.74-1.64,4.12q-1.41,3.63-2.68,7.31c-.45,1.28-.91,2.55-1.34,3.84q-1.53,4.62-2.86,9.31c-.19.66-.4,1.3-.58,1.95q-1.56,5.65-2.84,11.41c-.25,1.13-.46,2.27-.69,3.4-.58,2.75-1.12,5.5-1.59,8.28-.24,1.41-.46,2.83-.67,4.26-.39,2.57-.74,5.14-1,7.74-.17,1.45-.34,2.91-.48,4.37-.28,2.73-.48,5.48-.66,8.24-.08,1.29-.19,2.56-.25,3.85-.2,4-.31,8.08-.3,12.17.32,97.14,60.45,186.08,152.51,238.18q12.9,7.31,26.65,13.65,6.9,3.18,14,6.1a386.47,386.47,0,0,0,109.43,27h0c5.43.53,10.85.93,16.25,1.23,1.82.11,3.63.14,5.45.22,3.58.15,7.17.3,10.73.36,2.18,0,4.34,0,6.51,0,3.2,0,6.39,0,9.57-.08,2.33-.06,4.64-.18,7-.28,3-.13,6-.27,9-.47,2.39-.16,4.77-.36,7.15-.56,2.9-.25,5.81-.52,8.69-.83,2.42-.26,4.82-.56,7.23-.86q4.24-.55,8.46-1.18c2.42-.37,4.83-.75,7.22-1.16,2.79-.47,5.56-1,8.33-1.53,2.38-.46,4.76-.92,7.12-1.43.87-.19,1.77-.34,2.64-.53l-.06-.06C1596.91,1003.32,1699,901.59,1699.37,772.28Z" transform="translate(-312.87 -379.49)"/><path class="cls-21" d="M1661,769.52c-.39,166.24-166.22,284.56-353.06,266.41-170.1-16.52-297.61-142.27-298.1-282.49-.49-140.57,126.75-260.93,297.65-269.15C1495.31,475.25,1661.42,602.78,1661,769.52Z" transform="translate(-312.87 -379.49)"/><path class="cls-7" d="M1196.05,704.2q-17.23-.18-26.55,14t-9.24,39.46c.08,35.2,12,53.25,36,54.2q15.24.58,37.18-7l0,28.61q-18,7.43-40,6.37c-20.84-1-36.63-8.66-47.51-23s-16.24-34.28-16.3-60.12q-.06-24.42,7.82-42.7t22.9-28.14Q1175.44,676,1196,676q21.12.06,42.79,11.49l-10,27.7a159.7,159.7,0,0,0-16.52-7.67A45,45,0,0,0,1196.05,704.2Z" transform="translate(-312.87 -379.49)"/><path class="cls-7" d="M1366.55,799.37q0,22.57-15.32,34.9c-10.14,8.16-24.18,11.8-42,11q-24.42-1.14-42.91-11.77l0-32a173.73,173.73,0,0,0,25.86,11.33,74.29,74.29,0,0,0,19.59,3.79q10.72.42,16.49-3.76T1334,800a15.6,15.6,0,0,0-2.56-8.73,30.6,30.6,0,0,0-7.47-7.52q-4.9-3.63-19.93-11.72-14-7.44-20.92-14.08a51.9,51.9,0,0,1-11.06-15.29,46.38,46.38,0,0,1-4.13-20.11q0-21.59,13.51-33.86t38-12.31a85.71,85.71,0,0,1,23.1,3.12,154.83,154.83,0,0,1,23.26,8.76L1355,715.59a152.22,152.22,0,0,0-20.69-7.85,62.15,62.15,0,0,0-15.93-2.31q-9.27-.09-14.18,4.46a15.52,15.52,0,0,0-4.91,12,16.05,16.05,0,0,0,2,8.06,23.34,23.34,0,0,0,6.34,6.73q4.37,3.29,20.72,12,21.81,11.58,30,23T1366.55,799.37Z" transform="translate(-312.87 -379.49)"/><path class="cls-7" d="M1504.24,804.1q0,23.37-16.48,36.11c-10.89,8.43-25.94,12.18-45,11.29q-26.16-1.23-46-12.26V806.16q16.29,8.18,27.68,11.75a81.76,81.76,0,0,0,21,4q11.5.45,17.69-3.86t6.2-13.34a15.64,15.64,0,0,0-2.72-9,32.55,32.55,0,0,0-8-7.79q-5.27-3.78-21.35-12.15-15-7.71-22.39-14.6A53.6,53.6,0,0,1,1403,745.24a46.53,46.53,0,0,1-4.4-20.81q0-22.33,14.51-35t40.7-12.74a95.36,95.36,0,0,1,24.75,3.24,171.31,171.31,0,0,1,25,9.07L1492,717.32a167.56,167.56,0,0,0-22.18-8.14,69.35,69.35,0,0,0-17.08-2.4q-9.93-.09-15.2,4.62a17.23,17.23,0,0,0-3.14,20.7,24.17,24.17,0,0,0,6.78,7q4.66,3.4,22.19,12.4,23.37,12,32.15,23.86T1504.24,804.1Z" transform="translate(-312.87 -379.49)"/><g class="cls-15"><path class="cls-22" d="M1387.89,972.27c-40.2-85.22.43-160.52-53.79-215.53-53.6-54.38-120.94-6.51-190.91-49.76-26.37-16.29-55.28-46.88-76.61-109.09-36,43.84-56.92,97.53-56.72,155.55.49,140.22,128,266,298.1,282.49a377.15,377.15,0,0,0,119.39-7.2C1408.59,1009.28,1396.27,990,1387.89,972.27Z" transform="translate(-312.87 -379.49)"/></g><path class="cls-23" d="M2552.6,781.74c0-136.8-136.93-250.09-299.54-252.94-92.37-1.62-172.6,33-222.63,87.24l0,0c-.31.33-.6.69-.91,1-.86.94-1.69,1.91-2.54,2.88-1.55,1.75-3.07,3.51-4.55,5.31-.88,1.06-1.74,2.12-2.59,3.2-1.43,1.79-2.82,3.6-4.19,5.43-.78,1-1.57,2.08-2.33,3.14-1.52,2.12-3,4.26-4.42,6.42-.52.79-1.07,1.55-1.58,2.34q-2.83,4.39-5.46,8.92c-.46.8-.88,1.61-1.33,2.42-1.27,2.26-2.51,4.54-3.69,6.84-.58,1.13-1.12,2.27-1.68,3.41-1,2-2,4.1-2.89,6.17-.54,1.21-1.07,2.41-1.58,3.63-.91,2.13-1.76,4.28-2.59,6.44-.43,1.13-.88,2.25-1.29,3.39-1,2.72-1.9,5.47-2.77,8.24-.18.58-.39,1.15-.57,1.73q-1.52,5-2.75,10.12c-.25,1-.45,2-.68,3-.56,2.44-1.09,4.9-1.55,7.37-.24,1.26-.45,2.53-.66,3.8-.38,2.29-.73,4.59-1,6.91-.17,1.3-.33,2.6-.48,3.91-.27,2.44-.48,4.9-.66,7.38-.08,1.15-.19,2.29-.25,3.44-.2,3.62-.32,7.25-.32,10.92,0,87.28,57.14,167.22,142.94,212.92q11.85,6.32,24.41,11.74,6.28,2.71,12.75,5.2a350.33,350.33,0,0,0,97.89,22h0q7.17.57,14.27.83c1.6.06,3.18.06,4.77.1,3.13.08,6.27.16,9.38.16,1.9,0,3.78-.06,5.67-.1,2.78-.05,5.56-.1,8.31-.21,2-.08,4-.22,6-.33,2.61-.16,5.21-.32,7.8-.53,2.07-.18,4.12-.38,6.17-.59,2.5-.25,5-.52,7.48-.83q3.12-.39,6.21-.83,3.64-.52,7.26-1.12,3.09-.51,6.17-1.08c2.38-.44,4.74-.92,7.1-1.41,2-.42,4.05-.85,6.06-1.31.74-.17,1.5-.31,2.24-.48l-.05-.05C2470.61,971.26,2552.6,887.21,2552.6,781.74Z" transform="translate(-312.87 -379.49)"/><path class="cls-24" d="M2512.26,780.52c0,136.12-135.57,235.7-296.6,222.93-154.55-12.26-275.35-124.28-275.35-250.65s120.8-226.67,275.35-223.95C2376.69,531.68,2512.26,644.41,2512.26,780.52Z" transform="translate(-312.87 -379.49)"/><path class="cls-7" d="M2096.72,812.27l-20.63-1.14V766.46l-38.36-1.89V809l-20.38-1.13V705.19l20.38.85V746.4l38.36,1.8V707.64l20.63.86Z" transform="translate(-312.87 -379.49)"/><path class="cls-7" d="M2166.68,816.14,2145.6,815V729l-26.83-1.18V709.41l75.08,3.13v18.55l-27.17-1.2Z" transform="translate(-312.87 -379.49)"/><path class="cls-7" d="M2259.4,821.27,2234.89,737l-.63,0q1.32,25.37,1.32,33.82V820l-19.18-1.06V713.48l29.26,1.21,24.16,82.18.43,0,25.79-80.1,29.87,1.24V825l-20.48-1.13V773.34q0-3.57.11-8.23t.95-24.76l-.63,0-26.57,82Z" transform="translate(-312.87 -379.49)"/><path class="cls-7" d="M2359.49,826.81V719.43l22.28.93v88.83l43,2.27v19Z" transform="translate(-312.87 -379.49)"/><g class="cls-15"><path class="cls-25" d="M2285.63,948c-34.93-72.9.38-136.81-46.77-184.77-47.31-48.14-107.94-8.38-172.12-48.16-24.52-15.21-51.6-43.3-71.61-99.45-34.49,37.57-54.82,85-54.82,137.17,0,126.37,120.8,238.39,275.35,250.65a334.49,334.49,0,0,0,103.9-7.72A175.9,175.9,0,0,1,2285.63,948Z" transform="translate(-312.87 -379.49)"/></g><path class="cls-1" d="M1960.67,2840.35S1872,2591,2007.12,2479.14s230.24,14.86,233.33-236.39,122.13-689.57,412-581.23c88.06,32.91,150.55,91.46,133.88,190.25-12.25,72.6-66.87,134.91-68.91,209.64-2,72.3,57.08,123.42,82.56,186.3,31.17,76.94-6.32,148.55-61.76,202.7-58.47,57.12-129.74,101.33-197.23,146.83-36.67,24.72-79,50.65-103.23,89.07-30.54,48.52-12.4,127.72-27.66,181.53-12.81,45.17-48.54,57.16-90.52,68.93-88.48,24.8-177.76,12.3-268.11,8.89Z" transform="translate(-312.87 -379.49)"/><g class="cls-26"><g class="cls-27"><path class="cls-7" d="M2013.45,2955a3.16,3.16,0,0,0,2.64-1.42c54.6-82.91,111.74-156,169.83-217.41,20-21.07,41.61-41.79,62.55-61.82,63.93-61.16,130.05-124.41,162.09-210.37,37.44-100.43,53.34-208,68.72-312,18-121.89,36.65-247.93,90.11-362.37,128.58-275.22,240.88-283.15,242-283.2a3.17,3.17,0,1,0-.27-6.33c-1.2.06-30,1.69-75.14,38.16-41.15,33.28-104.46,103.43-172.32,248.69C2509.8,1902.17,2491.1,2028.68,2473,2151c-15.33,103.7-31.18,210.94-68.39,310.75-31.53,84.6-97.11,147.34-160.53,208-21,20.08-42.71,40.85-62.77,62-58.34,61.62-115.71,135.06-170.52,218.27a3.17,3.17,0,0,0,2.65,4.91Z" transform="translate(-312.87 -379.49)"/><path class="cls-7" d="M2488.43,2074.07h0a3.17,3.17,0,0,0,3.17-3.17c0-.79-.21-80.22-18.54-166.91-17-80.42-53.55-183.75-131.09-219.33a3.16,3.16,0,1,0-2.64,5.75c75.12,34.48,110.8,135.83,127.51,214.79,18.21,86,18.43,164.91,18.43,165.7A3.17,3.17,0,0,0,2488.43,2074.07Z" transform="translate(-312.87 -379.49)"/><path class="cls-7" d="M2353.33,2561.7a3.17,3.17,0,0,0,3.16-2.9c0-.57,4.44-57.58-11.65-133.2-14.86-69.82-50.7-170.33-137.11-252.72a3.17,3.17,0,0,0-4.37,4.58c85.18,81.21,120.56,180.37,135.24,249.25,15.94,74.75,11.62,131,11.58,131.57a3.15,3.15,0,0,0,2.89,3.41Z" transform="translate(-312.87 -379.49)"/><path class="cls-7" d="M2485.49,2092.63a3.19,3.19,0,0,0,2-.67c2.29-1.81,230.18-179.84,322.45-136.23a3.17,3.17,0,1,0,2.71-5.73c-40.44-19.12-108.23-1.77-201.48,51.55-69,39.44-127,85-127.6,85.43a3.16,3.16,0,0,0,2,5.65Z" transform="translate(-312.87 -379.49)"/><path class="cls-7" d="M2416.52,2440.74a3.17,3.17,0,0,0,2.08-.78c.46-.4,46.48-40.2,114.15-62.12,62.2-20.15,156.06-28.86,250,44a3.16,3.16,0,0,0,3.88-5c-96.18-74.67-192.31-65.69-256-45-68.85,22.35-115.69,62.9-116.16,63.31a3.17,3.17,0,0,0-.29,4.47A3.13,3.13,0,0,0,2416.52,2440.74Z" transform="translate(-312.87 -379.49)"/><path class="cls-7" d="M2144.2,2782.72a3.19,3.19,0,0,0,2.09-.78c.45-.4,46.47-40.21,114.14-62.12,62.2-20.15,156.06-28.86,250,44a3.17,3.17,0,1,0,3.89-5c-96.18-74.67-192.31-65.69-256-45-68.85,22.35-115.69,62.9-116.15,63.31a3.17,3.17,0,0,0,2.08,5.55Z" transform="translate(-312.87 -379.49)"/></g></g><path class="cls-2" d="M2259,2438.91c171.91.62,225.7,135.25,278,33.11s355.93-531,536.56-362.48-12.25,255.67-63.05,362.49,15.7,220.81-126.8,252.48c-67.06,14.89-178.91,6-231.33,57.51-42.6,41.84-34.27,109.8-74.65,152.39-35.4,37.32-92.8,43.7-141.49,45.14-29,.85-57.82-1.31-86.54-5.23-19.66-2.69-72.2-24.51-89.74-18.68,0,0-141.57,47.09-142.48-82.32C2117.45,2873.32,2087.1,2438.28,2259,2438.91Z" transform="translate(-312.87 -379.49)"/><g class="cls-28"><g class="cls-27"><path class="cls-7" d="M2159.71,3036.93h.3a3.16,3.16,0,0,0,2.85-3.45c-9-94.16,16.13-224.73,92.41-288.92,49.49-41.64,112-51.55,172.46-61.14,34.84-5.53,70.86-11.24,104.37-22.91,103-35.88,172.51-141.88,228.35-227.05l3.51-5.35c89.62-136.6,197.2-217.48,271.65-261.28,80.61-47.4,140.66-62.69,141.25-62.84a3.17,3.17,0,1,0-1.53-6.15c-.6.15-61.54,15.67-142.92,63.54-75,44.13-183.45,125.63-273.75,263.26l-3.51,5.35c-55.31,84.37-124.16,189.37-225.14,224.54-33,11.48-68.71,17.15-103.27,22.63-61.32,9.73-124.72,19.78-175.54,62.55-35.93,30.24-63.64,77.09-80.14,135.49-14.29,50.59-19.44,107-14.5,158.88A3.16,3.16,0,0,0,2159.71,3036.93Z" transform="translate(-312.87 -379.49)"/><path class="cls-7" d="M2893.08,2272.72a3.18,3.18,0,0,0,3.08-2.42c.14-.59,14.37-59.83,23.07-122.09,11.83-84.65,8.13-134.45-11-148a3.17,3.17,0,1,0-3.67,5.16c34.35,24.38,1.14,198.46-14.56,263.47a3.16,3.16,0,0,0,2.33,3.82A2.75,2.75,0,0,0,2893.08,2272.72Z" transform="translate(-312.87 -379.49)"/><path class="cls-7" d="M3183.64,2415.46a3.17,3.17,0,0,0,2.45-5.17c-44-53.92-344.19-76.1-357-77a3.17,3.17,0,0,0-.46,6.32c3.1.22,310.23,22.88,352.5,74.7A3.17,3.17,0,0,0,3183.64,2415.46Z" transform="translate(-312.87 -379.49)"/><path class="cls-7" d="M2591.44,2629.78a3.17,3.17,0,0,0,3-2.28c4-13.5,96.91-331.08,66.83-374.34a3.16,3.16,0,1,0-5.19,3.61c22.69,32.65-34.37,255.61-67.71,368.95a3.16,3.16,0,0,0,2.14,3.93A3.5,3.5,0,0,0,2591.44,2629.78Z" transform="translate(-312.87 -379.49)"/><path class="cls-7" d="M2746,2819.36a3.12,3.12,0,0,0,1.19-.24,3.17,3.17,0,0,0,1.74-4.13c-18.49-45.33-80.9-81.91-185.48-108.71-77.39-19.83-150.39-26.65-151.12-26.72a3.17,3.17,0,0,0-.58,6.31c2.89.26,288.91,27.56,331.32,131.51A3.17,3.17,0,0,0,2746,2819.36Z" transform="translate(-312.87 -379.49)"/></g></g><path class="cls-29" d="M2108.33,1582.69c84.84,25.64,193.39,125.48,250.15,180.21,130.92,126.23,376.7,552.14,233.5,704.23-97.42,103.48-268.64,60-344.12-44.33-55.52-76.74-21.9-146.58-10.22-284.73C2250.22,1989.42,2196.94,1729.57,2108.33,1582.69Z" transform="translate(-312.87 -379.49)"/><path class="cls-30" d="M2339.67,1983.69s118.54,197.9,111,220-132.37,16.63-132.37,16.63Z" transform="translate(-312.87 -379.49)"/><path class="cls-31" d="M2171.3,2280C2069.88,2624,1697.74,2967.76,1559,2939.42c-169.21-34.57-251.08-30.93-578.58,74.59-310.76,100.15-616.53-93.3-647-113.35-1.34-.87-2.18-1.24-2.4-1.42a12.48,12.48,0,0,0,3.5.5H335c15.28,0,74.27-12.62,181.69-124.23,1.6-1.67,3.2-3.39,4.8-5.1,117.28-99.78,260.69-273.91,431.46-636.26l0-.14c369.12-546.62,841-588.19,841-588.19,5.24-1.82,10.51-3.39,15.83-4.66,151.56-37.08,334.92,132.08,383.86,516.42C2202.77,2129.12,2193.53,2204.59,2171.3,2280Z" transform="translate(-312.87 -379.49)"/><path class="cls-32" d="M2171.3,2280C2069.88,2624,1697.74,2967.76,1559,2939.42c-169.21-34.57-251.08-30.93-578.58,74.59-310.76,100.15-616.53-93.3-647-113.35.51-.43,1-.83,1.57-1.27,15.28-.15,74.27-12.44,181.69-124,108.29-61.6,247.08-119.13,381.35-113.46,281,11.9,533.86,4.62,645.42-217.35s460.75-434,580.11-310.57C2146.92,2158.15,2162.06,2210.85,2171.3,2280Z" transform="translate(-312.87 -379.49)"/><path class="cls-33" d="M2415.47,3022.17c-3,198.53-941,59.47-939.45-13,2.27-109.58,25.55-258.87,55.21-420.9,0-.12,0-.23.08-.38,16.81-91.82,35.67-187.68,53.92-282.76,19.65-102.28,38.58-203.63,53.43-297.9,27-171.33,40.73-319.3,21.16-407.26,7.67-.16,17.53-2.57,28.15-6.09,25.92-8.61,56.53-23.69,71.6-27.88,91.11-25.47,173.33-29.78,259.48-18.07,31.52,4.31,47.35,11.57,70.36,20.41,37.37,14.36,61.44,35.67,90.42,55.32,58.46,69.49,79,63.67,124.59,159.3,68.65,144.08,18.1,308.76,10.88,486.2-6.76,167-2,457.41,61.25,654.8,10.47,32.69,22.56,62.84,36.46,89.44C2414.72,3016.61,2415.55,3017.29,2415.47,3022.17Z" transform="translate(-312.87 -379.49)"/><path class="cls-34" d="M1846,1349.27c1.24,60.43-18.6,147.53-26.41,201.72s103,56.48,139.16,31.35c33.24-23.08,8.22-85.66-23.86-118.51S1878.76,1382.89,1846,1349.27Z" transform="translate(-312.87 -379.49)"/><path class="cls-35" d="M2274.25,2124.39c-6.47,51.7-33.17,211.26-167.92,342-26.79,26-208.52,196.42-463.32,153.47-199.1-33.56-376.4-186.08-417.39-376.57-80-371.89,395.17-700,504.3-643.71,73.25,37.77,94.16,306.79-15.48,442.74-23.83,29.55-68.13,70.56-61.26,122,6.59,49.44,56.64,80.65,85,97.8,133.72,80.9,426.66-127.91,504.16-145.05C2247.91,2117,2252.12,2111.65,2274.25,2124.39Z" transform="translate(-312.87 -379.49)"/><path class="cls-36" d="M1945.73,1657.34c-79.59,9.68-63.54-17-211.35-46.11S1145.94,2234,982.19,2572.39c-155.3,321-601.83,327.35-647.5,327.35h-.21a9.46,9.46,0,0,1-3.57-.54c53.38-32.57,116.81-66.26,190.53-129,117.28-99.78,260.69-273.8,431.46-636.16l0-.1c278.11-590.07,781.29-590.65,827.36-597.82,10.12-1.56,19.73.31,29.48,5C1844.46,1557.61,1880.59,1608.36,1945.73,1657.34Z" transform="translate(-312.87 -379.49)"/><path class="cls-37" d="M1945.73,1657.34c-79.59,9.68-63.54-17-211.35-46.11S1145.94,2234,982.19,2572.39c-155.3,321-601.83,327.35-647.5,327.35h-.21a9.46,9.46,0,0,1-3.57-.54c53.38-32.57,116.81-66.26,190.53-129,117.28-99.78,260.69-273.8,431.46-636.16l0-.1c278.11-590.07,781.29-590.65,827.36-597.82,10.12-1.56,19.73.31,29.48,5C1844.46,1557.61,1880.59,1608.36,1945.73,1657.34Z" transform="translate(-312.87 -379.49)"/><path class="cls-38" d="M1983.48,1541.7s-53.37,85.91-52.15,112.59c65.5-18.8,177.09-67.31,168.6-90.36s-77-40.63-100.68-36.39S1983.48,1541.7,1983.48,1541.7Z" transform="translate(-312.87 -379.49)"/><path class="cls-39" d="M2012.62,1330.36c51.06-45.07,60.43-205,8.69-236.27-25.1-15.18-68.85,63.67-97.32,78.89-38.23,20.43-142,43.16-162.53,84.13-15.51,30.9,15.64,95,28.14,117.86,14.15,25.91,15.82,17,32.8,35.44,23.56,25.5,54.94,55.35,78.86,83.95,5.18-21.74,3.81-21.73,13-49.82,3.51-10.8,31.7-56.45,45.41-74.07C1968.32,1359.28,2006.37,1335.88,2012.62,1330.36Z" transform="translate(-312.87 -379.49)"/><path class="cls-40" d="M1848.91,1454.7c39.27,36.33,58.47,80.52,129.7,67.28,63.77-11.86,74.47-171.1,16.46-218.07-19.34-15.67-47.6-15.5-71.64-8.35-14.2,4.23-29,13.69-43.22,19.12-13.09,5-24.14-1.08-36.15,12.19-15,16.61-4.83,59,3.78,79.44-6.59-5.78-14-13.92-22.64-16.6-6.09-1.9-16.66-12-22.4-3.25-9.37,14.29,11,41.53,22.88,52.74C1831.14,1444.33,1842.23,1450.63,1848.91,1454.7Z" transform="translate(-312.87 -379.49)"/><path class="cls-41" d="M1839.46,1316.69c8.73,5-6.81,21.17-4.48,37.13,4.53,31,14.42,86.91,59.64,92.33,26.73,3.2,54.74-20.66,82.77-23.53,17.35-1.77,36.49-.83,53.75,3.82,11.17,33.36,11.63,85.86-17.3,106.53-31.16,22.26-51.58,10.68-84.67,1.14-22.14-6.39-46.57-25.5-60.49-47.22-14.51-22.62-25.15-46.39-39.54-70.2-7.94-13.14-17.56-29.6-26.92-43.4-2.54-3.74-6.42-9.74-8.26-14.7C1801.47,1351.37,1826.81,1309.38,1839.46,1316.69Z" transform="translate(-312.87 -379.49)"/><path class="cls-42" d="M1995.94,1449.27c-13.16,7.34-28.59,7.29-42.91,7.49-.7,0-3.78-1.21-2.6,1.39,4.47,9.79,23.84,13.17,33.67,10.34,7-2,18.79-10.53,17.53-18.17C2001.1,1447.1,1997.25,1450,1995.94,1449.27Z" transform="translate(-312.87 -379.49)"/><path class="cls-43" d="M1918.59,1654.48s-31.54-19.59-40,13.16-32.75,72.17-35.78,72.77c30.33,10.92,59.63,2.43,72.88-21.22s32.17-51.74,20-56.2S1938.61,1642.54,1918.59,1654.48Z" transform="translate(-312.87 -379.49)"/><path class="cls-44" d="M1962,1654.48s31.54-19.59,40,13.16,32.75,72.17,35.78,72.77c-30.32,10.92-59.63,2.43-72.87-21.22s-32.18-51.74-20-56.2S1942,1642.54,1962,1654.48Z" transform="translate(-312.87 -379.49)"/><path class="cls-45" d="M1934.76,1639.77s8.43-15.09,19-7.93,17.08,45.1.82,40.42S1918.51,1655.07,1934.76,1639.77Z" transform="translate(-312.87 -379.49)"/><path class="cls-46" d="M1916.74,1652.63s-.27-17.29,12.46-16.38,37.38,30.48,21,34.57S1910.34,1674,1916.74,1652.63Z" transform="translate(-312.87 -379.49)"/><path class="cls-47" d="M2415.47,3022.17c-3,198.53-941,59.47-939.45-13,2.27-109.58,25.55-258.87,55.21-420.9a5.76,5.76,0,0,1,.57-.19c10.8-3.63,174.46-58.65,174.46-73.27,0-15.11-75.57-111.77-75.57-111.77s-24.38-40.05-45.46-97.91c-25.66-70.32-46.44-166.9-12.55-249.69,0,0,58-133.87,58-98,0,11.87,2.26,29.4,8,49.77a278,278,0,0,0,37.9,81.58,255,255,0,0,0,48.59,53.47c44.25,36.5,139.4,47,205.79,115.81,44.17,45.8,75.61,117.4,70.77,239.72q-1,25.21-1.1,48.93c-1.58,272.25,80.79,398.84,222.56,398.84,60.39,0,111.17-14.4,153.38-21.62,10.47,32.69,22.56,62.84,36.46,89.44C2414.72,3016.61,2415.55,3017.29,2415.47,3022.17Z" transform="translate(-312.87 -379.49)"/><polygon class="cls-48" points="2019.08 2181.13 1234.44 2169.42 1443.09 2270.11 2021.09 2232.28 2019.08 2181.13"/><path class="cls-49" d="M1519.61,2569.76h0a34.93,34.93,0,0,0,23,32.82l250.72,98.29,1.14-68.14-247.16-83.82A21.69,21.69,0,0,0,1519.61,2569.76Z" transform="translate(-312.87 -379.49)"/><path class="cls-50" d="M1815.28,2154.61,1760,2658.19c-1.91,17.38,22.42,43.27,39.88,42.44l811.36-49.81a28.42,28.42,0,0,0,26.69-23.6l101.84-486.37c3-17.7-28.78-36-46.73-35.48l-850.26,23.91A28.44,28.44,0,0,0,1815.28,2154.61Z" transform="translate(-312.87 -379.49)"/><path class="cls-51" d="M1833.82,2169.29l-55.31,503.59a28.44,28.44,0,0,0,29.62,31.52l821.63-38.89a28.46,28.46,0,0,0,26.69-23.6l83.94-488.6a28.44,28.44,0,0,0-28.84-33.25L1861.3,2144A28.46,28.46,0,0,0,1833.82,2169.29Z" transform="translate(-312.87 -379.49)"/><path class="cls-52" d="M2316.28,2547.5c-71.74-30.4-46.42-88.39-131.14-160.64-111.76-95.32-225.68-54-265.56-127.86-12.41-23-18.35-58.82,3.29-116.77L1861.3,2144a28.46,28.46,0,0,0-27.48,25.33l-55.31,503.59a28.45,28.45,0,0,0,29.62,31.52l821.63-38.89a28.46,28.46,0,0,0,26.69-23.6l11.58-67.42a310.13,310.13,0,0,0-89.48-33.54C2458,2516.5,2398.87,2582.51,2316.28,2547.5Z" transform="translate(-312.87 -379.49)"/><path class="cls-53" d="M1573.36,2549.57c-4.69,0,44.31-55.19,66.31-55.93,99.56-3.37,103.58,36,115.9,59.29,11.62,22,2.49,23.4,2.49,23.4s-31.31,11.76-60.62,8.56S1611.54,2549.71,1573.36,2549.57Z" transform="translate(-312.87 -379.49)"/><path class="cls-54" d="M2691,2589.23a6.22,6.22,0,0,0-5.6-8.2c-16.86-.86-56-1.21-77.56,12-28,17.18-64.31,48.53-33.77,64.34l28.52,14.78a6.05,6.05,0,0,0,4.17.57c10.14-2.23,52.78-11.69,57.45-14C2668.46,2656.55,2684.73,2608.3,2691,2589.23Z" transform="translate(-312.87 -379.49)"/><path class="cls-55" d="M1170.59,2935c19.39,9.84,43.76.8,54.42-20.2s3.59-46-15.81-55.85c-1-.51-2-.94-3.06-1.35a246.07,246.07,0,0,0,8.15-35c1.11,0,2.22,0,3.36-.12,22.12-2,39.69-22.31,39.22-45.42s-18.77-40.25-40.9-38.27c-1.16.1-2.3.28-3.42.48a226.26,226.26,0,0,0-9.48-33.47c1-.59,2-1.21,3-1.9,18.93-13.26,25-39.44,13.52-58.47s-36.11-23.7-55-10.44c-1,.68-1.88,1.42-2.78,2.16a200.61,200.61,0,0,0-24.55-22.91c.62-1,1.23-2.06,1.78-3.15,10.67-21,24.6-43.94,5-53.48-45.21-22.08-64.62-3.18-75.28,17.82-.55,1.09-1,2.19-1.49,3.3a199.8,199.8,0,0,0-33-6.3c.06-1.17.12-2.34.09-3.52-.46-23.11,6.4-35.62-15.81-36.05-48.44-.94-64.78,20.08-64.32,43.19,0,1.21.13,2.39.25,3.56a225.37,225.37,0,0,0-32.61,12.11c-.51-1-1-2.06-1.63-3.05-11.46-19-36.1-23.71-55-10.44s-25,39.44-13.51,58.47c.58,1,1.23,1.88,1.88,2.78a247.06,247.06,0,0,0-23.49,27.26c-.94-.59-1.89-1.17-2.89-1.68-19.4-9.84-43.76-.8-54.43,20.2s-3.58,46,15.81,55.85c1,.51,2,.94,3.06,1.35a246,246,0,0,0-8.14,35.05c-1.11,0-2.23,0-3.36.12-22.13,2-39.69,22.31-39.23,45.42s18.78,40.24,40.91,38.27c1.15-.1,2.29-.28,3.42-.48a225.76,225.76,0,0,0,9.47,33.46c-1,.6-2,1.22-3,1.91-18.93,13.26-25,39.44-13.51,58.47s49.42,27.87,68.35,14.6c1-.68-11.43-5.58-10.53-6.32a199.88,199.88,0,0,0,24.55,22.91c-.62,1-1.24,2.06-1.79,3.15-10.66,21-3.58,46,15.81,55.85s43.76.81,54.43-20.19c.55-1.09,1-2.19,1.48-3.3a199.92,199.92,0,0,0,33,6.3c-.07,1.17-.12,2.33-.1,3.52.46,23.11,18.78,40.25,40.91,38.27s39.69-22.3,39.22-45.41c0-1.21-.12-2.39-.24-3.57a224.16,224.16,0,0,0,32.61-12.1c.5,1,1,2.06,1.62,3,11.47,19,36.11,23.7,55,10.44s25-39.44,13.52-58.47c-.59-1-1.23-1.88-1.88-2.78a247.06,247.06,0,0,0,23.49-27.26C1168.63,2933.87,1169.59,2934.45,1170.59,2935ZM928.82,2938c-70.42-35.75-96.12-126.54-57.41-202.79s127.18-109.08,197.6-73.32,96.12,126.54,57.41,202.79S999.23,2973.78,928.82,2938Z" transform="translate(-312.87 -379.49)"/><path class="cls-56" d="M1217.65,2822.39c22.12-2,39.69-22.31,39.22-45.42s-18.77-40.25-40.9-38.27c-1.16.1-2.3.28-3.42.48a225.05,225.05,0,0,0-9.48-33.47c1-.59,2-1.21,3-1.9,18.93-13.26,42.35-45.31,29-63.06-25.35-33.69-51.59-19.11-70.52-5.85-1,.68-1.88,1.42-2.78,2.16a200.61,200.61,0,0,0-24.55-22.91c.62-1,1.23-2.06,1.78-3.15a44,44,0,0,0,2.49-34.74q-27.43,48.27-54,97c56.17,41.17,74.06,122.29,38.94,191.45-29.75,58.61-88.9,91.52-146.66,87.39-2.57,6.68-5.1,13.4-7.86,20-7.49,18-16,35.54-24.51,53.11q8,1.52,16.13,2.37c-.07,1.17-.12,2.33-.1,3.52.46,23.11,14.5,42.74,54.6,40.62,22.18-1.18,26-24.65,25.53-47.76,0-1.21-.12-2.39-.24-3.57a224.16,224.16,0,0,0,32.61-12.1c.5,1,1,2.06,1.62,3,11.47,19,51.24,27.12,70.17,13.85s9.86-42.85-1.61-61.88c-.59-1-1.23-1.88-1.88-2.78a247.06,247.06,0,0,0,23.49-27.26,32.9,32.9,0,0,0,2.89,1.67c19.39,9.85,43.76.81,54.42-20.19s3.59-46-15.81-55.85c-1-.51-2-.94-3.06-1.35a246.07,246.07,0,0,0,8.15-35C1215.4,2822.51,1216.51,2822.49,1217.65,2822.39Z" transform="translate(-312.87 -379.49)"/><path class="cls-57" d="M1191.45,2937.33c19.39,9.84,43.76.8,54.42-20.2s3.59-46-15.81-55.85c-1-.51-2-.94-3.06-1.35a246.07,246.07,0,0,0,8.15-35c1.11,0,2.22,0,3.36-.12,22.12-2,39.68-22.31,39.22-45.42s-18.77-40.24-40.9-38.27c-1.16.1-2.29.28-3.42.49a225.58,225.58,0,0,0-9.48-33.47c1-.6,2-1.21,3-1.91,18.93-13.26,25-39.44,13.52-58.47s-36.11-23.7-55-10.43c-1,.68-1.88,1.41-2.78,2.16a199.91,199.91,0,0,0-24.55-22.92c.62-1,1.23-2.06,1.79-3.15,10.66-21,3.58-46-15.82-55.85s-43.76-.81-54.42,20.19c-.55,1.09-1,2.19-1.49,3.3a199.8,199.8,0,0,0-33-6.3c.06-1.16.12-2.33.1-3.52-.47-23.11-18.78-40.24-40.91-38.27s-39.69,22.31-39.23,45.41c0,1.21.13,2.39.25,3.57a225.32,225.32,0,0,0-32.61,12.1c-.51-1-1-2.06-1.63-3.05-11.46-19-36.1-23.7-55-10.44s-25,39.44-13.51,58.47c.58,1,1.23,1.89,1.88,2.78A247.06,247.06,0,0,0,851,2669c-.94-.59-1.89-1.16-2.89-1.67-19.4-9.85-43.76-.81-54.43,20.19s-3.58,46,15.81,55.86c1,.51,2,.93,3.06,1.34a246.35,246.35,0,0,0-8.14,35.05c-1.11,0-2.23,0-3.36.12-22.13,2-39.69,22.31-39.22,45.42s18.77,40.25,40.9,38.27c1.15-.1,2.29-.28,3.42-.48a226.23,226.23,0,0,0,9.47,33.47c-1,.59-2,1.21-3,1.9-18.93,13.26-25,39.44-13.51,58.47s36.1,23.7,55,10.44c1-.68,1.89-1.42,2.79-2.16a201.47,201.47,0,0,0,24.55,22.92c-.63,1-1.24,2.05-1.79,3.14-10.66,21-3.58,46,15.81,55.86s43.76.8,54.43-20.2c.55-1.09,1-2.19,1.48-3.3a199.92,199.92,0,0,0,33,6.3c-.07,1.17-.12,2.34-.1,3.52.47,23.11,18.78,40.25,40.91,38.27s39.69-22.3,39.22-45.41c0-1.21-.12-2.39-.24-3.56a226.51,226.51,0,0,0,32.61-12.1c.5,1,1,2.05,1.62,3,11.47,19,36.11,23.71,55,10.44s25-39.44,13.52-58.47c-.59-1-1.23-1.88-1.88-2.78a247.06,247.06,0,0,0,23.49-27.26C1189.49,2936.24,1190.45,2936.82,1191.45,2937.33Zm-241.77,3.06c-70.42-35.75-96.12-126.54-57.41-202.79s127.18-109.07,197.6-73.32,96.12,126.54,57.41,202.79S1020.1,2976.15,949.68,2940.39Z" transform="translate(-312.87 -379.49)"/></g></g></svg>