<svg xmlns="http://www.w3.org/2000/svg" xmlns:xlink="http://www.w3.org/1999/xlink" viewBox="0 0 162 216"><defs><style>.cls-1{fill:#fff;}.cls-2,.cls-48,.cls-49,.cls-50{isolation:isolate;}.cls-3{clip-path:url(#clip-path);}.cls-10,.cls-11,.cls-12,.cls-13,.cls-14,.cls-15,.cls-16,.cls-17,.cls-18,.cls-19,.cls-20,.cls-4,.cls-40,.cls-41,.cls-5,.cls-6,.cls-7,.cls-8,.cls-9{mix-blend-mode:multiply;}.cls-10,.cls-11,.cls-12,.cls-13,.cls-14,.cls-15,.cls-16,.cls-17,.cls-18,.cls-19,.cls-20,.cls-5,.cls-6,.cls-7,.cls-8,.cls-9{fill-rule:evenodd;}.cls-5{fill:url(#linear-gradient);}.cls-6{fill:url(#linear-gradient-2);}.cls-7{fill:url(#linear-gradient-3);}.cls-8{fill:url(#linear-gradient-4);}.cls-9{fill:url(#linear-gradient-5);}.cls-10{fill:url(#linear-gradient-6);}.cls-11{fill:url(#linear-gradient-7);}.cls-12{fill:url(#linear-gradient-8);}.cls-13{fill:url(#linear-gradient-9);}.cls-14{fill:url(#linear-gradient-10);}.cls-15{fill:url(#linear-gradient-11);}.cls-16{fill:url(#linear-gradient-12);}.cls-17{fill:url(#linear-gradient-13);}.cls-18{fill:url(#linear-gradient-14);}.cls-19{fill:url(#linear-gradient-15);}.cls-20{fill:url(#linear-gradient-16);}.cls-21{mix-blend-mode:color-burn;}.cls-22{fill:url(#radial-gradient);}.cls-23{fill:url(#radial-gradient-2);}.cls-24{fill:url(#radial-gradient-3);}.cls-25{fill:url(#radial-gradient-4);}.cls-26{fill:url(#radial-gradient-5);}.cls-27{fill:url(#radial-gradient-6);}.cls-28{fill:url(#radial-gradient-7);}.cls-29{fill:url(#radial-gradient-8);}.cls-30{fill:url(#radial-gradient-9);}.cls-31{fill:url(#radial-gradient-10);}.cls-32{fill:url(#radial-gradient-11);}.cls-33{fill:url(#radial-gradient-12);}.cls-34{fill:url(#radial-gradient-13);}.cls-35{fill:url(#radial-gradient-14);}.cls-36{fill:url(#radial-gradient-15);}.cls-37{fill:url(#radial-gradient-16);}.cls-38{fill:url(#radial-gradient-17);}.cls-39{fill:url(#radial-gradient-18);}.cls-40,.cls-41{opacity:0.5;}.cls-40{fill:url(#linear-gradient-17);}.cls-41{fill:url(#linear-gradient-18);}.cls-42{fill:url(#Безымянный_градиент_2);}.cls-43{fill:url(#Безымянный_градиент_3);}.cls-44{fill:url(#Безымянный_градиент_3-2);}.cls-45{fill:url(#Безымянный_градиент_4);}.cls-46{fill:url(#Безымянный_градиент_5);}.cls-47{fill:#bdd3dd;}.cls-48,.cls-49,.cls-50{font-size:3.62px;fill:#3f3e40;}.cls-48,.cls-49{font-family:Montserrat-ExtraBold, Montserrat;font-weight:800;}.cls-49{letter-spacing:0.01em;}.cls-50{font-family:Montserrat-Medium, Montserrat;font-weight:500;}.cls-51{fill:#5e5e5e;}</style><clipPath id="clip-path"><rect class="cls-1" width="162" height="216"/></clipPath><linearGradient id="linear-gradient" x1="-2146.52" y1="-348.79" x2="-2023.58" y2="-348.79" gradientTransform="translate(-1347.32 1824.84) rotate(119.89)" gradientUnits="userSpaceOnUse"><stop offset="0" stop-color="#fff"/><stop offset="0.89" stop-color="#55a2f4"/></linearGradient><linearGradient id="linear-gradient-2" x1="-2132.66" y1="-436.32" x2="-1963.21" y2="-436.32" xlink:href="#linear-gradient"/><linearGradient id="linear-gradient-3" x1="-2140.02" y1="-485.9" x2="-1975.62" y2="-485.9" xlink:href="#linear-gradient"/><linearGradient id="linear-gradient-4" x1="-2180.89" y1="-525.03" x2="-1700.39" y2="-525.03" xlink:href="#linear-gradient"/><linearGradient id="linear-gradient-5" x1="-2205.58" y1="-520.81" x2="-2024.6" y2="-520.81" xlink:href="#linear-gradient"/><linearGradient id="linear-gradient-6" x1="-2181.6" y1="-382.82" x2="-2146.56" y2="-382.82" xlink:href="#linear-gradient"/><linearGradient id="linear-gradient-7" x1="-2205.54" y1="-410.06" x2="-2113.27" y2="-410.06" xlink:href="#linear-gradient"/><linearGradient id="linear-gradient-8" x1="-2218.35" y1="-372.98" x2="-2067.86" y2="-372.98" xlink:href="#linear-gradient"/><linearGradient id="linear-gradient-9" x1="-2207.64" y1="-376.79" x2="-2057.4" y2="-376.79" xlink:href="#linear-gradient"/><linearGradient id="linear-gradient-10" x1="-2148.15" y1="-448.95" x2="-2005.78" y2="-448.95" xlink:href="#linear-gradient"/><linearGradient id="linear-gradient-11" x1="-2155.87" y1="-433.4" x2="-2086.57" y2="-433.4" xlink:href="#linear-gradient"/><linearGradient id="linear-gradient-12" x1="-2201.91" y1="-510.54" x2="-2091.09" y2="-510.54" xlink:href="#linear-gradient"/><linearGradient id="linear-gradient-13" x1="-2162.64" y1="-437.36" x2="-2112.1" y2="-437.36" xlink:href="#linear-gradient"/><linearGradient id="linear-gradient-14" x1="-2206.56" y1="-469.73" x2="-2092.18" y2="-469.73" xlink:href="#linear-gradient"/><linearGradient id="linear-gradient-15" x1="-2208.77" y1="-463.72" x2="-2184.55" y2="-463.72" xlink:href="#linear-gradient"/><linearGradient id="linear-gradient-16" x1="-2228.8" y1="-466.15" x2="-2203.73" y2="-466.15" xlink:href="#linear-gradient"/><radialGradient id="radial-gradient" cx="-1695.72" cy="-1203.46" r="86.33" gradientTransform="matrix(-0.25, -1.21, 1.73, -0.36, 1768.01, -2305.94)" gradientUnits="userSpaceOnUse"><stop offset="0" stop-color="#fff"/><stop offset="0.66" stop-color="#b0b0b0"/><stop offset="1" stop-color="#8c8c8c"/></radialGradient><radialGradient id="radial-gradient-2" cx="-1640.58" cy="-1244.82" r="61.98" xlink:href="#radial-gradient"/><radialGradient id="radial-gradient-3" cx="-1717.1" cy="-1241.49" r="69.18" xlink:href="#radial-gradient"/><radialGradient id="radial-gradient-4" cx="-1665.06" cy="-1250.04" r="67.73" xlink:href="#radial-gradient"/><radialGradient id="radial-gradient-5" cx="-1716.32" cy="-1227.63" r="76.38" xlink:href="#radial-gradient"/><radialGradient id="radial-gradient-6" cx="-1647.23" cy="-1199.66" r="84.72" xlink:href="#radial-gradient"/><radialGradient id="radial-gradient-7" cx="-1691.91" cy="-1250.76" r="60.28" xlink:href="#radial-gradient"/><radialGradient id="radial-gradient-8" cx="-1725.9" cy="-1270.72" r="53.5" xlink:href="#radial-gradient"/><radialGradient id="radial-gradient-9" cx="-1698.09" cy="-1241.01" r="155.3" xlink:href="#radial-gradient"/><radialGradient id="radial-gradient-10" cx="-1677.97" cy="-1283.39" r="92.25" xlink:href="#radial-gradient"/><radialGradient id="radial-gradient-11" cx="-1672.19" cy="-1220.81" r="86.05" xlink:href="#radial-gradient"/><radialGradient id="radial-gradient-12" cx="-1741.11" cy="-1248.14" r="91.5" xlink:href="#radial-gradient"/><radialGradient id="radial-gradient-13" cx="-1693.1" cy="-1197.76" r="71.51" xlink:href="#radial-gradient"/><radialGradient id="radial-gradient-14" cx="-1744.43" cy="-1222.47" r="116.22" xlink:href="#radial-gradient"/><radialGradient id="radial-gradient-15" cx="-1653.57" cy="-1216.85" r="71.49" xlink:href="#radial-gradient"/><radialGradient id="radial-gradient-16" cx="-1720.67" cy="-1179.46" r="87.71" xlink:href="#radial-gradient"/><radialGradient id="radial-gradient-17" cx="-1688.11" cy="-1192.77" r="94.16" xlink:href="#radial-gradient"/><radialGradient id="radial-gradient-18" cx="-1689.54" cy="-1160.92" r="103.66" xlink:href="#radial-gradient"/><linearGradient id="linear-gradient-17" y1="108" x2="1.33" y2="108" gradientUnits="userSpaceOnUse"><stop offset="0" stop-color="#eee"/><stop offset="0.21" stop-color="#d4d4d4"/><stop offset="0.47" stop-color="#d4d4d4"/><stop offset="0.64" stop-color="#e8e8e8"/><stop offset="0.85" stop-color="#f9f9f9"/><stop offset="1" stop-color="#fff"/></linearGradient><linearGradient id="linear-gradient-18" x1="8.46" y1="108" x2="10.71" y2="108" gradientUnits="userSpaceOnUse"><stop offset="0" stop-color="#fff"/><stop offset="0.48" stop-color="#d4d4d4"/><stop offset="0.7" stop-color="#d4d4d4"/><stop offset="0.8" stop-color="#e8e8e8"/><stop offset="0.91" stop-color="#f9f9f9"/><stop offset="1" stop-color="#fff"/></linearGradient><linearGradient id="Безымянный_градиент_2" x1="96.44" y1="15.52" x2="96.44" y2="10.77" gradientTransform="matrix(1, 0, 0, -1, -74.99, 30.83)" gradientUnits="userSpaceOnUse"><stop offset="0" stop-color="#ff9800"/><stop offset="1" stop-color="#be3d00"/></linearGradient><linearGradient id="Безымянный_градиент_3" x1="96.29" y1="12.39" x2="96.29" y2="14.09" gradientTransform="matrix(1, 0, 0, -1, -74.99, 30.83)" gradientUnits="userSpaceOnUse"><stop offset="0" stop-color="#dae5e9"/><stop offset="1" stop-color="#9eb7c7"/></linearGradient><linearGradient id="Безымянный_градиент_3-2" x1="96.01" y1="17.16" x2="96.01" y2="18.89" xlink:href="#Безымянный_градиент_3"/><linearGradient id="Безымянный_градиент_4" x1="96.15" y1="19.76" x2="96.15" y2="16.26" gradientTransform="matrix(1, 0, 0, -1, -74.99, 30.83)" gradientUnits="userSpaceOnUse"><stop offset="0" stop-color="#80c1ce"/><stop offset="0.5" stop-color="#24a4b5"/><stop offset="1" stop-color="#007b94"/></linearGradient><linearGradient id="Безымянный_градиент_5" x1="95.43" y1="20.74" x2="99.77" y2="8.28" gradientTransform="matrix(1, 0, 0, -1, -74.99, 30.83)" gradientUnits="userSpaceOnUse"><stop offset="0" stop-color="#47626b"/><stop offset="0.24" stop-color="#394f56"/><stop offset="0.73" stop-color="#151d20"/><stop offset="1"/></linearGradient></defs><g class="cls-2"><g id="Layer_1" data-name="Layer 1"><rect class="cls-1" width="162" height="216"/><g class="cls-3"><g class="cls-4"><path class="cls-5" d="M-13.31,171.93c5.13-3.5,10-6.73,14.71-9.73a189.84,189.84,0,0,1,19.24-11.08,70.26,70.26,0,0,1,17.12-6,23.06,23.06,0,0,0-10.16,7.82,21.63,21.63,0,0,0-3.76,14.14c-2.42,3.36-4.8,7.06-7.21,11.07-2.61,4.34-5.28,9-8.06,14.14-3,5.55-6.22,11.56-9.56,18.13-3.67,7.21-7.57,15.12-11.65,23.91a93.89,93.89,0,0,1-5.6-19.48,82.14,82.14,0,0,1-1.12-16.93A70.4,70.4,0,0,1-13.31,171.93Z"/><path class="cls-6" d="M-19.17,207.37c5.19-6.75,10.09-12.92,14.73-18.59,4.23-5.16,8.25-9.93,12.11-14.31,3.56-4,7-7.72,10.38-11.05a92.79,92.79,0,0,1,9.45-8.21,20.43,20.43,0,0,0-1.92,11A31.17,31.17,0,0,0,30.81,180a57.65,57.65,0,0,0,14.62,14.7A95.62,95.62,0,0,0,69.56,207c1.91,6.11,4,12.68,6.55,19.73,2.73,7.67,5.93,15.91,9.81,24.7A301.19,301.19,0,0,0,101.49,282a266.7,266.7,0,0,0,25.18,36,159.69,159.69,0,0,1-88.92-25.42,146.16,146.16,0,0,1-21.5-16.88A131,131,0,0,1,.33,257.55a113.1,113.1,0,0,1-10.68-18A93.18,93.18,0,0,1-19.17,207.37Z"/><path class="cls-7" d="M76.53,310.74c-3.73-9.23-6.8-18-9.39-26.33-2.42-7.81-4.4-15.22-6-22.22-2.79-11.79-4.63-22.57-6.08-32.42-1.29-8.85-2.26-17-3.09-24.48-.75-6.75-1.39-13-1.89-18.79-.45-5.19-.78-10-.83-14.42a67.55,67.55,0,0,0,19.88,9.45A112,112,0,0,0,96,186.09c4.68,6.66,9.82,13.87,15.7,21.58a317.56,317.56,0,0,0,22.62,26.8,196.43,196.43,0,0,0,33.83,28.85c13.8,9.15,29.25,16.43,45.63,18.46a105.45,105.45,0,0,1-25.07,19.84,122.15,122.15,0,0,1-33.6,12.95C129.83,320.32,102.1,318.76,76.53,310.74Z"/><path class="cls-8" d="M82.57,312.51c-4.38-9.58-8-18.68-10.92-27.23a142.67,142.67,0,0,0,57.46,6.66c18.67-1.76,36.09-7.48,50.39-16.24a93.09,93.09,0,0,0,30.93-30.55,86.17,86.17,0,0,0,11.82-33.64c4.06,10.65,8.09,22.53,11.91,35.86a95.49,95.49,0,0,1-17.75,31.43,106.23,106.23,0,0,1-33.56,25.95,130.83,130.83,0,0,1-47.54,12.83A155.63,155.63,0,0,1,82.57,312.51Z"/><path class="cls-9" d="M205.49,289.8c-13.12-3.07-25.3-9-36.32-16.16a175.67,175.67,0,0,1-28.1-22.93,243.42,243.42,0,0,1-20.13-22.78c-5.45-6.93-10.22-13.64-14.58-20,20.4.59,39.05-3.58,53.51-10.65a76.71,76.71,0,0,0,17.25-11.38,59.14,59.14,0,0,0,10.69-12.45c6.11,1.58,12.15,1.82,17.09-.39,4.72,8.93,9.48,19,14.13,30.32q3.78,9.23,7.47,19.77c2.61,7.49,5.17,15.54,7.66,24.21a95.81,95.81,0,0,1-10.67,22A99.78,99.78,0,0,1,205.49,289.8Z"/><path class="cls-10" d="M68,150.79a36.87,36.87,0,0,0-16.84-8,54.82,54.82,0,0,0-17.8-.29,37.78,37.78,0,0,1,25.95,1.57A35.8,35.8,0,0,1,73.3,156a32.44,32.44,0,0,1,3.7,7.21,33.21,33.21,0,0,0-2.08-4.13A32.69,32.69,0,0,0,68,150.79Z"/><path class="cls-11" d="M78.9,171.67a34,34,0,0,0-1.9-8.49,34.52,34.52,0,0,1,2.2,7.76c0,.3.1.6.14.89Z"/><path class="cls-12" d="M-8.06,162.52A68.27,68.27,0,0,1,4,151a63.34,63.34,0,0,1,12-7.05c8.5-1.88,17.14-3.3,25.62-3,8.08.28,16.77,2.33,23.86,7.35a33.8,33.8,0,0,1,9.73,10.64,34.69,34.69,0,0,1,4.29,12.94,14.13,14.13,0,0,0-1.43-.48,30.94,30.94,0,0,0-6.14-12.52,28.45,28.45,0,0,0-10.75-9.5,27.44,27.44,0,0,0-11.75-2.84c-7.46-.12-15.21,3-22,7.57a90.82,90.82,0,0,0-9.55,7.57c-3.44,3.06-6.9,6.47-10.48,10.17-3.88,4-7.91,8.38-12.14,13.1-4.62,5.15-9.48,10.74-14.63,16.83A72.56,72.56,0,0,1-16,179,65.13,65.13,0,0,1-8.06,162.52Z"/><path class="cls-13" d="M24.75,151.89c8-4.34,16.92-7.19,25.37-6.48a30.79,30.79,0,0,1,13,4.12,30.47,30.47,0,0,1,11.23,11.84,33,33,0,0,1,3.38,9.94,11.86,11.86,0,0,0-3.43-.43c-.29-1-.62-1.88-1-2.77a26.87,26.87,0,0,0-8.26-13.91,20.13,20.13,0,0,0-10.91-4.85,18.49,18.49,0,0,0-10,1.92,27.67,27.67,0,0,0-8.33,6.89,62.34,62.34,0,0,0-6.89,10.4c-2.38,4.35-4.63,9.22-6.93,14.55C19.4,189,16.8,195.52,14.1,202.63c-3,7.93-6.18,16.65-9.35,26.31a82.57,82.57,0,0,1-7.81-17.33,68.82,68.82,0,0,1-3-15.61,57,57,0,0,1,3.52-24.61c5-4.08,9.81-7.88,14.52-11.28A118.78,118.78,0,0,1,24.75,151.89Z"/><path class="cls-14" d="M-17.87,185.94q6.77-6.09,12.92-11.36c3.83-3.29,7.51-6.36,11.09-9.22A141.49,141.49,0,0,1,25,152.14a51.88,51.88,0,0,1,17.27-6.3,16.46,16.46,0,0,0-9.52,8.42c-1.91,4.29-1.5,10.1,1.34,15.49a35.87,35.87,0,0,0,6.42,8.48,57.76,57.76,0,0,0,10.7,8.28,85.67,85.67,0,0,0,14.71,7.1,113.28,113.28,0,0,0,17.75,5c3.25,6.6,6.8,13.65,10.86,21.18,4.46,8.27,9.51,17.11,15.59,26.38a251.19,251.19,0,0,0,24.1,31.38,187.14,187.14,0,0,0,37.42,32.08c-26.07,9.81-56.88,11-85.88,3.73a162.24,162.24,0,0,1-40.19-16,148.53,148.53,0,0,1-30.91-23.15A126.08,126.08,0,0,1-5.45,248.74,104.45,104.45,0,0,1-16,224.54a87,87,0,0,1-3.36-21.12A74.62,74.62,0,0,1-17.87,185.94Z"/><path class="cls-15" d="M80.71,159A74.8,74.8,0,0,1,64.1,157.2c-3.78-.92-6.8-2.09-8.54-3.61-1.1-1-.89-2.46.23-2.74,1.82-.45,4.46.16,7.3,1.58a20.21,20.21,0,0,0-14-3.29,23.66,23.66,0,0,0-11.94,6,55.65,55.65,0,0,0-9.79,12.39,199.77,199.77,0,0,0-9.94,19A62.32,62.32,0,0,0,32.32,208a101.27,101.27,0,0,0,29.61,19.41,131.92,131.92,0,0,0,40.59,10.44A127.35,127.35,0,0,0,144,235.09a265.7,265.7,0,0,1-22.7-24.49c-6-7.31-11.43-14.28-16.47-20.86-4.72-6.17-9.14-12-13.45-17.43C87.54,167.51,84,163.13,80.71,159Z"/><path class="cls-16" d="M208,179.08c3.56,7.1,7.13,14.86,10.64,23.37,3.82,9.23,7.59,19.45,11.23,30.79-14.31,7.88-32.56,3.92-48.43-3.54A134,134,0,0,1,160,216.76a213,213,0,0,1-17.61-14.41c-5.16-4.66-9.94-9.31-14.49-13.82-4.29-4.28-8.38-8.43-12.32-12.42a120.66,120.66,0,0,0,40.86-13c8.28,5.54,17,10.73,26.08,14.18S200.74,182.31,208,179.08Z"/><path class="cls-17" d="M101.57,163.2a118.18,118.18,0,0,1-24.29.33,76.51,76.51,0,0,1-10.9-1.8A45,45,0,0,1,58.16,159c.16,4.87,1.72,10.71,3.66,17.39,1.13,3.9,2.4,8,3.74,12.32,1.48,4.73,3,9.67,4.73,14.85A126.52,126.52,0,0,0,108,210a122.71,122.71,0,0,0,36.3-4.56c-8.94-7.94-16.64-15.92-23.93-23.39C113.75,175.27,107.57,169,101.57,163.2Z"/><path class="cls-18" d="M171.53,165c11.41,5.92,23.27,10.07,32.5,6.48,3.25,6.06,6.51,12.62,9.74,19.75A72.24,72.24,0,0,1,197,230.92a84.17,84.17,0,0,1-20.89,17.72,104.85,104.85,0,0,1-29.79,12.1,216.73,216.73,0,0,1-20.8-22.28c-5.67-6.93-10.61-13.71-15.12-20.21-4.19-6.05-8-11.85-11.54-17.38-3.3-5.13-6.39-10-9.32-14.66q-4.2-6.66-8.08-12.69c-2.33-3.62-4.52-7-6.51-10.25a87,87,0,0,1-4.61-8.12c-.91-1.92-1.51-3.58-1.32-4.61,3.54-.7,7.68-1.44,12.24-2.42,5.06-1.1,10.29-2.4,15.5-3.88,10.52-3,20.11-6.46,28.28-9.53,7.44,4.78,14.77,9.91,22.22,15C155.09,155.18,163.08,160.58,171.53,165Z"/><path class="cls-19" d="M133.3,130.1c-6,2.07-12.84,4.79-20.72,7.59,9.61,6.12,19,13,28.68,20.21,10.1,7.47,20.59,15.23,32.32,21.25a55.49,55.49,0,0,0,15.16-19.05c-9-1.41-18.33-6.22-27.66-11.87S142.63,136.12,133.3,130.1Z"/><path class="cls-20" d="M162.57,123.12a74.62,74.62,0,0,0,15.25,7.6c3.07,4,6.19,8.29,9.33,12.89-5.09,0-11.06-2.14-17.41-5.31-9.74-4.86-19.64-11.72-30-18.55C147.61,119,155.13,120.45,162.57,123.12Z"/></g><g class="cls-21"><polygon id="triangle36" class="cls-22" points="141.26 163.07 123.25 125.89 75.36 169.42 141.26 163.07"/><polygon id="triangle36-2" data-name="triangle36" class="cls-23" points="75.36 169.42 123.25 125.89 60.44 149.2 75.36 169.42"/><polygon id="triangle36-3" data-name="triangle36" class="cls-24" points="51.85 210.42 75.36 169.42 36.05 178.7 51.85 210.42"/><polygon id="triangle36-4" data-name="triangle36" class="cls-25" points="75.36 169.42 60.44 149.2 36.05 178.7 75.36 169.42"/><polygon id="triangle36-5" data-name="triangle36" class="cls-26" points="-3.92 177.51 60.44 149.2 36.05 178.7 -3.92 177.51"/><polygon class="cls-27" points="176.33 104.18 123.25 125.89 141.26 163.07 176.87 106.76 176.33 104.18"/><polygon id="triangle36-6" data-name="triangle36" class="cls-28" points="36.05 178.7 -3.92 177.51 -26.59 222.57 36.05 178.7"/><polygon id="triangle36-7" data-name="triangle36" class="cls-29" points="75.86 256 51.85 210.42 35.16 225.58 75.86 256"/><polygon id="triangle36-8" data-name="triangle36" class="cls-30" points="51.85 210.42 36.05 178.7 35.16 225.58 51.85 210.42"/><polygon id="triangle36-9" data-name="triangle36" class="cls-31" points="-26.59 222.57 36.05 178.7 35.16 225.58 -26.59 222.57"/><polygon id="triangle36-10" data-name="triangle36" class="cls-32" points="125.68 213.89 141.26 163.07 107.41 216.6 125.68 213.89"/><polygon id="triangle36-11" data-name="triangle36" class="cls-33" points="75.86 256 51.85 210.42 107.41 216.6 75.86 256"/><polygon id="triangle36-12" data-name="triangle36" class="cls-34" points="51.85 210.42 75.36 169.42 107.41 216.6 51.85 210.42"/><polygon id="triangle36-13" data-name="triangle36" class="cls-35" points="141.26 163.07 75.36 169.42 107.41 216.6 141.26 163.07"/><polygon id="triangle36-14" data-name="triangle36" class="cls-36" points="-3.92 177.51 60.44 149.2 3.41 118.25 -3.92 177.51"/><polygon class="cls-37" points="192.43 181.19 177.91 170.26 125.68 213.89 194.79 192.47 192.43 181.19"/><polygon id="triangle36-15" data-name="triangle36" class="cls-38" points="125.68 213.89 141.26 163.07 177.91 170.26 125.68 213.89"/><polygon class="cls-39" points="176.87 106.76 141.26 163.07 177.91 170.26 178.9 116.49 176.87 106.76"/></g></g><rect class="cls-40" width="1.33" height="216"/><rect class="cls-41" x="8.46" width="2.25" height="216"/><g id="Слой_1" data-name="Слой 1"><path class="cls-42" d="M17.43,18.68h6c1.13,0,1.73-.38,1.73-1.18s-.6-1.18-1.73-1.18H17.15v-.57h6.3c2.07,0,2.29,1.23,2.29,1.75s-.22,1.76-2.29,1.76h-6.3v-.58Z"/><path class="cls-43" d="M23.44,16.32c1.13,0,1.73.39,1.73,1.18s-.6,1.18-1.73,1.18h-6V16.32Z"/><path class="cls-44" d="M23,11.81c1.09,0,1.66.38,1.66,1.11S24,14.05,23,14.05H17.43V11.81Z"/><path class="cls-45" d="M17.43,14.05H23c1.09,0,1.66-.38,1.66-1.13S24,11.81,23,11.81h-5.8v-.57H23c2,0,2.23,1.17,2.23,1.68S25,14.63,23,14.63h-5.8v-.58Z"/><path class="cls-46" d="M26.37,15a2.93,2.93,0,0,1,2.12,2.87c0,2-1.66,3.19-4.78,3.19H17.43v-1.8h6c2.08,0,2.3-1.23,2.3-1.76s-.22-1.75-2.3-1.75h-6V14.62H23c2,0,2.23-1.19,2.23-1.7S25,11.23,23,11.23H17.43V9.44h5.95c3.06,0,4.55,1.24,4.55,3A2.76,2.76,0,0,1,26.37,15Z"/><rect class="cls-47" x="17.44" y="12.41" width="6.4" height="0.26"/><rect class="cls-47" x="17.44" y="13.18" width="6.4" height="0.26"/><rect class="cls-47" x="17.44" y="16.99" width="6.4" height="0.26"/><rect class="cls-47" x="17.44" y="17.76" width="6.4" height="0.26"/><g class="cls-2"><text class="cls-48" transform="translate(30.59 14.68)">BE</text><text class="cls-49" transform="translate(35.8 14.68)">T</text><text class="cls-48" transform="translate(38.14 14.68)">TER </text><text class="cls-50" transform="translate(30.58 18.29)">SCHOOL</text></g></g><path d="M18.2,48.85h1.2v8.52H18.2Zm.75,0h4.73V50H19Zm4.09,0h1.2v8.52H23Z"/><path d="M26.5,57a2.06,2.06,0,0,1-.05-2.77A2.27,2.27,0,0,1,28,53.77h1.73l.08,1H28a1,1,0,0,0-.71.21.82.82,0,0,0-.23.63.81.81,0,0,0,.31.69,1.61,1.61,0,0,0,.94.22,2.67,2.67,0,0,0,1-.15.48.48,0,0,0,.34-.45l.12.85a1.53,1.53,0,0,1-.39.41,1.76,1.76,0,0,1-.54.23,2.4,2.4,0,0,1-.68.08A2.57,2.57,0,0,1,26.5,57Zm3.17-3.48a1.3,1.3,0,0,0-.32-.93,1.22,1.22,0,0,0-.91-.33,2.45,2.45,0,0,0-.71.11,2.4,2.4,0,0,0-.62.31l-.87-.6a2.27,2.27,0,0,1,.91-.64,3.18,3.18,0,0,1,1.26-.23,2.86,2.86,0,0,1,1.29.26,1.88,1.88,0,0,1,.82.78,2.42,2.42,0,0,1,.28,1.22v3.91H29.67Z"/><path d="M32.62,51.28h1.19v6.09H32.62Zm.58,2.47h2.2v1.14H33.2Zm1.21.12,1.65-2.59H37.5L35,54.92Zm.05.93.93-.62,2.47,3.19h-1.6Z"/><path d="M39.67,57.14a2,2,0,0,1-.91-.93,3.2,3.2,0,0,1-.32-1.48V54a3.62,3.62,0,0,1,.3-1.54,2.24,2.24,0,0,1,.88-1A2.71,2.71,0,0,1,41,51.2a2.15,2.15,0,0,1,1.3.38,2.36,2.36,0,0,1,.83,1.1,4.68,4.68,0,0,1,.28,1.73v.4h-4.1v-1h3a2,2,0,0,0-.38-1.15,1.08,1.08,0,0,0-.89-.42,1.29,1.29,0,0,0-1,.45A1.91,1.91,0,0,0,39.58,54v.77a1.56,1.56,0,0,0,.4,1.16,1.5,1.5,0,0,0,1.13.41,1.86,1.86,0,0,0,.72-.15,2.06,2.06,0,0,0,.64-.41l.78.79a3.56,3.56,0,0,1-1,.67,3.2,3.2,0,0,1-2.57-.08Z"/><path d="M44.29,51.28H49v1.08H44.29Zm1.76.64h1.2v5.45h-1.2Z"/><path d="M50.42,48.85h1.19v3H50.42Zm1.82,0h1.2v3h-1.2Z"/><path d="M55.25,48.85h1.19v8.52H55.25ZM56,56.26h2.3a2.08,2.08,0,0,0,1.33-.35,1.17,1.17,0,0,0,.41-1v0a1.69,1.69,0,0,0-.14-.74,1,1,0,0,0-.48-.48,1.78,1.78,0,0,0-.82-.17H56V52.46h2.6a1.48,1.48,0,0,0,1-.31,1.22,1.22,0,0,0,.33-.92,1.18,1.18,0,0,0-.37-1A1.73,1.73,0,0,0,58.39,50H56v-1.1h2.65a3,3,0,0,1,1.38.28,1.89,1.89,0,0,1,.84.79,2.65,2.65,0,0,1,.27,1.23,2.09,2.09,0,0,1-.17.83,1.71,1.71,0,0,1-.52.65,1.82,1.82,0,0,1-.86.37A1.88,1.88,0,0,1,61,54.09a2.12,2.12,0,0,1,.2.94v0a2.39,2.39,0,0,1-.3,1.21,2.05,2.05,0,0,1-.88.82,2.89,2.89,0,0,1-1.32.29H56Z"/><path d="M63.92,57.14a2,2,0,0,1-.9-.9,3,3,0,0,1-.31-1.43v-1A2.94,2.94,0,0,1,63,52.4a2.06,2.06,0,0,1,.9-.9,3.07,3.07,0,0,1,1.42-.3,3.24,3.24,0,0,1,.89.11,2.84,2.84,0,0,1,.75.33,2,2,0,0,1,.56.53l-.86.77a1.76,1.76,0,0,0-1.33-.61,1.44,1.44,0,0,0-1.07.39,1.5,1.5,0,0,0-.38,1.09v1a1.54,1.54,0,0,0,.38,1.11,1.39,1.39,0,0,0,1.07.4,1.66,1.66,0,0,0,.73-.17,2,2,0,0,0,.6-.48l.86.83A2.33,2.33,0,0,1,67,57a2.72,2.72,0,0,1-.76.32,3.12,3.12,0,0,1-.88.11A3,3,0,0,1,63.92,57.14Z"/><path d="M69.91,57.14a2.1,2.1,0,0,1-.91-.93,3.2,3.2,0,0,1-.32-1.48V54A3.62,3.62,0,0,1,69,52.5a2.24,2.24,0,0,1,.88-1,2.71,2.71,0,0,1,1.38-.33,2.15,2.15,0,0,1,1.3.38,2.36,2.36,0,0,1,.83,1.1,4.68,4.68,0,0,1,.28,1.73v.4h-4.1v-1h3a2,2,0,0,0-.38-1.15,1.08,1.08,0,0,0-.89-.42,1.29,1.29,0,0,0-1,.45A1.91,1.91,0,0,0,69.82,54v.77a1.56,1.56,0,0,0,.4,1.16,1.5,1.5,0,0,0,1.13.41,1.86,1.86,0,0,0,.72-.15,2.06,2.06,0,0,0,.64-.41l.78.79a3.56,3.56,0,0,1-1,.67,3.2,3.2,0,0,1-2.57-.08Z"/><path d="M78.51,51.28H79.7v6.09H78.51Zm.71,5h2.25a.74.74,0,0,0,.55-.2.76.76,0,0,0,.19-.56v0a.82.82,0,0,0-.19-.59.71.71,0,0,0-.55-.21H79.22V53.63h2.25a.68.68,0,0,0,.47-.15A.58.58,0,0,0,82.1,53a.72.72,0,0,0-.16-.5.6.6,0,0,0-.46-.18H79.22V51.28h2.3a2,2,0,0,1,1.32.4,1.38,1.38,0,0,1,.47,1.12,1.26,1.26,0,0,1-.35.91,1.61,1.61,0,0,1-1,.46,1.79,1.79,0,0,1,1.05.56,1.53,1.53,0,0,1,.38,1.06v0a1.41,1.41,0,0,1-.5,1.15,2.22,2.22,0,0,1-1.42.41H79.22Z"/><path d="M85,51.28h1.2v6.09H85Zm.58,2.47h2.2v1.14h-2.2Zm1.21.12,1.65-2.59h1.44l-2.55,3.64Zm0,.93.93-.62,2.47,3.19h-1.6Z"/><path d="M90.77,56.28a.82.82,0,0,0,.73-.43,2.32,2.32,0,0,0,.26-1.2V51.28H93v3.53a3.71,3.71,0,0,1-.24,1.41,1.87,1.87,0,0,1-.71.89,1.94,1.94,0,0,1-1.12.31h-.11Zm1.73-5h3v1.14h-3Zm2.35,0h1.2v6.09h-1.2Z"/><path d="M97.92,51.28h1.2v6.09h-1.2Zm.7,2.53h2.61v1H98.62Zm3.06,3.33a2,2,0,0,1-.86-.9,3.17,3.17,0,0,1-.3-1.43v-1a3.06,3.06,0,0,1,.3-1.41,2.08,2.08,0,0,1,.86-.9,3.19,3.19,0,0,1,2.7,0,2.08,2.08,0,0,1,.86.9,3.06,3.06,0,0,1,.3,1.41v1a3.07,3.07,0,0,1-.3,1.42,2,2,0,0,1-.86.9,3.09,3.09,0,0,1-2.7,0ZM104,55.92a1.59,1.59,0,0,0,.34-1.1v-1a1.58,1.58,0,0,0-.34-1.09,1.4,1.4,0,0,0-1.94,0,1.58,1.58,0,0,0-.34,1.09v1a1.59,1.59,0,0,0,.34,1.1,1.38,1.38,0,0,0,1.94,0Z"/><path d="M108.2,55.18a1.86,1.86,0,0,1-.76-.83,3,3,0,0,1-.26-1.3V51.28h1.19v1.81a1.24,1.24,0,0,0,.29.88,1,1,0,0,0,.8.31,1.57,1.57,0,0,0,1.08-.34,1.21,1.21,0,0,0,.38-1v-.62h.37v.58a3,3,0,0,1-.49,1.86,1.63,1.63,0,0,1-1.39.66A2.43,2.43,0,0,1,108.2,55.18Zm2.72-3.9h1.19v6.09h-1.19Z"/><path d="M115,57.14a2.12,2.12,0,0,1-.92-.93,3.34,3.34,0,0,1-.31-1.48V54a3.62,3.62,0,0,1,.3-1.54,2.19,2.19,0,0,1,.88-1,2.71,2.71,0,0,1,1.38-.33,2.15,2.15,0,0,1,1.3.38,2.36,2.36,0,0,1,.83,1.1,4.68,4.68,0,0,1,.28,1.73v.4h-4.1v-1h3a2,2,0,0,0-.38-1.15,1.08,1.08,0,0,0-.89-.42,1.29,1.29,0,0,0-1.05.45A1.91,1.91,0,0,0,115,54v.77a1.56,1.56,0,0,0,.4,1.16,1.5,1.5,0,0,0,1.13.41,1.86,1.86,0,0,0,.72-.15,2.06,2.06,0,0,0,.64-.41l.78.79a3.56,3.56,0,0,1-1,.67,3.2,3.2,0,0,1-2.57-.08Z"/><path d="M120.42,51.28h1.2v6.09h-1.2Zm.75,2.56h3.73v1.08h-3.73Zm3.09-2.56h1.2v6.09h-1.2Z"/><path d="M128.31,57.14a2,2,0,0,1-.85-.9,3.17,3.17,0,0,1-.3-1.43v-1a3.06,3.06,0,0,1,.3-1.41,2.06,2.06,0,0,1,.85-.9,2.87,2.87,0,0,1,1.36-.3,2.83,2.83,0,0,1,1.35.3,2.08,2.08,0,0,1,.86.9,3.06,3.06,0,0,1,.29,1.41v1a3.08,3.08,0,0,1-.29,1.42,2,2,0,0,1-.86.9,2.72,2.72,0,0,1-1.35.31A2.76,2.76,0,0,1,128.31,57.14Zm2.33-1.22a1.59,1.59,0,0,0,.34-1.1v-1a1.58,1.58,0,0,0-.34-1.09,1.24,1.24,0,0,0-1-.39,1.22,1.22,0,0,0-1,.39,1.59,1.59,0,0,0-.35,1.09v1a1.6,1.6,0,0,0,.35,1.1,1.2,1.2,0,0,0,1,.4A1.21,1.21,0,0,0,130.64,55.92Z"/><path d="M133.35,48.85h1.19v3h-1.19Zm1.82,0h1.19v3h-1.19Z"/><path class="cls-51" d="M17.76,66.09h.7v5h-.7Zm.34,2.17h1.56v.67H18.1Zm.94.61.61-.35,1.92,2.54h-1Zm0-.54,1.44-2.24h.87L19.4,69Z"/><path class="cls-51" d="M22.69,70.93a1.17,1.17,0,0,1-.5-.53,1.78,1.78,0,0,1-.17-.83V69a1.72,1.72,0,0,1,.17-.82,1.17,1.17,0,0,1,.5-.53,1.82,1.82,0,0,1,1.58,0,1.22,1.22,0,0,1,.5.53,1.84,1.84,0,0,1,.17.82v.59a1.92,1.92,0,0,1-.17.83,1.2,1.2,0,0,1-.5.52,1.82,1.82,0,0,1-1.58,0ZM24,70.22a.91.91,0,0,0,.21-.64V69a.9.9,0,0,0-.21-.64.7.7,0,0,0-.56-.22.74.74,0,0,0-.57.22.94.94,0,0,0-.2.64v.59a1,1,0,0,0,.2.64.75.75,0,0,0,.57.23A.71.71,0,0,0,24,70.22Z"/><path class="cls-51" d="M28.65,67.51h.62v3.55h-.63v-2.5l0,.21-.86,1.6h-.42l-.86-1.6,0-.21v2.5h-.63V67.51h.62l1.05,2Z"/><path class="cls-51" d="M30.36,67.51h.7v3.55h-.7Zm.44,0H33v.67H30.8Zm1.81,0h.69v3.55h-.69Z"/><path class="cls-51" d="M34.16,70.43a.46.46,0,0,0,.42-.25,1.37,1.37,0,0,0,.15-.7v-2h.7v2.06a2.29,2.29,0,0,1-.14.83,1.05,1.05,0,0,1-.41.51,1.15,1.15,0,0,1-.65.18h-.07Zm1-2.92h1.74v.67H35.17Zm1.37,0h.7v3.55h-.7Z"/><path class="cls-51" d="M38.94,70.93a1.26,1.26,0,0,1-.53-.54,1.93,1.93,0,0,1-.18-.87v-.4a2.22,2.22,0,0,1,.17-.9,1.28,1.28,0,0,1,.52-.56,1.56,1.56,0,0,1,.8-.2,1.34,1.34,0,0,1,.76.22,1.41,1.41,0,0,1,.48.65,2.73,2.73,0,0,1,.17,1v.23h-2.4V69h1.73a1.19,1.19,0,0,0-.22-.68.63.63,0,0,0-.52-.24.76.76,0,0,0-.61.26,1.09,1.09,0,0,0-.22.74v.45a.92.92,0,0,0,.23.67.89.89,0,0,0,.66.24,1.06,1.06,0,0,0,.42-.09,1,1,0,0,0,.38-.24l.45.46a1.79,1.79,0,0,1-.59.39,1.57,1.57,0,0,1-.66.14A1.83,1.83,0,0,1,38.94,70.93Z"/><path class="cls-51" d="M42.08,67.51h.7v3.55h-.7ZM42.42,69H43.7v.67H42.42Zm.71.07,1-1.51h.84l-1.49,2.13Zm0,.54.54-.35,1.44,1.85h-.93Z"/><path class="cls-51" d="M46.19,70.93a1.21,1.21,0,0,1-.53-.52,1.8,1.8,0,0,1-.18-.84V69a1.78,1.78,0,0,1,.18-.83,1.27,1.27,0,0,1,.53-.52,1.74,1.74,0,0,1,.82-.18,1.83,1.83,0,0,1,.53.07,1.58,1.58,0,0,1,.44.19,1.35,1.35,0,0,1,.32.31l-.5.45a1.1,1.1,0,0,0-.35-.26,1.06,1.06,0,0,0-.42-.09.85.85,0,0,0-.63.22.86.86,0,0,0-.22.64v.58a.88.88,0,0,0,.22.65.82.82,0,0,0,.63.23.92.92,0,0,0,.42-.1,1.17,1.17,0,0,0,.35-.28l.5.49a1.6,1.6,0,0,1-.33.3,1.77,1.77,0,0,1-.44.19,2.12,2.12,0,0,1-.52.06A1.74,1.74,0,0,1,46.19,70.93Z"/><path class="cls-51" d="M49.07,67.51h.7v3.55h-.7ZM49.5,69h2.18v.63H49.5Zm1.81-1.49H52v3.55h-.7Z"/><path class="cls-51" d="M55.33,71.06V68.54l.08.09-1.7,2.43H53.1V67.51h.69v2.58L53.71,70l1.71-2.49H56v3.55Z"/><path class="cls-51" d="M59.34,71.06V68.54l.09.09-1.71,2.43h-.6V67.51h.69v2.58L57.72,70l1.72-2.49H60v3.55Zm-1.56-4.53a1.39,1.39,0,0,1-.25-.91h.56a.92.92,0,0,0,.11.51.4.4,0,0,0,.34.17h.07a.4.4,0,0,0,.34-.17.92.92,0,0,0,.11-.51h.56a1.39,1.39,0,0,1-.25.91.91.91,0,0,1-.76.31h-.07A.93.93,0,0,1,57.78,66.53Z"/><path class="cls-51" d="M17.85,79.24a1,1,0,0,1-.32-.82,1,1,0,0,1,.29-.79,1.31,1.31,0,0,1,.9-.27h1l.05.56H18.73a.59.59,0,0,0-.41.12.51.51,0,0,0-.14.38.46.46,0,0,0,.18.4,1,1,0,0,0,.55.13,1.49,1.49,0,0,0,.59-.09.29.29,0,0,0,.2-.27l.07.5a.76.76,0,0,1-.23.24,1,1,0,0,1-.31.14,1.64,1.64,0,0,1-.4,0A1.51,1.51,0,0,1,17.85,79.24Zm1.85-2a.73.73,0,0,0-.19-.54.69.69,0,0,0-.53-.19,1.45,1.45,0,0,0-.41.06,1.51,1.51,0,0,0-.36.18l-.51-.34a1.23,1.23,0,0,1,.53-.38,1.94,1.94,0,0,1,.73-.14,1.61,1.61,0,0,1,.76.16,1,1,0,0,1,.48.45,1.43,1.43,0,0,1,.16.71v2.28H19.7Z"/><path class="cls-51" d="M21.42,75.91h.7v3.55h-.7Zm.44,1.49H24V78H21.86Zm1.8-1.49h.7v3.55h-.7Z"/><path class="cls-51" d="M25.46,75.91h.69v3.55h-.69Zm.34,0h1.93v.67H25.8Z"/><path class="cls-51" d="M28,78.83a.48.48,0,0,0,.43-.25,1.37,1.37,0,0,0,.15-.7v-2h.7V78a2,2,0,0,1-.15.82,1,1,0,0,1-.41.52,1.13,1.13,0,0,1-.65.18H28Zm1-2.92h1.74v.67H29Zm1.37,0h.7v3.55h-.7Z"/><path class="cls-51" d="M32.17,74.49h.7v.7h-.7Zm0,1.42h.7v3.55h-.7Z"/><path class="cls-51" d="M36.16,79.46V76.94l.08.09-1.7,2.43h-.61V75.91h.69v2.58l-.08-.09,1.71-2.49h.6v3.55ZM34.6,74.93a1.39,1.39,0,0,1-.26-.91h.56a.92.92,0,0,0,.12.51.38.38,0,0,0,.34.17h.06a.41.41,0,0,0,.35-.17,1,1,0,0,0,.11-.51h.56a1.39,1.39,0,0,1-.25.91.93.93,0,0,1-.77.31h-.06A.91.91,0,0,1,34.6,74.93Z"/><path class="cls-51" d="M38.55,79.33a1.21,1.21,0,0,1-.53-.52,1.8,1.8,0,0,1-.18-.84v-.58a1.78,1.78,0,0,1,.18-.83,1.21,1.21,0,0,1,.53-.52,1.76,1.76,0,0,1,.83-.18,1.81,1.81,0,0,1,.52.07,1.58,1.58,0,0,1,.44.19,1.18,1.18,0,0,1,.32.31l-.5.45a1.1,1.1,0,0,0-.35-.26,1.06,1.06,0,0,0-.42-.09.85.85,0,0,0-.63.22.86.86,0,0,0-.22.64V78a.88.88,0,0,0,.22.65.85.85,0,0,0,.63.23.9.9,0,0,0,.42-.1,1.17,1.17,0,0,0,.35-.28l.5.49a1.6,1.6,0,0,1-.33.3,1.77,1.77,0,0,1-.44.19,2.1,2.1,0,0,1-.51.06A1.76,1.76,0,0,1,38.55,79.33Z"/><path class="cls-51" d="M41.43,75.91h.7v3.55h-.7Zm.34,2.89H43a.49.49,0,0,0,.34-.13.56.56,0,0,0,.07-.61.38.38,0,0,0-.16-.17.43.43,0,0,0-.25-.07H41.77v-.66H43a1.48,1.48,0,0,1,.65.14,1,1,0,0,1,.43.41,1.08,1.08,0,0,1,.16.6,1.16,1.16,0,0,1-.15.6,1.09,1.09,0,0,1-.44.41,1.45,1.45,0,0,1-.65.14H41.77Z"/><path class="cls-51" d="M45.14,75.91h.69v3.55h-.69Zm.33,1.44h1.29V78H45.47Zm.71.07,1-1.51H48L46.5,78Zm0,.54.54-.35,1.44,1.85h-.93Z"/><path class="cls-51" d="M51,79.46V76.94l.08.09-1.71,2.43h-.6V75.91h.69v2.58l-.08-.09,1.71-2.49h.6v3.55Z"/><path class="cls-51" d="M55,79.46V76.94l.08.09-1.7,2.43h-.61V75.91h.69v2.58l-.08-.09,1.71-2.49h.6v3.55Zm-1.56-4.53a1.39,1.39,0,0,1-.26-.91h.56a.92.92,0,0,0,.12.51.38.38,0,0,0,.34.17h.06a.38.38,0,0,0,.34-.17A.92.92,0,0,0,54.7,74h.56a1.39,1.39,0,0,1-.26.91.91.91,0,0,1-.76.31h-.06A.91.91,0,0,1,53.42,74.93Z"/><path class="cls-51" d="M17.46,87.23h3.41v.63H17.46Zm0,0h.69v1.52h-.69Zm.12,0h.09a.46.46,0,0,0,.32-.11.75.75,0,0,0,.15-.36,5.43,5.43,0,0,0,0-.65v-1.8h.7v2a1.45,1.45,0,0,1-.25.93.88.88,0,0,1-.72.32h-.08Zm1-2.92h1.58v.63H18.61Zm1.35,0h.69v3.55H20Zm.63,2.92h.7v1.52h-.7Z"/><path class="cls-51" d="M21.87,87.23a.46.46,0,0,0,.42-.25,1.37,1.37,0,0,0,.15-.7v-2h.7v2.06a2.19,2.19,0,0,1-.14.82,1.09,1.09,0,0,1-.41.52,1.16,1.16,0,0,1-.66.18h-.06Zm1-2.92h1.74V85H22.88Zm1.37,0H25v3.55h-.7Z"/><path class="cls-51" d="M25.8,87.86l1-1.56.69.16-.86,1.4Zm1.31-1.25a1.38,1.38,0,0,1-.65-.14,1.11,1.11,0,0,1-.43-.4,1.13,1.13,0,0,1-.16-.61,1.08,1.08,0,0,1,.16-.6,1,1,0,0,1,.43-.4,1.36,1.36,0,0,1,.65-.15h1.26V85H27.08a.45.45,0,0,0-.34.13.52.52,0,0,0-.13.35.53.53,0,0,0,.06.26.46.46,0,0,0,.17.17.48.48,0,0,0,.24.06h1.29v.66Zm.9,1.25V84.31h.7v3.55Z"/><path class="cls-51" d="M32.47,86l.51.36L32,87.86h-.9Zm-1.13-1.66h.81L33,85.79l-.28.61Zm1.13,1.43H34.8v.62H32.47Zm.82-1.43H34v3.55h-.69Zm1,1.48.86-1.48h.81L34.54,86.4Zm0,.54L34.8,86l1.34,1.89h-.9Z"/><path class="cls-51" d="M38.91,87.86V85.34l.08.09-1.7,2.43h-.61V84.31h.69v2.58l-.08-.09L39,84.31h.6v3.55Z"/><path class="cls-51" d="M40.29,84.31H43v.63H40.29Zm1,.38H42v3.17h-.7Z"/><path class="cls-51" d="M43.79,84.31h2.76v.63H43.79Zm1,.38h.7v3.17h-.7Z"/><path class="cls-51" d="M47.23,87.86l1-1.56.69.16-.86,1.4Zm1.31-1.25a1.38,1.38,0,0,1-.65-.14,1.11,1.11,0,0,1-.43-.4,1.13,1.13,0,0,1-.16-.61,1.08,1.08,0,0,1,.16-.6,1,1,0,0,1,.43-.4,1.36,1.36,0,0,1,.65-.15H49.8V85H48.51a.45.45,0,0,0-.34.13.52.52,0,0,0-.13.35.53.53,0,0,0,.06.26.46.46,0,0,0,.17.17.48.48,0,0,0,.24.06H49.8v.66Zm.9,1.25V84.31h.7v3.55Z"/><path class="cls-51" d="M18.15,96.19a1,1,0,0,1-.45-.36,1.2,1.2,0,0,1-.22-.57h.67a.51.51,0,0,0,.21.31.82.82,0,0,0,.44.11.76.76,0,0,0,.46-.13.44.44,0,0,0,.16-.37h0a.35.35,0,0,0-.12-.28.47.47,0,0,0-.33-.11h-.56v-.59H19a.33.33,0,0,0,.25-.11.44.44,0,0,0,.09-.29h0a.46.46,0,0,0-.15-.36.6.6,0,0,0-.4-.12.68.68,0,0,0-.41.11.52.52,0,0,0-.22.3h-.67a1.22,1.22,0,0,1,.44-.77,1.37,1.37,0,0,1,.89-.28,1.48,1.48,0,0,1,.9.25.85.85,0,0,1,.31.71h0a.84.84,0,0,1-.14.5.76.76,0,0,1-.39.31.7.7,0,0,1,.48.25.82.82,0,0,1,.17.53h0a1,1,0,0,1-.34.8,1.44,1.44,0,0,1-1,.29A1.69,1.69,0,0,1,18.15,96.19Z"/><path class="cls-51" d="M22.91,92.71h.69v3.55h-.69Zm.43,1.49h2.18v.63H23.34Zm1.81-1.49h.69v3.55h-.69Z"/><path class="cls-51" d="M26.46,92.71h.71l1.09,3.09-.38.75Zm3.14,0-1.51,4.38a1.2,1.2,0,0,1-.21.39.79.79,0,0,1-.33.2,1.65,1.65,0,0,1-.48.06h-.14v-.67h.14a.49.49,0,0,0,.31-.08.68.68,0,0,0,.2-.27l1.31-4Z"/><path class="cls-51" d="M30,95.63a.46.46,0,0,0,.42-.25,1.37,1.37,0,0,0,.15-.7v-2h.7v2.06a2.29,2.29,0,0,1-.14.83,1.05,1.05,0,0,1-.41.51,1.15,1.15,0,0,1-.65.18H30Zm1-2.92h1.74v.67H31Zm1.37,0h.7v3.55h-.7Z"/><path class="cls-51" d="M33.91,96.26l1-1.56.69.16-.86,1.4ZM35.22,95a1.38,1.38,0,0,1-.65-.14,1.11,1.11,0,0,1-.43-.4,1.13,1.13,0,0,1-.16-.61,1.08,1.08,0,0,1,.16-.6,1,1,0,0,1,.43-.4,1.36,1.36,0,0,1,.65-.15h1.26v.67H35.19a.45.45,0,0,0-.34.13.52.52,0,0,0-.13.35.53.53,0,0,0,.06.26.46.46,0,0,0,.17.17.48.48,0,0,0,.24.06h1.29V95Zm.9,1.25V92.71h.7v3.55Z"/></g></g></svg>