<svg xmlns="http://www.w3.org/2000/svg" xmlns:xlink="http://www.w3.org/1999/xlink" viewBox="0 0 178.04 230.4"><defs><style>.cls-1{fill:none;}.cls-2,.cls-20,.cls-21,.cls-22{isolation:isolate;}.cls-3{fill:#fff;}.cls-4{clip-path:url(#clip-path);}.cls-12,.cls-5{mix-blend-mode:multiply;}.cls-6{fill:#d3eeff;}.cls-7{fill:url(#linear-gradient);}.cls-8{fill:url(#linear-gradient-2);}.cls-9{opacity:0.2;mix-blend-mode:overlay;}.cls-10{fill:url(#linear-gradient-3);}.cls-11{fill:url(#linear-gradient-4);}.cls-12{opacity:0.5;}.cls-13{fill:#00637f;}.cls-14{fill:url(#Безымянный_градиент_2);}.cls-15{fill:url(#Безымянный_градиент_3);}.cls-16{fill:url(#Безымянный_градиент_3-2);}.cls-17{fill:url(#Безымянный_градиент_4);}.cls-18{fill:url(#Безымянный_градиент_5);}.cls-19{fill:#bdd3dd;}.cls-20,.cls-21,.cls-22{font-size:4.17px;fill:#3f3e40;}.cls-20,.cls-21{font-family:Montserrat-ExtraBold, Montserrat;font-weight:800;}.cls-21{letter-spacing:0.01em;}.cls-22{font-family:Montserrat-Medium, Montserrat;font-weight:500;}</style><clipPath id="clip-path"><rect class="cls-1" width="178.04" height="230.4"/></clipPath><linearGradient id="linear-gradient" x1="-3340.21" y1="143.14" x2="-3559.02" y2="143.14" gradientTransform="matrix(-1, 0, 0, 1, -3340.83, 0)" gradientUnits="userSpaceOnUse"><stop offset="0" stop-color="#79daff"/><stop offset="1" stop-color="#008dc4"/></linearGradient><linearGradient id="linear-gradient-2" x1="-3296.45" y1="139.38" x2="-3446.17" y2="139.38" xlink:href="#linear-gradient"/><linearGradient id="linear-gradient-3" x1="-3400.43" y1="185.27" x2="-3555.58" y2="185.27" xlink:href="#linear-gradient"/><linearGradient id="linear-gradient-4" x1="-3370.95" y1="194" x2="-3479.54" y2="194" xlink:href="#linear-gradient"/><linearGradient id="Безымянный_градиент_2" x1="88.72" y1="2621.32" x2="88.72" y2="2615.84" gradientTransform="matrix(1, 0, 0, -1, -74.99, 2637.23)" gradientUnits="userSpaceOnUse"><stop offset="0" stop-color="#ff9800"/><stop offset="1" stop-color="#be3d00"/></linearGradient><linearGradient id="Безымянный_градиент_3" x1="88.55" y1="2617.71" x2="88.55" y2="2619.67" gradientTransform="matrix(1, 0, 0, -1, -74.99, 2637.23)" gradientUnits="userSpaceOnUse"><stop offset="0" stop-color="#dae5e9"/><stop offset="1" stop-color="#9eb7c7"/></linearGradient><linearGradient id="Безымянный_градиент_3-2" x1="88.23" y1="2623.21" x2="88.23" y2="2625.21" xlink:href="#Безымянный_градиент_3"/><linearGradient id="Безымянный_градиент_4" x1="88.39" y1="2626.21" x2="88.39" y2="2622.17" gradientTransform="matrix(1, 0, 0, -1, -74.99, 2637.23)" gradientUnits="userSpaceOnUse"><stop offset="0" stop-color="#80c1ce"/><stop offset="0.5" stop-color="#24a4b5"/><stop offset="1" stop-color="#007b94"/></linearGradient><linearGradient id="Безымянный_градиент_5" x1="87.56" y1="2627.33" x2="92.56" y2="2612.96" gradientTransform="matrix(1, 0, 0, -1, -74.99, 2637.23)" gradientUnits="userSpaceOnUse"><stop offset="0" stop-color="#47626b"/><stop offset="0.24" stop-color="#394f56"/><stop offset="0.73" stop-color="#151d20"/><stop offset="1"/></linearGradient></defs><g class="cls-2"><g id="Layer_1" data-name="Layer 1"><rect class="cls-3" width="178.04" height="230.4"/><g class="cls-4"><g class="cls-5"><path class="cls-6" d="M190.46,180.75A98.4,98.4,0,0,0,4.78,240.13H190.46Z"/></g><g class="cls-5"><path class="cls-6" d="M115.21-5.87H-7.54V147.78A98.38,98.38,0,0,0,115.21-5.87Z"/></g><g class="cls-5"><path class="cls-7" d="M190.46,64.52a98.39,98.39,0,1,0-80.53,175.61h46.55a98,98,0,0,0,34-15.61Z"/></g><g class="cls-5"><path class="cls-8" d="M47.19,72.06A67.21,67.21,0,0,0-7.54,100.21v78.33A67.31,67.31,0,1,0,47.19,72.06Z"/></g><g class="cls-9"><path class="cls-3" d="M52.71,35.06A93.32,93.32,0,0,0-7.54,57V200.5A93.69,93.69,0,1,0,52.71,35.06Z"/></g><g class="cls-5"><path class="cls-6" d="M190.46,213.29a69.73,69.73,0,0,0-125.7,26.84h125.7Z"/></g><g class="cls-5"><circle class="cls-6" cx="99.32" cy="149.23" r="69.76" transform="translate(-76.43 113.94) rotate(-45)"/></g><g class="cls-5"><path class="cls-10" d="M190.46,140.38a69.74,69.74,0,0,0-93.11,99.75h93.11Z"/></g><g class="cls-5"><path class="cls-11" d="M74.28,240.13H118.8a48.83,48.83,0,1,0-44.52,0Z"/></g><g class="cls-9"><path class="cls-3" d="M57,240.13h86.52a66.59,66.59,0,1,0-86.52,0Z"/></g></g><g class="cls-12"><rect class="cls-13" x="58.5" y="101.88" width="119.54" height="56.29"/></g><path class="cls-3" d="M70.58,108.59h1.34v9.6H70.58Zm.84,0h5.32v1.28H71.42Zm4.61,0h1.35v9.6H76Z"/><path class="cls-3" d="M79.92,117.76a2,2,0,0,1-.63-1.59,1.91,1.91,0,0,1,.57-1.52,2.56,2.56,0,0,1,1.74-.51h1.94l.1,1.08h-2a1.15,1.15,0,0,0-.78.23.91.91,0,0,0-.27.72.89.89,0,0,0,.35.77,1.77,1.77,0,0,0,1,.25,3.12,3.12,0,0,0,1.16-.16.54.54,0,0,0,.37-.52l.14,1a1.68,1.68,0,0,1-.43.45,2,2,0,0,1-.61.27,3.07,3.07,0,0,1-.77.09A2.86,2.86,0,0,1,79.92,117.76Zm3.56-3.91a1.45,1.45,0,0,0-.35-1,1.35,1.35,0,0,0-1-.37,2.79,2.79,0,0,0-.81.12,2.49,2.49,0,0,0-.69.35l-1-.67a2.5,2.5,0,0,1,1-.73,3.82,3.82,0,0,1,1.42-.26,3.23,3.23,0,0,1,1.45.3,2.07,2.07,0,0,1,.93.87,2.82,2.82,0,0,1,.32,1.38v4.4H83.48Z"/><path class="cls-3" d="M86.81,111.34h1.35v6.85H86.81Zm.65,2.78h2.48v1.28H87.46Zm1.36.14,1.86-2.92h1.63l-2.87,4.1Zm.06,1,1.05-.69,2.78,3.58h-1.8Z"/><path class="cls-3" d="M94.75,117.93a2.41,2.41,0,0,1-1-1,3.71,3.71,0,0,1-.35-1.67v-.77a4,4,0,0,1,.34-1.74,2.44,2.44,0,0,1,1-1.09,3,3,0,0,1,1.55-.38,2.46,2.46,0,0,1,1.47.43,2.77,2.77,0,0,1,.93,1.24,5.38,5.38,0,0,1,.32,2v.44H94.35v-1.08h3.34a2.28,2.28,0,0,0-.44-1.3,1.22,1.22,0,0,0-1-.47,1.44,1.44,0,0,0-1.18.51,2.12,2.12,0,0,0-.42,1.41v.88a1.77,1.77,0,0,0,.45,1.3,1.68,1.68,0,0,0,1.27.46,2.1,2.1,0,0,0,.81-.17,2.27,2.27,0,0,0,.72-.46l.89.88a3.73,3.73,0,0,1-1.14.76,3.27,3.27,0,0,1-1.28.27A3.4,3.4,0,0,1,94.75,117.93Z"/><path class="cls-3" d="M100,111.34h5.31v1.21H100Zm2,.72h1.35v6.13h-1.35Z"/><path class="cls-3" d="M70.58,124.81h1.34v9.6H70.58Zm.79,8.35H74a2.31,2.31,0,0,0,1.49-.39,1.36,1.36,0,0,0,.47-1.1v0a1.92,1.92,0,0,0-.17-.83,1.11,1.11,0,0,0-.53-.54,2,2,0,0,0-.93-.19H71.37v-1.21H74.3a1.6,1.6,0,0,0,1.12-.35,1.33,1.33,0,0,0,.38-1,1.34,1.34,0,0,0-.42-1.08,2,2,0,0,0-1.26-.35H71.37v-1.25h3a3.47,3.47,0,0,1,1.56.32,2.11,2.11,0,0,1,.93.89,2.88,2.88,0,0,1,.31,1.39,2.24,2.24,0,0,1-.19.93,2,2,0,0,1-.58.74,2.25,2.25,0,0,1-1,.41,2.13,2.13,0,0,1,1,.41,2.06,2.06,0,0,1,.64.82,2.45,2.45,0,0,1,.23,1.05v0a2.75,2.75,0,0,1-.34,1.37,2.26,2.26,0,0,1-1,.92,3.18,3.18,0,0,1-1.49.33h-3.1Z"/><path class="cls-3" d="M80.33,134.15a2.35,2.35,0,0,1-1-1,3.48,3.48,0,0,1-.35-1.61V130.4a3.39,3.39,0,0,1,.35-1.59,2.35,2.35,0,0,1,1-1,3.47,3.47,0,0,1,1.6-.34,3.63,3.63,0,0,1,1,.13,3,3,0,0,1,.85.37,2.37,2.37,0,0,1,.63.59l-1,.87a2,2,0,0,0-1.5-.68,1.6,1.6,0,0,0-1.2.43,1.66,1.66,0,0,0-.43,1.23v1.13a1.73,1.73,0,0,0,.42,1.25,1.59,1.59,0,0,0,1.21.44,1.8,1.8,0,0,0,.82-.19,1.85,1.85,0,0,0,.68-.54l1,.94a2.53,2.53,0,0,1-.64.58,2.85,2.85,0,0,1-.85.37,4,4,0,0,1-1,.12A3.34,3.34,0,0,1,80.33,134.15Z"/><path class="cls-3" d="M87.08,134.15a2.35,2.35,0,0,1-1-1.05,3.54,3.54,0,0,1-.36-1.66v-.78a4.14,4.14,0,0,1,.34-1.73,2.47,2.47,0,0,1,1-1.1,3.05,3.05,0,0,1,1.56-.37,2.42,2.42,0,0,1,1.46.43,2.65,2.65,0,0,1,.93,1.24,5.36,5.36,0,0,1,.32,1.94v.45H86.68v-1.08H90a2.36,2.36,0,0,0-.43-1.3,1.23,1.23,0,0,0-1-.47,1.48,1.48,0,0,0-1.19.5,2.17,2.17,0,0,0-.42,1.42v.87a1.78,1.78,0,0,0,.45,1.31,1.72,1.72,0,0,0,1.28.45,2.13,2.13,0,0,0,.81-.16,2.39,2.39,0,0,0,.72-.46l.88.88a3.73,3.73,0,0,1-1.14.76,3.21,3.21,0,0,1-1.27.26A3.41,3.41,0,0,1,87.08,134.15Z"/><path class="cls-3" d="M96.78,127.56h1.34v6.85H96.78Zm.79,5.63h2.53a.81.81,0,0,0,.62-.22.86.86,0,0,0,.22-.64v0a.92.92,0,0,0-.22-.66.78.78,0,0,0-.62-.24H97.57V130.2h2.53a.72.72,0,0,0,.53-.18.62.62,0,0,0,.18-.48.83.83,0,0,0-.18-.57.69.69,0,0,0-.52-.2H97.57v-1.21h2.59a2.2,2.2,0,0,1,1.48.44,1.54,1.54,0,0,1,.53,1.26,1.42,1.42,0,0,1-.39,1,1.9,1.9,0,0,1-1.09.52,2.07,2.07,0,0,1,1.19.62,1.76,1.76,0,0,1,.42,1.2v0a1.58,1.58,0,0,1-.57,1.3,2.47,2.47,0,0,1-1.59.46H97.57Z"/><path class="cls-3" d="M104.08,127.56h1.35v6.85h-1.35Zm.65,2.77h2.48v1.28h-2.48Zm1.36.14,1.86-2.91h1.63l-2.87,4.09Zm.06,1.05,1-.7,2.78,3.59h-1.8Z"/><path class="cls-3" d="M110.57,133.18a.91.91,0,0,0,.82-.48,2.56,2.56,0,0,0,.3-1.36v-3.78H113v4a4.2,4.2,0,0,1-.27,1.59,2.12,2.12,0,0,1-.8,1,2.18,2.18,0,0,1-1.25.34h-.14Zm2-5.62h3.35v1.28h-3.35Zm2.64,0h1.35v6.85h-1.35Z"/><path class="cls-3" d="M118.63,127.56H120v6.85h-1.35Zm.78,2.85h2.94v1.14h-2.94Zm3.45,3.74a2.31,2.31,0,0,1-1-1,3.66,3.66,0,0,1-.33-1.62v-1.11a3.57,3.57,0,0,1,.33-1.6,2.31,2.31,0,0,1,1-1,3.59,3.59,0,0,1,3,0,2.29,2.29,0,0,1,1,1,3.44,3.44,0,0,1,.34,1.6v1.13a3.41,3.41,0,0,1-.34,1.6,2.29,2.29,0,0,1-1,1,3.5,3.5,0,0,1-3,0Zm2.61-1.37a1.81,1.81,0,0,0,.39-1.24v-1.13a1.79,1.79,0,0,0-.39-1.24,1.37,1.37,0,0,0-1.09-.43,1.38,1.38,0,0,0-1.09.43,1.79,1.79,0,0,0-.38,1.24v1.13a1.8,1.8,0,0,0,.38,1.24,1.57,1.57,0,0,0,2.18,0Z"/><path class="cls-3" d="M130.21,131.94a2,2,0,0,1-.86-.93,3.25,3.25,0,0,1-.29-1.46v-2h1.34v2a1.42,1.42,0,0,0,.32,1,1.15,1.15,0,0,0,.91.35,1.74,1.74,0,0,0,1.21-.38,1.39,1.39,0,0,0,.42-1.09v-.69h.43v.65a3.47,3.47,0,0,1-.56,2.1,1.85,1.85,0,0,1-1.57.74A2.72,2.72,0,0,1,130.21,131.94Zm3-4.38h1.35v6.85h-1.35Z"/><path class="cls-3" d="M137.9,134.15a2.41,2.41,0,0,1-1-1.05,3.54,3.54,0,0,1-.36-1.66v-.78a4.14,4.14,0,0,1,.34-1.73,2.47,2.47,0,0,1,1-1.1,3.05,3.05,0,0,1,1.56-.37,2.42,2.42,0,0,1,1.46.43,2.59,2.59,0,0,1,.93,1.24,5.36,5.36,0,0,1,.32,1.94v.45H137.5v-1.08h3.34a2.28,2.28,0,0,0-.43-1.3,1.22,1.22,0,0,0-1-.47,1.48,1.48,0,0,0-1.19.5,2.17,2.17,0,0,0-.42,1.42v.87a1.78,1.78,0,0,0,.45,1.31,1.74,1.74,0,0,0,1.28.45,2.13,2.13,0,0,0,.81-.16,2.27,2.27,0,0,0,.72-.46l.88.88a3.73,3.73,0,0,1-1.14.76,3.21,3.21,0,0,1-1.27.26A3.41,3.41,0,0,1,137.9,134.15Z"/><path class="cls-3" d="M144,127.56h1.34v6.85H144Zm.84,2.87H149v1.22h-4.2Zm3.49-2.87h1.34v6.85H148.3Z"/><path class="cls-3" d="M152.86,134.15a2.26,2.26,0,0,1-1-1,3.66,3.66,0,0,1-.33-1.62v-1.11a3.57,3.57,0,0,1,.33-1.6,2.26,2.26,0,0,1,1-1,3.57,3.57,0,0,1,3,0,2.26,2.26,0,0,1,1,1,3.57,3.57,0,0,1,.33,1.6v1.13a3.54,3.54,0,0,1-.33,1.6,2.26,2.26,0,0,1-1,1,3.48,3.48,0,0,1-3,0Zm2.61-1.37a1.81,1.81,0,0,0,.39-1.24v-1.13a1.79,1.79,0,0,0-.39-1.24,1.6,1.6,0,0,0-2.18,0,1.79,1.79,0,0,0-.39,1.24v1.13a1.81,1.81,0,0,0,.39,1.24,1.57,1.57,0,0,0,2.18,0Z"/><path class="cls-3" d="M72,150.3a2.77,2.77,0,0,1-1.15-1.22,4.37,4.37,0,0,1-.39-1.93V141h1.34v6.17a2.31,2.31,0,0,0,.53,1.62,2.25,2.25,0,0,0,3,0,2.26,2.26,0,0,0,.53-1.62V141h1.35v6.12a4.23,4.23,0,0,1-.4,1.93,2.67,2.67,0,0,1-1.15,1.22,3.75,3.75,0,0,1-1.83.42A3.71,3.71,0,0,1,72,150.3Z"/><path class="cls-3" d="M79.3,141h1.35v9.59H79.3Zm.67,8.31h5.49v1.28H80Z"/><path class="cls-3" d="M85.33,141H92.1v1.28H85.33Zm2.71.78h1.35v8.81H88Z"/><path class="cls-3" d="M93.42,141h1.35v9.6H93.42Zm.59,4.26h3.27a1.28,1.28,0,0,0,.68-.18,1.2,1.2,0,0,0,.46-.53,1.73,1.73,0,0,0,.16-.78,1.78,1.78,0,0,0-.16-.78,1.21,1.21,0,0,0-.45-.52,1.23,1.23,0,0,0-.69-.19H94V141h3.22a3.11,3.11,0,0,1,1.46.34,2.43,2.43,0,0,1,1,1,3,3,0,0,1,.34,1.45,3,3,0,0,1-.34,1.46,2.47,2.47,0,0,1-1,1,3,3,0,0,1-1.46.34H94Zm2.61,1L98,146l2.46,4.66h-1.6Z"/><path class="cls-3" d="M104.52,141h1.14l3.54,9.59h-1.45l-2.66-7.74-2.66,7.74H101Zm-1.91,6.21h5v1.28h-5Z"/><g id="Слой_1" data-name="Слой 1"><path class="cls-14" d="M9.1,19.8H16c1.3,0,2-.44,2-1.36s-.69-1.36-2-1.36H8.77v-.66H16c2.39,0,2.65,1.42,2.65,2s-.26,2-2.65,2H8.77V19.8Z"/><path class="cls-15" d="M16,17.08c1.3,0,2,.45,2,1.36s-.69,1.36-2,1.36H9.1V17.08Z"/><path class="cls-16" d="M15.46,11.87c1.26,0,1.91.44,1.91,1.28s-.65,1.31-1.91,1.31H9.1V11.87Z"/><path class="cls-17" d="M9.1,14.46h6.36c1.26,0,1.91-.44,1.91-1.31s-.65-1.28-1.91-1.28H8.77v-.66h6.69c2.32,0,2.58,1.36,2.58,1.94s-.26,2-2.58,2H8.77v-.66Z"/><path class="cls-18" d="M19.4,15.55a3.38,3.38,0,0,1,2.45,3.32c0,2.31-1.92,3.67-5.51,3.67H9.1V20.47H16c2.4,0,2.66-1.42,2.66-2s-.26-2-2.66-2H9.1v-1.3h6.36c2.32,0,2.58-1.38,2.58-2s-.26-1.94-2.58-1.94H9.1V9.14H16c3.52,0,5.24,1.43,5.24,3.5A3.16,3.16,0,0,1,19.4,15.55Z"/><rect class="cls-19" x="9.1" y="12.57" width="7.38" height="0.3"/><rect class="cls-19" x="9.1" y="13.46" width="7.38" height="0.3"/><rect class="cls-19" x="9.1" y="17.85" width="7.38" height="0.3"/><rect class="cls-19" x="9.1" y="18.74" width="7.38" height="0.3"/><g class="cls-2"><text class="cls-20" transform="translate(24.28 15.18)">BE</text><text class="cls-21" transform="translate(30.29 15.18)">T</text><text class="cls-20" transform="translate(32.98 15.18)">TER </text><text class="cls-22" transform="translate(24.27 19.35)">SCHOOL</text></g></g></g></g></svg>