<svg id="Слой_1" data-name="Слой 1" xmlns="http://www.w3.org/2000/svg" viewBox="0 0 453.85 378.36"><defs><style>.cls-1{fill:#cbd5f3;}.cls-2{fill:#ebebef;}.cls-3{fill:#abc1f5;}.cls-4{fill:#32449e;}.cls-5{fill:#f6f6de;}.cls-6{fill:#7a85d1;}.cls-7{fill:#ff4c00;}.cls-8{fill:#646ccd;}.cls-9{fill:#867af2;}.cls-10{fill:#e3e9e5;}.cls-11{fill:#cdb196;}.cls-12{fill:#bea28b;}.cls-13{fill:#91806c;}.cls-14{fill:#c9c7b2;}.cls-15{fill:#cd3a29;}.cls-16{fill:#95806c;}.cls-17{fill:#f5f6de;}.cls-18{fill:#cdaf95;}.cls-19{fill:#ad957f;}.cls-20{fill:#dfe2cb;}</style></defs><ellipse class="cls-1" cx="223.75" cy="360.86" rx="201.22" ry="17.5"/><path class="cls-2" d="M155.53,198c1.66,1.17,2,3.66,5.09,4.29-3.1.76-3.53,3.15-5.05,4.54-.06-.29-.12-.58-.17-.87l-.35-.68.06,0a3.28,3.28,0,0,0-2.8-2.53c-.06-.26-.11-.52-.17-.79a3.9,3.9,0,0,0,3.39-4Z" transform="translate(-22.96 -61.11)"/><path class="cls-2" d="M250.65,85.19c-2.33.76-3.07,2.51-3.91,4.38a5.12,5.12,0,0,0-3.29-4.32,5.61,5.61,0,0,0,3.29-4.69C247.48,82.87,248.5,84.38,250.65,85.19Z" transform="translate(-22.96 -61.11)"/><path class="cls-2" d="M191.32,135.83c.21-.43.72-.87,0-1.25,1.13-.83,1.69-2,2.1-3.94.73,2.24,1.63,3.77,3.92,4.51-2.19.91-3.22,2.26-3.78,4.89C193,138,192.4,136.73,191.32,135.83Z" transform="translate(-22.96 -61.11)"/><path class="cls-2" d="M188.66,311.16c.57,2.61,2.38,4,5.24,5.06-3.64,1.09-5.06,3.72-6,7.06a9.53,9.53,0,0,0-1.12-3.63c-.63-1.45-2-1.91-3.31-2.42a1.33,1.33,0,0,1-.86-1.24c0-1.05.75-.24,1.13-.37,2.78-.94,3.61-3.32,4.16-6.19Z" transform="translate(-22.96 -61.11)"/><path class="cls-2" d="M218.68,173.27c-3.29.75-4.28,3.41-5.09,6.29-.67-1.53-.64-3.27-2-4.36l-.81-.89a2.35,2.35,0,0,0-1.77-1l-1.47-.47.08-.14-.13-.1,1.52-.45a3.15,3.15,0,0,0,2.2-1.3l.57-.77,0,.06.63-1.1-.06,0a2.29,2.29,0,0,0,.69-1.83l.51-1.06c.76,1.36.68,3.19,2.27,4l0,0C216,172.07,218.59,171.45,218.68,173.27Z" transform="translate(-22.96 -61.11)"/><path class="cls-2" d="M293,132.51a10.59,10.59,0,0,0-.82,1.31,17.19,17.19,0,0,0-.6,1.88c-1-2.12-1.24-4.36-3.33-5.33a1.09,1.09,0,0,0-1.08-.46l0,0c.52-.52-2.18-.36-.24-1.26s3.38-2.27,3.5-4.6a.76.76,0,0,0,.54-1c.34,0,.78-.07.86.37.59,3,2.8,4.55,5.3,5.83C295.4,129.88,294.22,131.21,293,132.51Z" transform="translate(-22.96 -61.11)"/><path class="cls-2" d="M173.46,281a.89.89,0,0,1-.75-.91c3.31-.38,4.33-2.92,5.29-6.19,1,3.33,2.46,5.73,6.18,6.5-3.42,1.15-5.23,3-5.7,5.95-.66.51-.66.51-1.1-.75A5.4,5.4,0,0,0,173.46,281Z" transform="translate(-22.96 -61.11)"/><path class="cls-2" d="M290.94,218.86c-2.67.83-3.26,3.23-4.16,5.73-1.58-2.53-1.82-6.11-5.94-6.25,3.59-1.07,5.24-3.41,5.81-7.37,1.05,3.61,2.27,6.28,5.75,6.84Z" transform="translate(-22.96 -61.11)"/><path class="cls-2" d="M212.42,251.63l-1,2.41c-.66-3.18-1.92-5.69-5.65-6.68,1.79-.74,3.25-1.23,4-2.63,1.07-1,1.17-2.49,1.75-4,.82,3.12,2.27,5.47,5.63,6.61C214.84,248.33,213.1,249.46,212.42,251.63Z" transform="translate(-22.96 -61.11)"/><path class="cls-2" d="M243.92,233.15c-2.46,1-3.59,2.57-4.34,5.26-.71-2.62-1.59-4.32-4.38-5.16a6,6,0,0,0,4.35-4.74A6.47,6.47,0,0,0,243.92,233.15Z" transform="translate(-22.96 -61.11)"/><path class="cls-2" d="M283.53,172.41a1.75,1.75,0,0,1-1,1c-1.72.69-2.13,2.42-3,3.84l-.76-1.1c-.11-1.92-1.64-2.56-3.37-3.46,2.44-.88,3.77-2.45,3.9-4.87a.86.86,0,0,0,.21-.29C280,169.83,280.92,171.84,283.53,172.41Z" transform="translate(-22.96 -61.11)"/><path class="cls-2" d="M333.8,267.8c1.21-.95.88-2.63,1.83-3.92.66,3.22,2.21,5.53,5.68,6.52-2.78,1.12-4.73,2.69-5.25,5.52-.42,1.14-.82,1.13-1.05-.06-.54-2.8-2.29-4.45-5-5.34C331.43,269.74,333.05,269.36,333.8,267.8Z" transform="translate(-22.96 -61.11)"/><path class="cls-2" d="M314.26,299c-2.74,1-3.77,2.59-4.61,5.1-.74-2.42-1.62-4.18-4.35-5,2.61-.91,3.81-2.48,4.27-5.51C310.38,296.41,311.34,298.15,314.26,299Z" transform="translate(-22.96 -61.11)"/><path class="cls-2" d="M192.3,215.33c-2.52.91-3.58,2.7-4.39,5.28-.52-2.72-1.61-4.5-4.42-5.27,2.82-.78,3.95-2.46,4.4-5.13C188.73,212.64,189.78,214.45,192.3,215.33Z" transform="translate(-22.96 -61.11)"/><path class="cls-2" d="M287.67,254c2-1,3.38-2,3.74-4.14a6.17,6.17,0,0,0,3.8,3.93,6.35,6.35,0,0,0-3.7,4.84C290.82,256.06,290.05,254.43,287.67,254Z" transform="translate(-22.96 -61.11)"/><path class="cls-2" d="M229.12,316.48h0c-1.94.48-2.85,1.95-3.58,4.64-.55-2.56-1.31-4.08-3.65-4.76a6.25,6.25,0,0,0,3.66-4C226.16,314.36,227.73,315.34,229.12,316.48Z" transform="translate(-22.96 -61.11)"/><path class="cls-2" d="M248.32,191.57c.82,2.09,1.64,3.54,4.26,4.18a5.64,5.64,0,0,0-4.17,4.25c-.84-1.86-1.43-3.57-4.26-4.07A5.59,5.59,0,0,0,248.32,191.57Z" transform="translate(-22.96 -61.11)"/><path class="cls-2" d="M251.59,364.34c-.48-1.69-2.59-1.85-3.23-3.39,2.52-.48,3.4-2.29,3.78-4.78,1,2.12,1.74,4.22,4.71,5-2.67.94-3.71,2.62-4.47,4.88Z" transform="translate(-22.96 -61.11)"/><path class="cls-2" d="M256.19,289.19l-.67,1.76c-.78-3.58-2-6.22-6.2-7,4-.83,5.48-3.15,6.24-6.33.86,3,2.48,5.23,5.41,6.3-.05.08-.09.16-.14.23a1.66,1.66,0,0,1-.21.16A6.34,6.34,0,0,0,256.19,289.19Z" transform="translate(-22.96 -61.11)"/><path class="cls-2" d="M342.3,237.5c0-2.44-2.25-3.15-3.46-4.67,2.47-.32,3.13-2.26,3.8-4.51.84,2.1,1.68,4,4.37,4.78-2.75.86-2.69,3.49-4.38,4.75,0,0-.13-.08-.18-.13S342.35,237.57,342.3,237.5Z" transform="translate(-22.96 -61.11)"/><path class="cls-2" d="M304.08,344.39c-.48-3-1.59-4.66-4.26-5.52,2.67-.79,3.82-2.44,4.26-5.24.77,2.61,1.86,4.37,4.46,5.23C305.93,339.84,304.85,341.59,304.08,344.39Z" transform="translate(-22.96 -61.11)"/><path class="cls-1" d="M173.14,184.56c1.65-.57,1.17-2.7,2.54-3.48a4.91,4.91,0,0,1,3.24-2.1c-.06-.93-1.06-.84-1.5-1.36-2.52-1-3-3.48-3.94-6.21-.57,3.88-2.12,6.37-6.22,7.26C171,179.53,172.7,181.5,173.14,184.56Z" transform="translate(-22.96 -61.11)"/><path class="cls-1" d="M142,242.74l-.6,1.37c-.48,1.72-1.87,2.52-3.5,3.26,2.89.38,3.12,3.06,4.53,4.64.27-1.48.72-2.86,2.22-3.58l.52-.42,1.13-.46-.22-.73C143.55,246.75,143.28,244.27,142,242.74Z" transform="translate(-22.96 -61.11)"/><path class="cls-1" d="M229.05,106.62c.94-2.29,2-4.1,4.69-5.08-2.88-.75-3.88-2.56-4.64-5-.64,2.54-1.52,4.41-4.15,5.11C227.57,102.24,228.3,104.24,229.05,106.62Z" transform="translate(-22.96 -61.11)"/><path class="cls-1" d="M188.16,140.16c.61-2.25,1.42-3.68,3.16-4.33.21-.43.72-.87,0-1.25-2.08-.64-2.47-2.61-3.38-4.46-.49,2.39-1.43,4.26-3.86,5.13C186.45,136,187.08,138,188.16,140.16Z" transform="translate(-22.96 -61.11)"/><path class="cls-1" d="M335,275.86c-.54-2.8-2.29-4.45-5-5.34,1.46-.78,3.08-1.16,3.83-2.72-2.87-5.67-6.19-11-11.18-15.07a44.84,44.84,0,0,0-27.14-10.28c-.62,0-1.24-.1-1.86-.15-4.77.3-9.53.51-14.21,1.7a118.12,118.12,0,0,0-14.69,4.5c-9.25,3.71-18.29,8-28.23,9.65-8.93,1.44-17.49,1-24.07-6.52l-1,2.41c-.66-3.18-1.92-5.69-5.65-6.68,1.79-.74,3.25-1.23,4-2.63-1.68-11.07,5.91-23.07,16.45-26a14.45,14.45,0,0,1,18.09,16.45c-.79,4.36-4,6.14-8.11,4.47a15.93,15.93,0,0,1-4.12-2.45c-1.12-.92-2.28-1.81-3.79-3a15.65,15.65,0,0,0,1.65,5.33c3.36,7.77,8.35,11,16.78,10.46,7.69-.46,14.07-3.92,19.69-9a30.35,30.35,0,0,0,10.37-25.09c-.38-6.82-3-13.16-6.79-18.93a54.46,54.46,0,0,0-27.75-22.08,61.23,61.23,0,0,0-23.53-1.58c-3.29.75-4.28,3.41-5.09,6.29-.67-1.53-.64-3.27-2-4.36l-1.5.3-6.31,2.67-1.71,1L198,181.5l-.08-.05a.89.89,0,0,1-1.05.63v0c-.19.83-.9,1.09-1.56,1.42l-2.94,2.57L186,193.18l-.45.52-5.91,10.81a.51.51,0,0,1-.14.39,20.37,20.37,0,0,1-1.92,4.83c-.08.36-.17.71-.26,1.06a8.43,8.43,0,0,1-1,3.21l-.21,1.09-.39,1.6c-.12.36-.23.73-.35,1.1-.58,4-1.38,8-1.69,12.09A53.53,53.53,0,0,0,176.46,252l.42,1.1.14.18-.15.14-.46.32c.18,1.31,2,1.24,2.16,2.53l5.32,7.52c1.09.89,2.21,1.74,3.27,2.67,10.26,8.92,22,13.48,35.73,12.06,1.55-.58,3.31,0,4.8-.92l1.13-.24,1.08-.15,5.31-1.73,1.11-.44a1,1,0,0,1,.48-.18c7.66-3.13,15.3-6.33,23.81-6.25a24,24,0,0,1,23.75,22,15.86,15.86,0,0,1-15.11,17.25c-5.88.31-11.29-1.29-16.49-3.75-4.82-2.29-9.55-4.78-14.32-7.18l-.57-.42,0,0a1.82,1.82,0,0,1-1.6-1.08,6.45,6.45,0,0,1-3.71-1.14l-1.62-.54-.81-.47-1.35-.13-.24,0-.25,0c-1.18.09-2.16-.56-3.23-.88-1-.06-2-.07-2.94-.19a32.29,32.29,0,0,0-22.07,5.54c-5.16,3.39-8.52,8.25-11.41,13.53.57,2.61,2.38,4,5.24,5.06-3.64,1.09-5.06,3.72-6,7.06a9.53,9.53,0,0,0-1.12-3.63,31.37,31.37,0,0,0,3.17,18.9c3.76,7.34,9.52,11.69,18,12.15,4.86.27,9.56-.6,14.28-1.49,5.23-1,10.43-2.28,15.81-2.2a37.37,37.37,0,0,1,19.6,2.48c10.67,4.52,14.65,14.65,9.9,25.25-1.83,4.09-4.68,7.54-6.9,11.38l.47.46c16.89-8.85,20.23-27.43,12.62-41.69-3.29-6.17-9.11-8.63-15.39-10.35-6.6-1.81-13.48-2.39-19.94-4.78a18.37,18.37,0,0,1-6.67-3.76c-2.75-2.66-4.4-5.62-2.59-9.51-2,.48-2.85,1.95-3.58,4.64-.55-2.56-1.31-4.08-3.65-4.76a6.25,6.25,0,0,0,3.66-4c.61,2,2.18,3,3.57,4.1,4.11-4.89,9.34-5.62,15.39-4.79,7.56,1,13.63,4.83,19.74,8.95,4.22,2.83,8.2,6.06,12.87,8.25a48.55,48.55,0,0,0,11.17,3.42,64.59,64.59,0,0,0,27.58-5.45A32.29,32.29,0,0,0,334.8,306c3.06-9.89,3.79-19.91,1.26-30.05C335.64,277.06,335.24,277.05,335,275.86Zm-86.69-84.29c.82,2.09,1.64,3.54,4.26,4.18a5.64,5.64,0,0,0-4.17,4.25c-.84-1.86-1.43-3.57-4.26-4.07A5.59,5.59,0,0,0,248.32,191.57Zm-60.41,29c-.52-2.72-1.61-4.5-4.42-5.27,2.82-.78,3.95-2.46,4.4-5.13.84,2.43,1.89,4.24,4.41,5.12C189.78,216.24,188.72,218,187.91,220.61Zm103.6,38c-.69-2.53-1.46-4.16-3.84-4.63,2-1,3.38-2,3.74-4.14a6.17,6.17,0,0,0,3.8,3.93A6.35,6.35,0,0,0,291.51,258.59Zm18.14,45.49c-.74-2.42-1.62-4.18-4.35-5,2.61-.91,3.81-2.48,4.27-5.51.81,2.82,1.77,4.56,4.69,5.39C311.52,300,310.49,301.57,309.65,304.08Z" transform="translate(-22.96 -61.11)"/><polygon class="cls-1" points="213.33 234.33 213.33 234.34 213.34 234.34 213.33 234.33"/><path class="cls-1" d="M282.93,201.13a.3.3,0,0,0,0-.08v.1Z" transform="translate(-22.96 -61.11)"/><path class="cls-1" d="M259.61,163.53c3.84,6.12,11.44,10.94,19.66,4.32a.86.86,0,0,0,.21-.29c2.24-2.63,4-5.5,4-9.1.07-4.51-2.39-6.6-6.81-5.68-1.74.36-3.41,1-5.36,1.54a6.1,6.1,0,0,1,3.74-5.34c4.81-2.13,11.34.2,13.86,4.85,3.05,5.63,2.49,10.19-1.87,14.93-1.15,1.24-2.35,2.43-3.53,3.65a1.75,1.75,0,0,1-1,1l-2.77,5.24-.48,1.79,0,.14-.13.1c-1.62,7.31.4,13.95,3.74,20.34l-.42-5.22c-.56-6.69-.52-13.26,4.43-18.63,2.69-2.9,6.06-4.95,9.32-7.13,6.82-4.54,10.91-10.58,9.68-19.09-1.2-8.22-5.06-14.79-12.89-18.47a10.59,10.59,0,0,0-.82,1.31,17.19,17.19,0,0,0-.6,1.88c-1-2.12-1.24-4.36-3.33-5.33l-1.08-.46,0,0c-3.61-.45-7.21-1-10.87-.62-4.76.51-9.17,1.93-12.81,5.18-5.67,5.06-7.45,11.66-7.32,19C256.94,157,257.68,160.44,259.61,163.53Z" transform="translate(-22.96 -61.11)"/><path class="cls-1" d="M177.38,285.56a9.36,9.36,0,0,1-3.92-4.59.89.89,0,0,1-.75-.91,15.34,15.34,0,0,1-1.32-4.93c-.17-.31-.27-.82-.51-.9-.56-.17-.35.41-.39.66-.31,1.75-.52,3.53-1.71,5a7.31,7.31,0,0,1-.76,2.21c-.92,1.21-1.35,3.15-3.52,2.83-.07.29-.15.57-.21.86-1.47,1.49-3.73,1.39-5.68,2.57,7,1,11.27,6.1,12,13.9,1.87-6.75,4.81-12.54,12.74-14.08l-4.89-1.84C177.82,286.83,177.82,286.83,177.38,285.56Z" transform="translate(-22.96 -61.11)"/><path class="cls-1" d="M226,149c5.25,1.47,8,4.54,8.7,9.34l-.43.71c1.09,1,1.32.51,1.57-.71a11.54,11.54,0,0,1,5-7.59c1.09-.73,2.68-.58,3.52-2-5.25-1.35-7.77-5-8.69-10.08-.05-.26.28-1.24-.7-.73l-.15,1.06C234.3,144.21,231.59,147.54,226,149Z" transform="translate(-22.96 -61.11)"/><path class="cls-1" d="M346.6,193.66c-.08-.34-.15-.68-.23-1-.17-.53-.33-1.06-.5-1.59-.33-1.08-.67-2.15-1-3.22-.15-.38-.3-.75-.44-1.13l-.53-1.06-3.23-5.16a30.2,30.2,0,0,0-7.1-5.61c-10.15-5.08-25.24-1.54-32.91,7.55-5,5.86-6.13,12.45-4.7,19.77.93,4.74,1.74,9.58.56,14.33-2,7.9-7.28,13.48-13.51,18.43,9.52-2.48,18.93-5.23,26.62-11.89h0l.92-1.1c.4-.52.81-1,1.22-1.55a22.25,22.25,0,0,0,2.71-8.55v-1.08c0-.71,0-1.42,0-2.13a16.93,16.93,0,0,1,.56-8.59l.9-2.15c.87-2.06,2.12-3.74,4.41-4.37v0A1.52,1.52,0,0,1,322,193l0,.08.61-.39a5.45,5.45,0,0,1,2.69-.07,1.93,1.93,0,0,1,1.65.42l1.13.58c2.81,2,3.3,4.3,1.58,7.58a2.06,2.06,0,0,1-1.07,1.61c-1.9,3-4.33,2.69-6.95,1.09,0,.33,0,.67,0,1a2.15,2.15,0,0,1,.24,1.64c.25,1,.5,2.1.76,3.15l1.95,2.73a.4.4,0,0,1,.25.27l2.69,1.68a21,21,0,0,0,6.77,1.05l1.16-.2,4.24-1.36.59-.36a21.61,21.61,0,0,0,4.38-4.27l.7-1.22A25.2,25.2,0,0,0,347,196.34,5.74,5.74,0,0,1,346.6,193.66Z" transform="translate(-22.96 -61.11)"/><path class="cls-1" d="M320.37,160.91c1.86-4.42,2.34-5,5.94-6.89-3.4-.89-5-3.31-5.91-6.4-.49,3.47-2.21,5.72-6.2,6.58C318.23,155,319.66,157.49,320.37,160.91Z" transform="translate(-22.96 -61.11)"/><path class="cls-1" d="M282.93,201.13l0,0,.27.37Z" transform="translate(-22.96 -61.11)"/><path class="cls-1" d="M248.36,361l-1.71-3.59a7.52,7.52,0,0,1-5.73,6.77c4,1,5.2,3.52,5.88,7.35.65-3.63,2.13-5.83,4.79-7.14C251.11,362.65,249,362.49,248.36,361Z" transform="translate(-22.96 -61.11)"/><path class="cls-1" d="M265.18,288a8,8,0,0,1-4.56-3.7,6.34,6.34,0,0,0-4.43,4.87c2.19,1,2.43,3.31,3.49,5.49A8.93,8.93,0,0,1,265.18,288Z" transform="translate(-22.96 -61.11)"/><path class="cls-1" d="M338.84,232.83a13.45,13.45,0,0,1-3.07-7.88l.05-.07-.82.23c.06,4-1.13,7.44-4.84,9.57l-2.17,1-2,.78c1.56.54,2.87.56,3.8,1.51,4.06,1.87,4.68,5.86,5.79,10,1-4.7,2.51-8.48,6.72-10.49C342.33,235.06,340.05,234.35,338.84,232.83Z" transform="translate(-22.96 -61.11)"/><path class="cls-1" d="M363.65,251.78c-.31,2.74-1.7,3.91-3.77,5,2.44.77,3.2,2.63,4.12,4.69.85-2.17,1.64-4,4.28-4.67C365.86,255.76,364.82,254.13,363.65,251.78Z" transform="translate(-22.96 -61.11)"/><path class="cls-2" d="M354.3,188.37c.56,3.25,1.9,5.92,5.27,7.13-.11,1-1.25.78-1.69,1.4a4.32,4.32,0,0,0-2.34,2.58c-.74.84-.73,2-1.23,3.2-.92-3.16-1.79-6.19-5.63-6.51l-.06-.64c.65-.12,1.38-.05,1.79-.75l.54-.5c1.09,0,1.59-.62,1.68-1.65a3.52,3.52,0,0,0,1.13-3.18C354.27,189.26,354.23,188.78,354.3,188.37Z" transform="translate(-22.96 -61.11)"/><path class="cls-3" d="M37.31,255.19c3.39-5.1,7.81-9.34,11.74-14,5.08-6,10.29-11.86,15.34-17.87,1.47-1.74,2.64-2.25,4.57-.61q28.55,24.21,57.2,48.33c1.14.95,1.73,1.92,1.15,3.37-1.37,3.85-4.56,6.36-7.1,9.3C114,291,107.74,298.35,101.33,305.5c-.79.89-1.45,2-2.8,2.09-1.32-.33-2-1.59-3.06-2.23-17.78-14.82-35.32-29.92-53.1-44.74C40.48,259.05,38.29,257.65,37.31,255.19Z" transform="translate(-22.96 -61.11)"/><path class="cls-4" d="M37.31,255.19c8,6.69,16,13.35,24,20.08Q78.74,290,96.1,304.83c.76,1.2,0,2.12-.68,2.93-1.89,2.26-3.5,4.77-5.61,6.83-3.25,3.17-6,6.59-6.93,11.18-6.18-4.4-11.73-9.55-17.47-14.48-4.45-3.82-9.1-7.4-13.51-11.28C46,294.85,40,289.89,34,284.85c-2.57-2.16-5.23-4.23-7.75-6.47-4.13-3.66-4.39-6.24-.59-10.2,3.52-3.68,6.54-7.76,9.91-11.54A15.31,15.31,0,0,1,37.31,255.19Z" transform="translate(-22.96 -61.11)"/><path class="cls-5" d="M98.53,307.25q13.34-15.4,26.69-30.8c.63-.72,1.39-1.34,2.09-2l6.62,5.69c.75,1.72-.66,2.62-1.51,3.6q-12.87,14.83-25.74,29.68c-1.55,1.31-2.52,3.23-4.37,4.24a1.92,1.92,0,0,1-1.58-.11c-1.69-1.06-2.92-.76-4.2.83s-2,2.82-.31,4.49a1.74,1.74,0,0,1,.27,1.86,7.89,7.89,0,0,1-2,2.55c-2.58,2.39-4.94,2.41-7.48.1s-2.91-4.78-.78-7.44c3.18-4,6.67-7.73,10.06-11.55A2.73,2.73,0,0,1,98.53,307.25Z" transform="translate(-22.96 -61.11)"/><path class="cls-3" d="M106,312.91q11.63-13.49,23.22-27c1.62-1.89,3.15-3.86,4.72-5.8.89-.35,1.9-1.07,2.59.11.6,1-.3,1.81-.93,2.54L108,314.43C106.65,314.81,106.12,314.13,106,312.91Z" transform="translate(-22.96 -61.11)"/><path class="cls-6" d="M98.53,307.25c-3.84,4.44-7.69,8.87-11.5,13.33-2.2,2.57-2,3.75.76,6.25,2.18,2,4.13,2.22,6.09-.24.74-.93,1.61-1.77,2.42-2.65,1.28-.17,2.13.17,2,1.68-.91,1.09-1.74,2.24-2.73,3.24-3.08,3.12-5.84,3.19-9.13.28-1.23-1.08-2.38-2.24-3.57-3.37-1.28-4,1.39-6.6,3.69-9.11a84.52,84.52,0,0,0,9.53-11.83A4.82,4.82,0,0,1,98.53,307.25Z" transform="translate(-22.96 -61.11)"/><path class="cls-7" d="M98.31,325.62a3.93,3.93,0,0,0-2-1.67,7.69,7.69,0,0,0-1.39-1.35c-1.84-1.06-1.81-2.18-.28-3.47a2.65,2.65,0,0,0,.64-.74c1.78-3.3,4-3.76,6.71-1.05,1.12.14,2.14.42,2.25,1.82,3,1.76,2.28,4.48,1.88,7.13-.2,1.38-.39,2.76-.65,4.57Z" transform="translate(-22.96 -61.11)"/><path class="cls-6" d="M104.23,319.16,102,317.34c1.34-1.48,2.68-2.95,4-4.43l2,1.52Z" transform="translate(-22.96 -61.11)"/><path class="cls-4" d="M116.82,151.42h0a5,5,0,0,0-3.93,3.85,47.61,47.61,0,0,0-1.81,12,11,11,0,0,0,3.88-3.79,7.82,7.82,0,0,0,6.71.48q1.1-6.15,2.17-12.3C121.51,151.36,119.2,150.2,116.82,151.42Z" transform="translate(-22.96 -61.11)"/><path class="cls-4" d="M107,213.23h0c-1.81.39-2.74,1.79-3.67,3.19a43.91,43.91,0,0,0-1.92,11.89c.87-1.93,2.54-2.92,4.35-3.75,2.14-.48,4.18.28,6.27.45q.91-5.85,1.82-11.69C111.57,212.87,109.3,212.17,107,213.23Z" transform="translate(-22.96 -61.11)"/><path class="cls-4" d="M114.35,167.53h0a6.6,6.6,0,0,0-3.81,3.34,36.76,36.76,0,0,0-1.72,10.46,7.28,7.28,0,0,1,4.87-4,18.65,18.65,0,0,1,5.76.59l1.62-10.26C118.84,167.33,116.61,166.66,114.35,167.53Z" transform="translate(-22.96 -61.11)"/><path class="cls-8" d="M123.84,151.66q25.51,4,51,8c1.72.27,2.2,1.12,1.94,2.78q-5.75,35.78-11.43,71.55a5.14,5.14,0,0,1-2.64,0q-23.69-3.76-47.37-7.52c-1.24-.2-2.54-.28-3.5-1.25a3.13,3.13,0,0,1-.4-2.36c.5-3.3.85-6.63,1.67-9.88.73-6.73,2-13.38,3-20.06.79-5.07,1.4-10.17,2.54-15.18a75.63,75.63,0,0,1,1.62-10.14,14.4,14.4,0,0,1,.6-3.75c.22-3.31.91-6.55,1.45-9.81A3.16,3.16,0,0,1,123.84,151.66Z" transform="translate(-22.96 -61.11)"/><path class="cls-1" d="M119.45,177.94c-8.41,49.08-1.16,30.33-16.32,37.83,2.13-12.26,3-24.05,6.31-36.38C111.3,176.44,117.19,175.26,119.45,177.94Z" transform="translate(-22.96 -61.11)"/><path class="cls-9" d="M112,225l50.45,8a4.75,4.75,0,0,1,2.9,1c-.08.55-.15,1.11-.23,1.66a2.27,2.27,0,0,1-2.67.76L109.38,228c-1.42-.23-2.81-.52-3.94.72a10.29,10.29,0,0,0-1.15,1.88,3.77,3.77,0,0,0,3,5.23,7.45,7.45,0,0,1,2.58.62c.88,1,2,.38,3,.32a15.65,15.65,0,0,1,3.33.55c1,.19,1.4,1.83,2.73.89,12.22,1.74,24.38,3.85,36.57,5.71,1.16,0,2.28.35,3.43.43.76.06,1.59.36,2.21-.42a1.33,1.33,0,0,1,.57-.28c1.06.47,1.28,1.57,1.83,2.43,0,1.51-.68,2-2.26,1.75-18.39-3-36.79-5.82-55.18-8.79-4.73-.77-6.74-5.63-4.63-10.74.23-2.87,2.52-3.57,4.65-4.47C108.18,223.54,110.28,223.41,112,225Z" transform="translate(-22.96 -61.11)"/><path class="cls-1" d="M111.08,167.27c1.62-3.88,5.89-4.56,10.59-3.31-.06,2.44-.69,3.31-1.32,3.63-1.12.55-2.24-.67-4.07-.57a6.09,6.09,0,0,0-4.1,2.52c-.57.52-1.28,1.05-1.61.84S110.57,168.47,111.08,167.27Z" transform="translate(-22.96 -61.11)"/><path class="cls-4" d="M163,235.89l2.19-.22q-.84,5.21-1.67,10.42c-1.1-.35-2-.8-1.74-2.24a1.25,1.25,0,0,1-.59-1.28,6.46,6.46,0,0,1,.17-1.45,11.15,11.15,0,0,1,.22-1.39,12.79,12.79,0,0,1,.22-1.38,5.48,5.48,0,0,1,.19-1.06A1.66,1.66,0,0,1,163,235.89Z" transform="translate(-22.96 -61.11)"/><path class="cls-1" d="M128.15,197.48c.75-4.79,1.49-9.57,2.28-14.35.43-2.65,1.35-3.33,3.95-2.93q11.72,1.83,23.4,3.72c3.23.53,3.86,1.43,3.35,4.75q-2.07,13.25-4.21,26.49c-.14.88-.41,1.73-.63,2.6a2.1,2.1,0,0,1-2.66,1.73l-25.83-4.1c-2-.32-2.23-1.68-2-3.34Q127,204.76,128.15,197.48Z" transform="translate(-22.96 -61.11)"/><path class="cls-1" d="M148.05,171.91c-4.42-.7-8.83-1.41-13.25-2.09-1.31-.2-2.48-.65-2.25-2.17s1.37-1.73,2.74-1.51q13.25,2.13,26.5,4.2c1.34.21,2.33.66,2.05,2.27s-1.51,1.57-2.76,1.37Z" transform="translate(-22.96 -61.11)"/><path class="cls-7" d="M111.14,230.8c2.48-.58,4.81.43,7.2.75,1,.12.66,1,.59,1.64-.22,1.83-.49,3.67-.73,5.5-1.33,1.62-1.17-.82-2-.71-1.21-1-2.51-1.52-4-.65-.7-.31-1.75,2.4-2.16-.26a2.23,2.23,0,0,1-.42-1.36,7.46,7.46,0,0,1,.18-1.42,10.89,10.89,0,0,1,.23-1.39,4.7,4.7,0,0,1,.32-1.38A1.26,1.26,0,0,1,111.14,230.8Z" transform="translate(-22.96 -61.11)"/><path class="cls-10" d="M112.23,237.33c2.26-1.73,2.26-1.73,4,.65Z" transform="translate(-22.96 -61.11)"/><path class="cls-5" d="M163,235.89l-54.7-8.72c-1.57-.25-3,.06-3.77,1.64h0c-2.62,3.66-1.21,7.15,3.18,7.86l2.4.4.21-1.42c.07-.44.15-.88.22-1.32h0l.2-1.34c.07-.44.15-.88.22-1.33h0c0-.14.08-.29.11-.43,1.36.26,2.74.33,4.09.56,2.92.51,2.9.52,2.59,3.41-.12,1.17-.8,2.49.49,3.49.88.13,1.77.24,2.65.38l35.1,5.5c1.31.23,2.64.42,4,.7s1.67-.22,1.64-1.37h0l.2-.06.09-1.37c.06-.45.12-.91.19-1.36s.15-.86.22-1.29.14-.91.2-1.36.08-.59.11-.89h0C162.69,237,162.82,236.45,163,235.89Z" transform="translate(-22.96 -61.11)"/><path class="cls-11" d="M425.9,412.13c-.26-.92-.53-1.85-.8-2.77-1.23.55-2.48.23-3.71.1l1.27.05A2.89,2.89,0,0,0,425,409a48.82,48.82,0,0,1-2.62-5.88c-1-3.4-4.22-5.32-5.5-8.54-.79-2-1.65-4-3.46-5.36a5,5,0,0,0-2.66-1c-11.16-1.21-22.17-3.34-33.2-5.3-6.1-1-12.12-2.41-18.19-3.58-12.22-2.36-24.5-4.1-37-4.12-2.92,0-5.85,0-8.79,0a58.54,58.54,0,0,0-9.53,1c-14.18,2-27.35,6.49-38.42,15.9-2.8,2.38-5.83,4.65-7.37,8.21,0,.8.61,1.16,1.21,1.46,4.93,2.43,8.31,6.38,10.88,11.12.46.85.88,1.75,2,2a10.75,10.75,0,0,0,4.51-.37c11.67-3,23.61-4.05,35.59-4.31a211.11,211.11,0,0,1,25.38,1.42c10.8,1.08,21.61,2.07,32.41,3,1.87,0,3.7.45,5.57.45q23.82,0,47.63,0c1,0,2.12.12,3-.72Z" transform="translate(-22.96 -61.11)"/><path class="cls-11" d="M229.82,377.33c-9.29-4.42-19.32-5.48-29.38-6.06a146.79,146.79,0,0,0-27.85,1.53c-16.43,2.21-32.51,6.21-48.71,9.56-10.44,2.16-20.93,4-31.46,5.74a9.55,9.55,0,0,0-4,1.14c-1.21,1-1.58,2.48-2.33,3.74-1.17,2-1.87,4.57-3.56,5.82-1.9,1.4-2.52,3.07-3.21,5-1,2.65-2,5.27-3,7.91.62.59,1.4.41,2.12.43l.9,0H77.76a2.66,2.66,0,0,0-1.91.46c-.14.59-.29,1.17-.44,1.75,1,1,2.37.75,3.6.74,12.33-.12,24.66.39,37-.45,6.81-.56,13.64-.9,20.46-1.31,7.2-.45,14.39-1,21.58-1.56,9.95-.71,19.89-1.29,29.85-1.61a184.3,184.3,0,0,1,18.5.85,83.27,83.27,0,0,1,19.75,3.43,5,5,0,0,0,2.27.19c1-.45,1.29-1.4,1.74-2.25,3.76-7.21,9.61-11.38,17.76-12.25,1.13-.13,2.42-.05,3.15-1.25a6,6,0,0,0-1-2.93A44.05,44.05,0,0,0,229.82,377.33Z" transform="translate(-22.96 -61.11)"/><path class="cls-12" d="M329.67,321.7a167,167,0,0,1,20.53-12.07c6.07-3.11,12.27-6,18.41-9l7.16-2.7c-1.42,5.1-2.75,9.85-4.07,14.61-.45,1.62-1.95,1.24-3,1.42q-10.65,1.88-21.16,4.37a171.47,171.47,0,0,0-17.76,5.13,3.18,3.18,0,0,1-1.93.43C327.66,322.54,329.34,322.67,329.67,321.7Z" transform="translate(-22.96 -61.11)"/><path class="cls-13" d="M329.67,321.7c.12,1.33-1.67,1.11-1.8,2.23a9.21,9.21,0,0,1-3.14,1.38C326,323.62,328,322.82,329.67,321.7Z" transform="translate(-22.96 -61.11)"/><path class="cls-8" d="M271.89,414.48a18.29,18.29,0,0,0,4.55-.49c26.19-.8,52.38-.15,78.57-.34q5.91,0,11.8.47a8.57,8.57,0,0,0,3.11-.12c17.54.85,35.09.22,52.64.41,1.26,0,2.53,0,3.79-.05,2.44.34,3.64,1.43,3.51,3.19s-1.44,2.69-3.93,2.69q-73.12,0-146.26,0c-.93,0-1.95-.33-2.79.42a14.5,14.5,0,0,1-5.09-.05c-1.37-.26-2.63-.78-2.49-2.57.14-.46.38-.81.93-.53,1.8.93,1.87,0,1.54-1.41C271.64,415.56,271.4,415,271.89,414.48Z" transform="translate(-22.96 -61.11)"/><path class="cls-8" d="M75.41,414.34c12.33,0,24.66.48,37-.33,1.25-.08,2.52,0,3.78,0,3.49.46,7-.08,10.46-.14,3.2-.07,6.4-.18,9.6-.19q42.36,0,84.72,0c1.93,0,3.81.57,5.74.35l1.7.48c.38.47.15,1,.07,1.46s-.48,1.42.3,1.74,1-.56,1.33-1.08.53-1.61,1.67-1.33a2.5,2.5,0,0,1,1,3.1,3.41,3.41,0,0,1-3.13,2.42c-2.2.22-4.44-.12-6.62.45-.52-1.35-1.69-.93-2.66-.93q-55.26,0-110.53,0H76.08c-1.2,0-2.41.08-3.3-1a2.8,2.8,0,0,1-.55-2.91C72.77,414.87,74,414.44,75.41,414.34Z" transform="translate(-22.96 -61.11)"/><path class="cls-7" d="M257.59,400.42l.91.18c6.34,2.81,10.35,7.89,13.39,13.88a11.75,11.75,0,0,0,.39,1.47c.4.94.62,1.9-.36,2.54-1.2.78-1.63-.37-2.21-1.07-2.35-7-6.43-12.64-13.8-14.58-10.26-2.7-20.55,1.88-24.65,12.4-.31.75-.61,1.49-.94,2.22s-.82,1.53-1.81,1.11a1.53,1.53,0,0,1-.79-2.05c.2-.7.45-1.39.68-2.09,2.51-5.48,6-10.05,11.6-12.76a27.59,27.59,0,0,1,10.79-2.42c.54.57,1.22.29,1.86.28l2.76.22Z" transform="translate(-22.96 -61.11)"/><path class="cls-14" d="M313.1,375.85a21.5,21.5,0,0,1,9.41,0Z" transform="translate(-22.96 -61.11)"/><path class="cls-7" d="M198.92,403.64l-.09-6.68c-.42-2.23.22-4.48-.2-6.71l-.09-1a1,1,0,0,1-.06-1.36l0-8.35a.81.81,0,0,1,.67-.26,76.54,76.54,0,0,1,20.48,2.58,6.35,6.35,0,0,1,2.48.94.62.62,0,0,1,.16.69l-.52,26.69-4.07-3a8.12,8.12,0,0,1-2.6-1.41c-.25-.16-.47-.35-.7-.53-5-3.9-3.12-3.7-8.49-.53a5.85,5.85,0,0,1-1.69.67c-1.83.41-3.14,1.82-5,2.6-.55-1-.12-2-.38-3A1.13,1.13,0,0,1,198.92,403.64Z" transform="translate(-22.96 -61.11)"/><path class="cls-4" d="M272.79,420.19c-1.64-.25-3.44-.3-3.08-2.77a1.76,1.76,0,0,0,0-1.9c-1.63-3.62-3.57-7-6.69-9.59a18.87,18.87,0,0,0-13.66-4.28c-7.91.42-13.61,4.17-17.51,10.88a2.87,2.87,0,0,0-.56,2.71c1,.81,1.64,1.8,1,3.06a3.1,3.1,0,0,1-3.17,1.91c-1.47-.09-2.94,0-4.41,0-.77,0-1.5,0-1.65,1,.49,2.2,2.06,3,4.1,3q22.78,0,45.57,0c2.28,0,3.81-1.08,4.15-3.48C275.62,419.71,274.15,420.39,272.79,420.19Z" transform="translate(-22.96 -61.11)"/><path class="cls-4" d="M347.9,411.91c-15.35-1.54-30.69-3.11-46.15-1.94a126.07,126.07,0,0,0-25.31,4c.62.63,1.41.37,2.12.37q44.38,0,88.77,0c.87,0,1.8.29,2.59-.36C362.58,413.31,355.23,412.65,347.9,411.91Z" transform="translate(-22.96 -61.11)"/><path class="cls-4" d="M226.7,414c-1.57-.47-3.11-1-4.7-1.4-11.78-2.71-23.77-3.26-35.77-3-23.4.56-46.69,3.1-70,4.41.69.67,1.56.38,2.35.38q53,0,106.07,0C225.31,414.36,226.11,414.63,226.7,414Z" transform="translate(-22.96 -61.11)"/><path class="cls-15" d="M199,379.46c.9-2.06,2.76-1.82,4.49-1.91a74.74,74.74,0,0,1,19.23,3.29c.57.87.63,1.64-.44,2.18a132.72,132.72,0,0,0-16-2.92,38.25,38.25,0,0,0-5.76-.13C199.8,380,199.26,380.18,199,379.46Z" transform="translate(-22.96 -61.11)"/><path class="cls-16" d="M375.44,388.91c-8.05-1.69-16.15-3.2-24.23-4.73a206.8,206.8,0,0,0-28-3.33,96,96,0,0,0-38.45,6.23,55.81,55.81,0,0,0-11,5.18c3.66-1.2,7.23-2.66,10.87-3.89a103.69,103.69,0,0,1,29.84-5.8c10.75-.37,21.35.9,31.94,2.6,14.28,2.29,28.46,5.08,42.69,7.65,2.72.5,5.4,1.38,8.24,1.1C390,392.24,382.75,390.46,375.44,388.91Z" transform="translate(-22.96 -61.11)"/><path class="cls-16" d="M273.66,400.48c25-10.54,50.84-10.64,77.08-6.47C324.39,388.59,298.44,387.79,273.66,400.48Z" transform="translate(-22.96 -61.11)"/><path class="cls-16" d="M282.31,405.39c20-6.29,40.36-5.51,60.78-2.85C322.62,398.81,302.25,397.35,282.31,405.39Z" transform="translate(-22.96 -61.11)"/><path class="cls-16" d="M201.27,377.23A210.09,210.09,0,0,0,179,378q-10.74,1.13-21.35,3.05c-8.55,1.53-16.92,3.82-25.4,5.67-4,.88-8,2-12,3.08a1.72,1.72,0,0,0,1.38.26c14.14-3.39,28.33-6.43,42.74-8.52a200,200,0,0,1,34.22-2l.43-.07c1.36-1,3.13-1,4.49-1.91A3.46,3.46,0,0,0,201.27,377.23Z" transform="translate(-22.96 -61.11)"/><path class="cls-16" d="M197,395.33a178.41,178.41,0,0,0-25.64.39c-7.16.5-14.31,1.35-21.41,2.51a134.31,134.31,0,0,0-14,2.56c20.91-2.65,41.78-5.57,63-3.83C198.88,394.72,198.2,395.42,197,395.33Z" transform="translate(-22.96 -61.11)"/><path class="cls-16" d="M144.48,407.08A357,357,0,0,1,198.89,405l0-1.39C180.67,403.26,162.48,403.66,144.48,407.08Z" transform="translate(-22.96 -61.11)"/><path class="cls-16" d="M198.54,389.24l-.06-1.36a6.19,6.19,0,0,0-2.63-.35,219.85,219.85,0,0,0-26.65,1.84c-5.16.61-10.29,1.48-15.44,2.23C168.66,390.13,183.51,388.13,198.54,389.24Z" transform="translate(-22.96 -61.11)"/><path class="cls-16" d="M222.67,380.84a3.27,3.27,0,0,1-.44,2.18c0,.15.05.31.08.46,8,1.92,14.69,6.3,20.78,11.7C238,387.92,230.88,383.61,222.67,380.84Z" transform="translate(-22.96 -61.11)"/><path class="cls-16" d="M214.33,405.18c-2.87-.65-5.72-1.51-8.71-.7a1.68,1.68,0,0,0-1.38.9l13.48,1.8-2.14-1.74C215.1,405.65,214.75,405.28,214.33,405.18Z" transform="translate(-22.96 -61.11)"/><path class="cls-5" d="M363.07,301.9c-4.58,1.35-11.57,3.51-20,6.51-28.26,10.09-48.49,17.55-65.43,34.95a98.3,98.3,0,0,0-15.42,20.81,258.35,258.35,0,0,0-5.1-43.26c-1.86-9-3.28-15.78-6.64-24.82a149,149,0,0,0-19.23-35.21c-4.21-5.81-8.56-11.51-13-17.16-1-1.32-2-1.91-3.71-.82-7.36,4.72-14.8,9.33-22.22,14-5.71,3.57-11.43,7.1-17.15,10.65,3.89,3.58,7.77,7.17,11.55,10.86,5.45,5.3,10.84,10.66,16,16.28,3.92,4.28,7.94,8.5,11.75,12.88A347.84,347.84,0,0,1,237.8,337c5.2,7.47,10.3,15,14.11,23.31a64.77,64.77,0,0,1,5.61,20.17c.06.54-.2,1.46.6,1.57,0,0,0,0,0,0v14.36l12-16.52c1,.08,1.34-.93,1.82-1.55q10.51-13.77,22.28-26.5a170.32,170.32,0,0,1,30.56-26.59l0,0c1.68-1.25,3.59-2.13,5.3-3.33a272,272,0,0,1,36.74-19.73c.23-.1.82-.43,1.64-.85,2.95-1.51,5.48-2.64,7.36-3.43C373,298.81,368.54,300.17,363.07,301.9Z" transform="translate(-22.96 -61.11)"/><path class="cls-5" d="M247.06,376.27a16.2,16.2,0,0,0-2.23-3.61l-1-.88a4.69,4.69,0,0,0-.33-.72,164.45,164.45,0,0,0-20.62-26.77,186.87,186.87,0,0,0-16.49-15.84c-8.3-6.92-17-13.35-25.84-19.48L173.42,304a1.22,1.22,0,0,1-.1.49,11.12,11.12,0,0,0-6.16-3.8,3.9,3.9,0,0,1-.71.84c-3.44,2.29-6.71,4.79-10,7.24a251.17,251.17,0,0,0-20.92,18c-6.78,6.28-13,13.07-19.41,19.78a2.12,2.12,0,0,0-.85,1.51,2.18,2.18,0,0,0,2,.86,57.73,57.73,0,0,1,6.44.6c8.6.6,17.18,1.42,25.77,2.21,9.62.9,19.22,1.89,28.81,3.12a271,271,0,0,1,38.11,7.25c8.66,2.41,17.05,5.38,24.24,11a58.28,58.28,0,0,1,4.71,4.45c.52.5,1.2,1.31,1.88.86C248,377.91,247.38,377,247.06,376.27Z" transform="translate(-22.96 -61.11)"/><path class="cls-5" d="M253.47,397.69a14.55,14.55,0,0,0-1.18-4.85,8.94,8.94,0,0,1-.79-1.46c-1.63-7.48-6-13.32-11.84-18.16-5.1-4.23-11.2-6.65-17.41-8.82-12.76-4.43-25.95-6.8-39.26-8.65-7-1-14-1.82-21-2.36-7.24-.56-14.46-1.38-21.69-2.09h0c-2.83-.08-5.63-.75-8.48-.5l0,0c0-.09-.08-.18-.14-.29-1.89-.71-3.89-.65-5.85-.94-1-.14-2-.46-2.93.33a1.72,1.72,0,0,1-.55,1.18c-6.23,6.33-12,13.05-17.92,19.68-5.41,6.07-10.9,12.09-16,18.44,8.48-.95,16.86-2.51,25.22-4.17,14.55-2.87,29-6.1,43.57-9.07a211.92,211.92,0,0,1,30.2-4.06,121.92,121.92,0,0,1,26,1.27c8.62,1.36,16.76,4,23.85,9.27,5.94,4.45,10.79,9.75,13.53,16.77.4,1,1.16.81,1.93.57A2,2,0,0,0,253.47,397.69Z" transform="translate(-22.96 -61.11)"/><path class="cls-5" d="M257.21,388.41c-.15-.65-.35-1.29-.5-1.94a60.33,60.33,0,0,0-5-24.55c-5-11.69-12.55-21.75-20-31.84-6.11-8.23-12.49-16.27-19.26-24-5.93-6.77-11.87-13.52-18.36-19.77h0a85.39,85.39,0,0,0-7-6.94l.1-.17c-1.65-2.76-4.21-4.56-6.76-6.37,0,0-.13.06-.2.09a2.89,2.89,0,0,1-1.24,1.23c-8.88,4.8-17,10.68-25.16,16.62a7.62,7.62,0,0,0,2.59,2.09c15.4,9.78,30.66,19.77,45.18,30.86a175.41,175.41,0,0,1,26,24.48A160.26,160.26,0,0,1,248,377.38c3.46,6.45,6.52,13.08,6.81,20.6,0,.77-.05,1.76,1.19,1.76.84-.46.8-1.33,1-2.11A36,36,0,0,0,257.21,388.41Z" transform="translate(-22.96 -61.11)"/><path class="cls-17" d="M412.31,387.06c-6.85-10.11-13.82-20.14-20.45-30.4a12.18,12.18,0,0,0-8-5.53c-8.84-2.19-17.73-4-26.73-5.39a138,138,0,0,0-15.6-2c-7.4-.28-14.84-.5-22.23.74a74,74,0,0,0-22.54,7.23c-.57.31-3.82,2.63-3.95,2.67-.53.51-1.12,1-1.6,1.54-4.08,4.82-8.24,9.59-12.19,14.52-4.87,6.09-9.65,12.26-13.91,18.8h0a73,73,0,0,0-7.51,11.17.67.67,0,0,0,.91.18,27.35,27.35,0,0,1,1.93-2.69,61.21,61.21,0,0,1,19.42-14.18c10.58-4.88,21.73-7.12,33.25-7.88a42.3,42.3,0,0,1,9.41,0c4.68,0,9.31.54,14,.82,9.41.58,18.56,2.76,27.81,4.27,4.45.72,8.76,2.19,13.28,2.53h0c1.88.75,3.9.79,5.85,1.16,9.93,1.88,19.91,3.5,30,4.6A5.41,5.41,0,0,0,412.31,387.06Z" transform="translate(-22.96 -61.11)"/><path class="cls-18" d="M215.58,405.44c-2.58.55-5-.68-7.55-.68a19.77,19.77,0,0,1-2.41-.28c1.12-1.24,2.74-1.72,4-2.71.82-.63,1.38,0,1.94.48C212.93,403.29,214.25,404.37,215.58,405.44Z" transform="translate(-22.96 -61.11)"/><path class="cls-19" d="M153.75,290.79c36.06,19.89,105.89,73.31,100.08,109.33-2.46-2.92-1.89-11.25-5.8-16C227.75,349.55,137.91,355,114.92,349c44.57,1.39,115.47,7.62,132.18,29.35C222.94,333.36,184.12,315.22,153.75,290.79Z" transform="translate(-22.96 -61.11)"/><path class="cls-13" d="M270.13,379.9c15.61-19.9,32.59-40.93,54.64-54.62-43.11,29.7-73.31,92.46-68.26,71,4.57-49.43-55.63-100.61-77.66-124.58-1.47-.79-5.92-6.32-1.34-2.9,40.05,38.74,84.95,85.65,81.12,124.28C257,400.57,266,381.61,270.13,379.9Z" transform="translate(-22.96 -61.11)"/><path class="cls-17" d="M355.65,149.41a7,7,0,0,1,3.35-4.26q18.22-10.22,36.38-20.55c1.25-.71,1.93-.6,2.54.61a9.36,9.36,0,0,1,2.46,3.12q14.31,25.44,28.69,50.84c.65,1.15,1.52,2.25,1.34,3.71-.37,1.21-1.46,1.64-2.42,2.19-11,6.28-22,12.45-33.08,18.66-2.54,1.43-4.91,2.85-5.33,6.08a1,1,0,0,1-.56.66c-1.42-.24-1.72-1.54-2.28-2.52-6.38-11.08-12.56-22.28-18.91-33.37q-5.26-9.2-10.42-18.46a16.11,16.11,0,0,1-1.84-4.05A3.07,3.07,0,0,1,355.65,149.41Z" transform="translate(-22.96 -61.11)"/><path class="cls-17" d="M346,152.64a11.14,11.14,0,0,1,3.37-1.87,2,2,0,0,1,1,1.1c6.21,11.39,12.73,22.61,19.06,33.93,4,7.09,8.1,14.08,12,21.23.58,1.07,1.13,2.12.61,3.38a4.85,4.85,0,0,1-2.18,1.85c-10.9,6.18-21.83,12.29-32.76,18.42-1.12.63-2.23,1.64-3.72.88-1.73-1.62-2.55-3.83-3.68-5.82q-13.64-24.12-27.25-48.27a6.8,6.8,0,0,1-1.26-3.53c-.16-.68-1-1.28.25-2,9.74-5.38,19.43-10.84,29.14-16.27.75.13,1.1.73,1.42,1.3q3.21,5.58,6.37,11.18a3.36,3.36,0,0,1,.59,2.32c-.43,1.06-1.44,1.46-2.34,2-6.65,3.83-13.36,7.54-20,11.4,6.53-3.55,13-7.24,19.46-10.9,1.08-.62,2.1-1.47,3.46-1.43a3.22,3.22,0,0,1,1.77,3.22c-1.25,2-3.46,2.74-5.37,3.79-5.67,3.09-11.2,6.45-16.87,9.55q8.89-4.83,17.7-9.84c1.66-.95,3.22-2.14,5.17-2.5a3.17,3.17,0,0,1,1.82,3.18c-.56,1.37-1.87,1.88-3,2.53-6.08,3.47-12.18,6.93-18.32,10.32a1.71,1.71,0,0,0-.76.65c6.48-3.62,12.8-7.29,19.21-10.8,1.15-.63,2.2-1.59,3.68-1.4a3.5,3.5,0,0,1,1.7,3.24c-.86,1.42-2.4,2-3.73,2.7-5.66,3.13-11.22,6.42-16.92,9.46a5.26,5.26,0,0,0-1.7,1.23c6.86-3.83,13.3-7.63,19.89-11.17,1-.52,1.86-1.27,3.07-1.21a3.09,3.09,0,0,1,1.74,3.2c-.68,1.37-2.07,1.87-3.28,2.56-6.31,3.6-12.66,7.14-19,10.8,6.81-3.67,13.48-7.56,20.22-11.33a4.39,4.39,0,0,1,2.66-1,3.33,3.33,0,0,1,1.84,3.18c-.36,1-1.25,1.44-2.08,1.92-6.76,3.9-13.63,7.59-20.34,11.57,6.21-3.28,12.26-6.83,18.39-10.25,1.47-.82,2.8-2,4.64-2,1,.84,2.37,1.32,3,2.64a3.32,3.32,0,0,1-1.79,1.59c-7.13,4-14.27,8-21.34,12.09,8.59-4.73,17.08-9.64,25.73-14.26a3.91,3.91,0,0,1,2-.06c-2.92-4.76-5.57-9.67-8.31-14.54q-7-12.43-14-24.85C346.4,154.8,345.64,153.88,346,152.64Z" transform="translate(-22.96 -61.11)"/><path class="cls-8" d="M311.21,173.94l21,37q5.71,10.09,11.4,20.19c1,1.46,2.21.76,3.33.17,3.82-2,7.54-4.22,11.31-6.34l21-11.87a9,9,0,0,1,7.06-1.11,4.61,4.61,0,0,0,5.37-3.2,7.37,7.37,0,0,1,3.88-4.89c10.69-6.06,21.42-12,32.09-18.15,1.18-.68,2.71-1.14,2.53-3q-13-23-25.92-46.06c-2.14-3.82-4.23-7.67-6.34-11.5,1.86-1.37,3-.88,4.12,1.14q15.63,28,31.42,55.91c1.36,2.4,1.28,2.69-1.22,4.1q-16.55,9.33-33.11,18.59c-1.66.92-2.62,1.79-2.24,3.93a4.51,4.51,0,0,1-2.47,4.87c-1.94,1.1-3.84,2.29-5.82,3.31s-4.74.49-6-1.11c-.85-1.1-1.44-.87-2.39-.34q-10,5.7-20,11.34c-4.86,2.74-9.8,5.37-14.61,8.21-2,1.17-2.94.78-4-1.16-4-7.24-8.11-14.4-12.18-21.6-6.38-11.28-12.7-22.59-19.16-33.82C309.06,176.5,309,175.11,311.21,173.94Z" transform="translate(-22.96 -61.11)"/><path class="cls-20" d="M381.66,210.29a3.41,3.41,0,0,0-.59-2.52c-5.23-9.41-10.7-18.67-15.84-28.13-4.5-8.29-9.36-16.38-14.05-24.56a16,16,0,0,1-1.8-4.31c1.38-1,2.87-.62,4.35-.31,1.21-.53,1.57.62,2.25,1.13,2.76,5.51,5.91,10.79,8.91,16.16,3.25,5.82,6.59,11.6,9.81,17.44,4.25,7.71,8.65,15.34,13,23,.44.77.92,1.51,1.38,2.27.29.82-.43.65-.67.53a8.38,8.38,0,0,0-6.16-.45C382,210.59,381.82,210.43,381.66,210.29Z" transform="translate(-22.96 -61.11)"/><path class="cls-8" d="M356,151.59c-1,.18-1.44-.87-2.25-1.13.4-.78,1.26-.73,1.92-1.05Z" transform="translate(-22.96 -61.11)"/><path class="cls-20" d="M381.66,210.29c2.46-1.25,4.87-1.4,7.16.41a.2.2,0,0,0,.18,0c.05,0,.05-.13.07-.2-.16-3.12,1.32-5.06,4-6.57,11.86-6.57,23.64-13.29,35.44-20a16.54,16.54,0,0,0,1.63-1.15c1.43,1.53.43,2.22-.91,3-11.29,6.35-22.55,12.75-33.85,19.07a5.66,5.66,0,0,0-3.08,4.36c-.35,2.28-4.07,4.42-6.18,3.59a6.14,6.14,0,0,0-5.57.43c-11.21,6.34-22.47,12.59-33.63,19-1.84,1.05-2.74,1-3.35-1,.72.58,1.28,0,1.81-.32q17.86-10,35.72-20.13A5,5,0,0,0,381.66,210.29Z" transform="translate(-22.96 -61.11)"/><path class="cls-20" d="M342.65,162.62c.49.75,1.33,1.51-.22,2.37q-10.26,5.67-20.46,11.45c-.87.49-1.43.55-2-.44s-.08-1.51.7-2q10.11-5.72,20.22-11.42C341.4,162.34,342,162,342.65,162.62Z" transform="translate(-22.96 -61.11)"/><path class="cls-20" d="M375.88,201.05c.67,1.13-.23,1.4-.93,1.8l-12,6.83c-5.51,3.1-11,6.21-16.54,9.27-.54.3-1.24,1.29-1.85.17s.59-1.23,1.12-1.53q14.06-8,28.17-15.92A2.65,2.65,0,0,1,375.88,201.05Z" transform="translate(-22.96 -61.11)"/><path class="cls-20" d="M342.2,213.92c2.47-1.44,4.76-2.82,7.09-4.13q11.26-6.31,22.57-12.59c.52-.29,1.08-1.1,1.67-.18s-.33,1.16-.84,1.45q-12.6,7.16-25.22,14.25c-1.36.77-2.72,1.54-4.09,2.28-.37.2-.82.48-1.18,0S341.92,214.15,342.2,213.92Z" transform="translate(-22.96 -61.11)"/><path class="cls-20" d="M378.38,205.42c.7,1.24-.39,1.43-1,1.79-3.75,2.14-7.53,4.24-11.29,6.35q-8.47,4.77-16.95,9.51c-.6.32-1.38,1.21-1.92.33-.63-1,.58-1.34,1.22-1.7q14.1-8,28.23-15.88C377.14,205.55,377.66,204.79,378.38,205.42Z" transform="translate(-22.96 -61.11)"/><path class="cls-20" d="M364.64,195.51a5.62,5.62,0,0,1,2.79.17Q354.52,203,341.6,210.3c-.53.3-1.28,1-1.75.16s.48-1.21,1.09-1.55Z" transform="translate(-22.96 -61.11)"/><path class="cls-20" d="M360.8,191.91l.93,1.51-21.24,11.84c-.58.33-1.18.64-1.77,1s-1,.88-1.5,0,.21-1,.71-1.31l9.13-5.17Q353.93,195.86,360.8,191.91Z" transform="translate(-22.96 -61.11)"/><path class="cls-20" d="M348.74,170.52l.75,1.3q-11.33,6.45-22.67,12.88c-.55.32-1.12,1-1.66.08s.29-1.13.86-1.45Z" transform="translate(-22.96 -61.11)"/><path class="cls-20" d="M356,183.44l.78,1.3-22.54,12.72c-.57.32-1.26.88-1.74.09s.42-1.11,1-1.41Q344.75,189.78,356,183.44Z" transform="translate(-22.96 -61.11)"/><path class="cls-20" d="M351.12,174.74l.72,1.32q-9.07,5.2-18.15,10.41c-1.48.85-3,1.66-4.49,2.46-.53.29-1.12,1.07-1.67.11s.43-1.16.92-1.44c4.58-2.62,9.18-5.19,13.77-7.79C345.19,178.13,348.15,176.43,351.12,174.74Z" transform="translate(-22.96 -61.11)"/><path class="cls-20" d="M353.5,179c.3.51.61,1,.92,1.53L332.08,193c-.6.33-1.35,1.16-1.9.26s.5-1.21,1.11-1.56l21.28-12.11C352.89,179.4,353.19,179.18,353.5,179Z" transform="translate(-22.96 -61.11)"/><path class="cls-20" d="M358.42,187.68c.25.43.5.86.76,1.29l-22.84,13c-.5.29-1,.84-1.48,0-.57-1.09.56-1.26,1.08-1.56,6.32-3.61,12.67-7.17,19-10.75C356.11,189,357.26,188.35,358.42,187.68Z" transform="translate(-22.96 -61.11)"/><path class="cls-20" d="M322.75,179.56c.82-.5,1.64-1,2.48-1.49,6.08-3.43,12.15-6.86,18.26-10.23.51-.28,1.24-1.36,1.82-.26.45.84-.46,1.27-1.1,1.63q-10,5.63-20,11.21c-.42.24-.92,1-1.53.26C322.37,180.33,322.21,179.88,322.75,179.56Z" transform="translate(-22.96 -61.11)"/><path class="cls-7" d="M346,152.64l24.21,42.83a6.92,6.92,0,0,1-8.34-1.72q-3.81-5.94-7.59-12.37c-5.18-8.84-9.71-17.44-13.69-25.68A31,31,0,0,1,346,152.64Z" transform="translate(-22.96 -61.11)"/><path class="cls-8" d="M475.69,249.05q-12.82-10.49-25.62-21h0c-4.27-3.69-8.59-7.3-13.15-10.63-1.43-.65-1.81.69-2.37,1.4-5.85,7.3-11.66,14.65-17.47,22-8.38,10.6-16.63,21.3-25.15,31.78-.82,1-1.79,2-1.65,3.49a2.3,2.3,0,0,0,.63,1.14q5.34,4.69,11,9a1.9,1.9,0,0,0,1.65.45,4.93,4.93,0,0,0,2.08,2.75q12.33,10,24.74,19.95c.68.55,1.31,1.24,2.32,1q21.72-29,43.45-57.94C477.21,251,476.94,250.06,475.69,249.05Zm-29.75,31.37c-2.49,3.1-4.75,6.38-7.07,9.62-2,2.83-2.3,2.87-4.95.76-5.47-4.35-10.88-8.78-16.33-13.15-1.27-1-2.46-2.22-4.11-2.66,0-.93-.94-1.37-1.54-1.94-1.81-1.68-3.82-3.13-5.72-4.7-1.46-1.2-1.66-2.28-.37-3.75,2.15-2.46,4-5.15,6.08-7.67,4.09-5,4.06-4.93,9.14-.84,1.26,1,2.28,2.62,4.22,2.47.12,1.49,1.35,2.2,2.36,3,5.91,4.8,11.75,9.67,17.67,14.44C447,277.4,447.41,278.58,445.94,280.42Z" transform="translate(-22.96 -61.11)"/><path class="cls-4" d="M434.23,215.21a14.8,14.8,0,0,0-1.13-1.11c-4.84-4-7.07-3.75-10.94,1.15q-7.87,10-15.74,20Q392.74,252.58,379.09,270a.77.77,0,0,0,.74.87c2.64,0,4.71,1.48,7,2.45a2.75,2.75,0,0,0,.5,0c1,1,2.33,1.64,3.29,2.69q8.22-10.5,16.46-21,6.36-8.08,12.75-16.16,8.54-10.73,17.11-21.41A8,8,0,0,0,434.23,215.21Z" transform="translate(-22.96 -61.11)"/><path class="cls-17" d="M383.22,273.49a2.42,2.42,0,0,0-3.66.16,4.33,4.33,0,0,0-.68.14c-3.74,2.46-4,5.22-.72,8.09,2.59,2.27,5.36,4.32,8,6.5q17.15,14,34.36,27.92c1.12.9,2.15,2.2,3.91,1.81,1.26-1.66,2.51-3.32,3.77-5l1.51-1.78Q406.5,292.4,383.22,273.49Z" transform="translate(-22.96 -61.11)"/><path class="cls-7" d="M413.42,275.58c-2.9-2.41-5.75-4.87-8.7-7.22-1.27-1-1.58-1.91-.47-3.26,3.33-4.09,6.65-8.19,9.85-12.38,1.29-1.69,2.3-1.69,3.84-.32,2.43,2.15,5,4.1,7.58,6.13,7.2,6,14.34,12,21.64,17.81,1.54,1.23,1.43,2,.41,3.37-3.18,4.22-6.38,8.45-9.4,12.79-1.17,1.69-1.92,1.35-3.27.26C427.78,287,420.59,281.3,413.42,275.58Z" transform="translate(-22.96 -61.11)"/><path class="cls-8" d="M391,294.79c-4.23-4.18-17.36-12.1-17-16.7,1-4.64,5.21-10.3,10.51-7,7.68,4.91,13.49,11.23,21.13,17,8.58,8.36,20.39,14.43,26.68,23-4,3.15-13.22-8.65-16.37-10-10.18-8.18-19.85-16.06-30-24.29-1.84-1.31-3.41-3.73-6-2.82-8.1,4.83,1.38,8.69,5.26,12.47,13.36,11.62,27.94,21.18,40,33.28C425.72,325.82,390.35,295.49,391,294.79Z" transform="translate(-22.96 -61.11)"/><path class="cls-7" d="M192.86,130.12l5.13,9.19a2.71,2.71,0,0,1,.39,2c-.53,3,.88,4.83,3.12,6.62,3.06,2.46,6,3,9.32.74,4.94-.37,9.62,1.16,14.38,2q21.23,3.84,42.45,7.7,11.81,2.16,23.62,4.28a6.93,6.93,0,0,1,3.13,1c1.29.28,2.57.63,3.87.83s2.28.7,2,2.12-1.43,1.22-2.5,1l-19.51-3.48Q246.86,158.63,215.5,153a6.73,6.73,0,0,0-4.95.57c-6.33,3.67-17.85-4.54-16.47-11.76a5,5,0,0,0-1.2-4.77,11.35,11.35,0,0,1-4.55-8.53l-36-64.14c-.55-1-1.24-2.16,0-3,1.43-.89,2.16.27,2.78,1.42s1.44,2.43,2.16,3.65a5.67,5.67,0,0,1,2.43,2.6c9.41,16.91,19,33.71,28.3,50.69.89,2.4,2.58,4.36,3.69,6.63C192.28,127.59,193,128.71,192.86,130.12Z" transform="translate(-22.96 -61.11)"/><path class="cls-8" d="M188.33,128.51q2.26,4.28,4.55,8.53l-9.8,13.77c-1.26-1.79-.08-4.3-1.6-4.95-1.37-.58-3.31.16-5.78.4Z" transform="translate(-22.96 -61.11)"/><path class="cls-5" d="M168.63,70.07a3.15,3.15,0,0,0-1.87-1.43c-3.17-.68-6.32-1.43-9.48-2.15q15.14,27.08,30.26,54.15c4.07.26,7-1.76,9.62-4.59C189.52,99.57,179.61,84.49,168.63,70.07Z" transform="translate(-22.96 -61.11)"/><path class="cls-5" d="M293.3,162h0c-2.07-4.7-5.08-7.91-10.65-8.71-5.2-.74-10.24-2.54-15.38-3.76-16.32-3.89-32.64-7.83-49.44-9.08-.67-.05-1.49.3-2.33-.64A96.41,96.41,0,0,1,238,141.1a361.46,361.46,0,0,1,48.36,11.33c.84.25,2.08,1.21,2.57-.32.36-1.16-.89-1.11-1.61-1.32-20.11-5.91-40.33-11.31-61.33-13-.55,0-1.43.39-1.69-.79,1-.12,1.86-.25,2.76-.33,14-1.2,27.84.18,41.65,2.13,6.14.86,12.23,2.06,18.35,3.07.71.12,1.74.66,1.93-.65.16-1-.82-1-1.44-1.18a8.93,8.93,0,0,0-.9-.17c-16.5-3.17-33.08-5.63-49.94-5.54-3.69,0-7.37.22-11.05.33a4.67,4.67,0,0,1,2.2-1c11.75-2.25,23.63-2.77,35.55-2.6,7.42.1,14.83.59,22.25.85.68,0,1.77.64,2-.65.25-1.63-1.11-1.1-1.87-1.19-1.71-.2-3.44-.31-5.16-.4-18.32-.95-36.62-1.26-54.72,2.43-3.4.7-6.72,1.78-10.75,2.87a149.86,149.86,0,0,1,17.25-12.09,337.57,337.57,0,0,1,41.93-21.09c.83-.35,2.41-.46,1.77-1.9-.54-1.23-1.6-.21-2.35.1-8.19,3.34-16.21,7.08-24.1,11.09-13.62,6.93-26.84,14.51-38.74,25,1.24-4,2.52-7.42,3.37-10.94,4.67-19.29,4.81-38.88,3.67-58.54-.07-1.22-.18-2.44-.28-3.65,0-.51-.07-1.09-.76-1.09s-1.18.34-1.14,1.12c0,.61.09,1.22.13,1.83,1,16.07,1,32.11-1.24,48.1-.25,1.81-.58,3.61-.91,5.41s-.66,3.34-1,5c.82-20-1.22-39.71-4.41-59.31-.16-1,.4-3-1.43-2.74-1.6.24-.5,1.87-.38,2.81.82,6.77,1.92,13.5,2.6,20.28,1.53,15.09,2.68,30.2.25,45.32-.34,2.09-.56,4.26-1.92,6.36-1-4.38-1.77-8.47-2.87-12.47-5.47-19.88-13.64-38.73-22.17-57.43-.39-.85-.41-2.78-1.94-2.09s0,1.94.26,2.88A27.78,27.78,0,0,0,182.12,70c7,15.69,13.72,31.53,18.86,48,1.34,4.29,2.64,8.61,2.82,13.22-.84-2-1.69-4-2.54-6-3.58.5-6.74,1.72-8.64,5.08A20.68,20.68,0,0,0,197.8,140c4.12,2.18,8.36,4.18,11.66,7.61a2.7,2.7,0,0,0,.49.23c0,.68.73,1,1.34,1.36q23.1,4.06,46.21,8.14,18.45,3.24,36.9,6.41Z" transform="translate(-22.96 -61.11)"/><path class="cls-8" d="M187.54,120.64a84.78,84.78,0,0,0,9.62-4.59,31.11,31.11,0,0,1,4.1,9.1c-2.77,1.7-5.89,2.83-8.4,5A90.81,90.81,0,0,1,187.54,120.64Z" transform="translate(-22.96 -61.11)"/><path class="cls-8" d="M210.16,147.07l1.13,2.12c-3.15,2.58-5.66,2.78-8.73.71-5.44-3.67-6.17-5.35-4.57-10.59A27.81,27.81,0,0,1,210.16,147.07Z" transform="translate(-22.96 -61.11)"/></svg>