<svg id="Layer_1" data-name="Layer 1" xmlns="http://www.w3.org/2000/svg" xmlns:xlink="http://www.w3.org/1999/xlink" viewBox="0 0 864.5 864.5"><defs><style>.cls-1{fill:url(#linear-gradient);}.cls-2{fill:url(#Steel);}.cls-3{fill:url(#Steel-2);}.cls-4{fill:url(#linear-gradient-2);}.cls-5{fill:url(#Blue_Steel);}.cls-6{fill:url(#radial-gradient);}.cls-7{fill:url(#linear-gradient-3);}.cls-8{fill:red;}.cls-9{fill:#545454;}.cls-10{fill:#ff5454;}.cls-11{fill:#9c9c9c;}</style><linearGradient id="linear-gradient" x1="283.33" y1="881.46" x2="850.53" y2="228.98" gradientUnits="userSpaceOnUse"><stop offset="0" stop-color="#e0dfe5"/><stop offset="0" stop-color="#d7d7d6"/><stop offset="0" stop-color="#d4d4d1"/><stop offset="0.07" stop-color="#eeeeed"/><stop offset="0.11" stop-color="#fff"/><stop offset="0.13" stop-color="#f6f6f5"/><stop offset="0.17" stop-color="#dddcdb"/><stop offset="0.22" stop-color="#b4b4b1"/><stop offset="0.25" stop-color="#9c9b97"/><stop offset="0.27" stop-color="#9e9d9a"/><stop offset="0.29" stop-color="#a7a6a2"/><stop offset="0.3" stop-color="#b4b4b0"/><stop offset="0.31" stop-color="#c8c8c4"/><stop offset="0.31" stop-color="#d4d4d1"/><stop offset="0.36" stop-color="#cacac7"/><stop offset="0.45" stop-color="#b0b0ad"/><stop offset="0.55" stop-color="#868683"/><stop offset="0.65" stop-color="#5b5b58"/><stop offset="0.68" stop-color="#656561"/><stop offset="0.73" stop-color="#7f7f7a"/><stop offset="0.74" stop-color="#858580"/><stop offset="0.76" stop-color="#a6a6a2"/><stop offset="0.78" stop-color="#c6c6c3"/><stop offset="0.81" stop-color="#dfdfde"/><stop offset="0.83" stop-color="#f1f1f0"/><stop offset="0.86" stop-color="#fbfbfb"/><stop offset="0.88" stop-color="#fff"/><stop offset="0.9" stop-color="#ececea"/><stop offset="0.92" stop-color="#d3d3d0"/><stop offset="0.95" stop-color="#c2c2be"/><stop offset="0.97" stop-color="#b7b7b3"/><stop offset="1" stop-color="#b4b4af"/></linearGradient><linearGradient id="Steel" x1="266.44" y1="855.71" x2="867.42" y2="254.72" gradientUnits="userSpaceOnUse"><stop offset="0" stop-color="#e5e1df"/><stop offset="0" stop-color="#dddad6"/><stop offset="0.04" stop-color="#ceccc9"/><stop offset="0.11" stop-color="#a7a9a8"/><stop offset="0.21" stop-color="#697072"/><stop offset="0.26" stop-color="#465054"/><stop offset="0.37" stop-color="#868c8f"/><stop offset="0.46" stop-color="#b6b9bb"/><stop offset="0.53" stop-color="#d4d5d6"/><stop offset="0.57" stop-color="#dfdfe0"/><stop offset="0.63" stop-color="#d5d6d8"/><stop offset="0.73" stop-color="#bbbec1"/><stop offset="0.86" stop-color="#91979d"/><stop offset="0.88" stop-color="#8b9298"/><stop offset="1" stop-color="#d1d3d4"/><stop offset="1" stop-color="#a7a9ac"/></linearGradient><linearGradient id="Steel-2" x1="273.51" y1="848.64" x2="860.35" y2="261.79" xlink:href="#Steel"/><linearGradient id="linear-gradient-2" x1="168.39" y1="953.76" x2="998.18" y2="123.97" gradientUnits="userSpaceOnUse"><stop offset="0" stop-color="#282882"/><stop offset="0.04" stop-color="#2a2c85"/><stop offset="0.08" stop-color="#2f398d"/><stop offset="0.11" stop-color="#384e9a"/><stop offset="0.15" stop-color="#446bac"/><stop offset="0.19" stop-color="#5089bf"/><stop offset="0.23" stop-color="#3a5c99"/><stop offset="0.27" stop-color="#273478"/><stop offset="0.3" stop-color="#191860"/><stop offset="0.33" stop-color="#100651"/><stop offset="0.36" stop-color="#0d004c"/><stop offset="0.54" stop-color="#628ec1"/><stop offset="0.75" stop-color="#272b6f"/><stop offset="0.86" stop-color="#4b7eb8"/><stop offset="0.99" stop-color="#364a98"/></linearGradient><linearGradient id="Blue_Steel" x1="193.46" y1="555.22" x2="940.4" y2="555.22" gradientUnits="userSpaceOnUse"><stop offset="0.01" stop-color="#7da7d8"/><stop offset="0.07" stop-color="#35517c"/><stop offset="0.5" stop-color="#dee6f5"/><stop offset="0.62" stop-color="#bacdea"/><stop offset="0.67" stop-color="#b6cbe9"/><stop offset="0.71" stop-color="#aac3e6"/><stop offset="0.76" stop-color="#96b7e0"/><stop offset="0.81" stop-color="#7aa6d8"/><stop offset="0.81" stop-color="#7aa6d8"/><stop offset="1" stop-color="#174d6b"/></linearGradient><radialGradient id="radial-gradient" cx="589.2" cy="794.22" r="643" gradientTransform="matrix(0.67, 0.67, -0.67, 0.67, 523.92, -203.95)" gradientUnits="userSpaceOnUse"><stop offset="0" stop-color="#fff"/><stop offset="0.21" stop-color="#fff"/><stop offset="0.45" stop-color="#e6e6e6"/><stop offset="0.71" stop-color="#ccc"/><stop offset="1" stop-color="#b3b3b3"/></radialGradient><linearGradient id="linear-gradient-3" x1="568.97" y1="220.29" x2="568.97" y2="605.19" gradientUnits="userSpaceOnUse"><stop offset="0" stop-color="#fff"/><stop offset="0.31" stop-color="#f7f7f7"/><stop offset="0.7" stop-color="#e6e6e6"/><stop offset="1" stop-color="#e6e6e6"/></linearGradient></defs><path class="cls-1" d="M566.93,987.47c-115.46,0-224-45-305.65-126.6s-126.6-190.19-126.6-305.66,45-224,126.6-305.64S451.47,123,566.93,123s224,44.95,305.64,126.6S999.18,439.76,999.18,555.21s-45,224-126.61,305.66-190.18,126.6-305.64,126.6Z" transform="translate(-134.68 -122.97)"/><path class="cls-2" d="M566.93,980.18a423.68,423.68,0,1,1,165.41-33.4,422.36,422.36,0,0,1-165.41,33.4Z" transform="translate(-134.68 -122.97)"/><path class="cls-3" d="M981.89,555.21c0,229.18-185.79,415-415,415s-415-185.79-415-415,185.78-414.95,415-414.95S981.89,326,981.89,555.21Z" transform="translate(-134.68 -122.97)"/><path class="cls-4" d="M981.89,555.21c0,229.18-185.79,415-415,415s-415-185.79-415-415,185.78-414.95,415-414.95S981.89,326,981.89,555.21Z" transform="translate(-134.68 -122.97)"/><path class="cls-5" d="M566.93,928.68c-205.93,0-373.47-167.54-373.47-373.47S361,181.75,566.93,181.75,940.4,349.29,940.4,555.21,772.86,928.68,566.93,928.68Z" transform="translate(-134.68 -122.97)"/><circle class="cls-6" cx="566.24" cy="554.8" r="354.73" transform="translate(-361.13 439.93) rotate(-45)"/><path class="cls-7" d="M844,412.74C844,519,720.86,605.19,569,605.19S294,519,294,412.74,417.09,220.29,569,220.29,844,306.45,844,412.74Z" transform="translate(-134.68 -122.97)"/><path d="M545.26,563a20.85,20.85,0,1,0,20.84-20.85A20.84,20.84,0,0,0,545.26,563Z" transform="translate(-134.68 -122.97)"/><path d="M566.8,307.13Q573,435.05,579.2,563H554.4Q560.6,435.05,566.8,307.13Z" transform="translate(-134.68 -122.97)"/><path d="M677.93,759.39q-61-93.24-122-186.49l21.48-12.4Z" transform="translate(-134.68 -122.97)"/><path class="cls-8" d="M553.6,563a12.51,12.51,0,1,0,12.5-12.51A12.5,12.5,0,0,0,553.6,563Z" transform="translate(-134.68 -122.97)"/><polygon class="cls-8" points="429.45 439.36 431.06 441.65 217.77 593.11 216.15 590.82 429.45 439.36"/><path d="M562.41,583.45c-.32-.05-.63-.11-.95-.19C561.78,583.34,562.09,583.4,562.41,583.45Z" transform="translate(-134.68 -122.97)"/><path d="M546.94,571.12l-.09-.22Z" transform="translate(-134.68 -122.97)"/><path d="M579.36,546.87l.06,0Z" transform="translate(-134.68 -122.97)"/><path d="M554.35,545.76l.34-.22Z" transform="translate(-134.68 -122.97)"/><path d="M583.4,551.3v0Z" transform="translate(-134.68 -122.97)"/><path d="M582.1,549.6a2.75,2.75,0,0,1,.22.26A2.75,2.75,0,0,0,582.1,549.6Z" transform="translate(-134.68 -122.97)"/><path d="M552.67,547.05l.3-.26Z" transform="translate(-134.68 -122.97)"/><path d="M580.7,548.08l.24.23Z" transform="translate(-134.68 -122.97)"/><path d="M547.69,553.25c.06-.13.13-.25.2-.38C547.82,553,547.75,553.12,547.69,553.25Z" transform="translate(-134.68 -122.97)"/><path d="M551.31,548.31l.26-.26Z" transform="translate(-134.68 -122.97)"/><path d="M546.9,554.9l.1-.22Z" transform="translate(-134.68 -122.97)"/><path d="M549.89,549.91a3.92,3.92,0,0,1,.25-.32A3.92,3.92,0,0,0,549.89,549.91Z" transform="translate(-134.68 -122.97)"/><path d="M546.16,557l.12-.41Z" transform="translate(-134.68 -122.97)"/><path d="M548.79,551.38l.18-.25Z" transform="translate(-134.68 -122.97)"/><path d="M586.54,567.09a.28.28,0,0,1,0,.09A.28.28,0,0,0,586.54,567.09Z" transform="translate(-134.68 -122.97)"/><path d="M586.07,569c0,.15-.09.3-.13.44C586,569.25,586,569.1,586.07,569Z" transform="translate(-134.68 -122.97)"/><path d="M584.53,572.72c-.07.13-.15.26-.22.4C584.38,573,584.46,572.85,584.53,572.72Z" transform="translate(-134.68 -122.97)"/><path d="M586.86,564.86c0,.16,0,.32-.05.47C586.83,565.18,586.85,565,586.86,564.86Z" transform="translate(-134.68 -122.97)"/><path d="M560.44,583l-.92-.28Z" transform="translate(-134.68 -122.97)"/><path d="M585.26,554.72l.13.31Z" transform="translate(-134.68 -122.97)"/><path d="M586,556.76v0Z" transform="translate(-134.68 -122.97)"/><path d="M584.34,552.85l.16.29Z" transform="translate(-134.68 -122.97)"/><path d="M586.48,558.56c0,.11,0,.22.07.33C586.53,558.78,586.51,558.67,586.48,558.56Z" transform="translate(-134.68 -122.97)"/><path d="M586.83,560.69l0,.35Z" transform="translate(-134.68 -122.97)"/><path d="M585.37,571l-.06.16Z" transform="translate(-134.68 -122.97)"/><path d="M547.93,573.13c-.07-.14-.15-.27-.22-.4C547.78,572.86,547.86,573,547.93,573.13Z" transform="translate(-134.68 -122.97)"/><path d="M556.72,581.55l-.83-.44Z" transform="translate(-134.68 -122.97)"/><path d="M546.31,569.4l-.15-.44Z" transform="translate(-134.68 -122.97)"/><path d="M558.54,582.36c-.3-.11-.59-.23-.88-.36C558,582.13,558.24,582.25,558.54,582.36Z" transform="translate(-134.68 -122.97)"/><path d="M553.39,579.44c-.24-.19-.49-.37-.72-.57C552.9,579.07,553.15,579.25,553.39,579.44Z" transform="translate(-134.68 -122.97)"/><path d="M555,580.57l-.77-.5Z" transform="translate(-134.68 -122.97)"/><path d="M550.52,576.75c-.2-.23-.4-.44-.59-.67C550.12,576.31,550.32,576.52,550.52,576.75Z" transform="translate(-134.68 -122.97)"/><path d="M545.38,561.06c0-.15,0-.3,0-.45C545.4,560.76,545.39,560.91,545.38,561.06Z" transform="translate(-134.68 -122.97)"/><path d="M545.7,558.79l0-.14Z" transform="translate(-134.68 -122.97)"/><path d="M545.43,565.34c0-.16,0-.32,0-.48C545.39,565,545.41,565.18,545.43,565.34Z" transform="translate(-134.68 -122.97)"/><path d="M551.89,578.16l-.65-.62C551.45,577.76,551.67,578,551.89,578.16Z" transform="translate(-134.68 -122.97)"/><path d="M545.71,567.19a.68.68,0,0,1,0-.14A.68.68,0,0,0,545.71,567.19Z" transform="translate(-134.68 -122.97)"/><path d="M578.4,546.11q-5.8-119.49-11.59-239,5.79,119.47,11.59,239Z" transform="translate(-134.68 -122.97)"/><path class="cls-9" d="M584.05,573.59c.09-.16.17-.32.26-.47s.15-.27.22-.4c.28-.53.54-1.06.78-1.61l.06-.16q.32-.76.57-1.56c0-.14.09-.29.13-.44.18-.58.33-1.17.46-1.77a.28.28,0,0,0,0-.09c.12-.58.2-1.17.27-1.76,0-.15,0-.31.05-.47.06-.63.1-1.26.1-1.9s0-1.29-.1-1.92l0-.35c-.07-.61-.16-1.21-.28-1.8,0-.11,0-.22-.07-.33a17.87,17.87,0,0,0-.46-1.78v0c-.18-.59-.4-1.16-.63-1.73l-.13-.31c-.23-.54-.49-1.07-.76-1.58l-.16-.29c-.29-.52-.59-1-.93-1.52v0c-.34-.5-.7-1-1.08-1.44a2.75,2.75,0,0,0-.22-.26c-.37-.45-.75-.87-1.16-1.29l-.24-.23c-.41-.4-.83-.79-1.28-1.17l-.06,0c-.31-.26-.63-.52-1-.76h0q-5.8-119.49-11.59-239-5.76,119-11.54,238l-.58.38-.34.22c-.47.33-.93.67-1.38,1l-.3.26c-.38.32-.75.66-1.1,1l-.26.26c-.41.41-.8.83-1.17,1.28a3.92,3.92,0,0,0-.25.32c-.32.39-.63.8-.92,1.22l-.18.25c-.32.48-.62,1-.9,1.49-.07.13-.14.25-.2.38-.25.47-.48.94-.69,1.43l-.1.22c-.23.55-.43,1.11-.62,1.68l-.12.41c-.17.55-.31,1.1-.43,1.66l0,.14c-.12.6-.21,1.21-.28,1.82,0,.15,0,.3,0,.45-.06.63-.1,1.26-.1,1.9s0,1.27.1,1.9c0,.16,0,.32,0,.48.06.58.15,1.15.26,1.71a.68.68,0,0,0,0,.14c.12.6.28,1.19.45,1.77l.15.44q.24.76.54,1.5l.09.22c.23.55.49,1.08.77,1.61.07.13.15.26.22.4s.18.34.28.5l6.84-4.85a12.51,12.51,0,1,1,23.58-5.92v.1a12.51,12.51,0,0,1-21.14,9c-.3-.29-.59-.59-.87-.91l-6.81,4.84.12.14c.19.23.39.44.59.67s.47.53.72.79l.65.62c.26.24.51.48.78.71s.48.38.72.57.55.43.84.63l.77.5c.3.19.59.37.89.54l.83.44c.31.15.62.31.94.45s.58.25.88.36.65.25,1,.36l.92.28,1,.26c.32.08.63.14.95.19l.53.11q7,10.77,14.08,21.54,11.33-.23,22.41-1.08Z" transform="translate(-134.68 -122.97)"/><path class="cls-10" d="M556.62,571.1c.28.32.57.62.87.91a12.51,12.51,0,0,0,21.14-9v-.1a12.51,12.51,0,0,0-24-4.91,12.48,12.48,0,0,0,.39,10.83l-6.84,4.85L510,600.75l4,.59,35.77-25.4Z" transform="translate(-134.68 -122.97)"/><path class="cls-11" d="M553,242.13v43.68H540.93V257.19a36.82,36.82,0,0,1-5.67,3.6,43.59,43.59,0,0,1-6.87,2.64v-9.79a29,29,0,0,0,9.47-4.71,19.31,19.31,0,0,0,5.27-6.8Z" transform="translate(-134.68 -122.97)"/><path class="cls-11" d="M600.9,285.81H565.1a22.41,22.41,0,0,1,3.74-10q3.12-4.68,11.7-11,5.25-3.9,6.71-5.92a6.63,6.63,0,0,0,1.47-3.84,4.48,4.48,0,0,0-1.45-3.35,5.52,5.52,0,0,0-7.39,0q-1.44,1.44-2,5.07l-11.95-1a19.09,19.09,0,0,1,2.58-7.87,11.93,11.93,0,0,1,5.29-4.33,23.82,23.82,0,0,1,9.45-1.51,26.63,26.63,0,0,1,9.8,1.44,11.84,11.84,0,0,1,5.5,4.4,11.67,11.67,0,0,1,2,6.67,13.66,13.66,0,0,1-2.3,7.5Q596,265.71,590,270c-2.41,1.66-4,2.82-4.82,3.49s-1.77,1.53-2.86,2.61H600.9Z" transform="translate(-134.68 -122.97)"/><path d="M848.66,549.89l-11.28-2a14.17,14.17,0,0,1,5.4-8.27q4-2.86,11.33-2.87,8.4,0,12.15,3.14a9.85,9.85,0,0,1,3.75,7.88,8.8,8.8,0,0,1-1.52,5,13,13,0,0,1-4.6,4,13.46,13.46,0,0,1,3.81,1.44,9.36,9.36,0,0,1,3.32,3.47,10.52,10.52,0,0,1,1.19,5.14,14.28,14.28,0,0,1-2,7.19,13.11,13.11,0,0,1-5.66,5.31,21.6,21.6,0,0,1-9.69,1.86,25.14,25.14,0,0,1-9.25-1.38,13.79,13.79,0,0,1-5.56-4,18.46,18.46,0,0,1-3.36-6.66l11.93-1.58c.47,2.4,1.19,4.06,2.18,5a5.25,5.25,0,0,0,3.76,1.39,5.15,5.15,0,0,0,4-1.76,6.66,6.66,0,0,0,1.6-4.68,6.47,6.47,0,0,0-1.54-4.63,5.42,5.42,0,0,0-4.17-1.64,15,15,0,0,0-3.87.7l.61-8.53a11.32,11.32,0,0,0,1.56.15A5.48,5.48,0,0,0,856.7,552a4.77,4.77,0,0,0,1.57-3.55,4.23,4.23,0,0,0-1.18-3.13,4.35,4.35,0,0,0-3.22-1.17,4.74,4.74,0,0,0-3.43,1.27A7.71,7.71,0,0,0,848.66,549.89Z" transform="translate(-134.68 -122.97)"/><path d="M259.42,559.76l11.86-1.49a6.25,6.25,0,0,0,1.58,3.51,3.88,3.88,0,0,0,2.73,1,5,5,0,0,0,4.48-2.9c.78-1.43,1.37-4.44,1.76-9a14.82,14.82,0,0,1-4.39,3.22,12.6,12.6,0,0,1-5.22,1,13,13,0,0,1-9.74-4.11,14.28,14.28,0,0,1-4-10.37,15.31,15.31,0,0,1,2-7.79,13.22,13.22,0,0,1,5.57-5.32,19.56,19.56,0,0,1,8.9-1.8q6.45,0,10.35,2.21a15.58,15.58,0,0,1,6.22,7q2.32,4.83,2.33,12.73,0,11.64-4.89,17t-13.57,5.4a22.28,22.28,0,0,1-8.08-1.18,12.41,12.41,0,0,1-4.92-3.47A15.73,15.73,0,0,1,259.42,559.76Zm22-19.16a8,8,0,0,0-1.76-5.46,5.51,5.51,0,0,0-4.28-2,5,5,0,0,0-3.94,1.79,8,8,0,0,0-1.56,5.36,8.29,8.29,0,0,0,1.62,5.51,5.13,5.13,0,0,0,4.06,1.9,5.4,5.4,0,0,0,4.19-1.84A7.62,7.62,0,0,0,281.39,540.6Z" transform="translate(-134.68 -122.97)"/><path d="M579.78,836.23l-11.87,1.47a6.25,6.25,0,0,0-1.57-3.52,3.83,3.83,0,0,0-2.71-1,5,5,0,0,0-4.51,2.93q-1.17,2.11-1.73,9a15,15,0,0,1,4.4-3.21,12.36,12.36,0,0,1,5.21-1,13,13,0,0,1,9.71,4.1,14.34,14.34,0,0,1,4,10.4,15.44,15.44,0,0,1-2,7.76,13.11,13.11,0,0,1-5.57,5.32,19.68,19.68,0,0,1-8.92,1.8q-6.45,0-10.34-2.19a15.46,15.46,0,0,1-6.23-7q-2.32-4.81-2.33-12.76,0-11.62,4.9-17t13.56-5.41a22.41,22.41,0,0,1,8.1,1.19,12.45,12.45,0,0,1,4.94,3.47A15.48,15.48,0,0,1,579.78,836.23Zm-22,19.13a8,8,0,0,0,1.76,5.47,5.57,5.57,0,0,0,4.31,2,5,5,0,0,0,3.92-1.78,7.83,7.83,0,0,0,1.58-5.34,8.21,8.21,0,0,0-1.64-5.53,5.16,5.16,0,0,0-4.07-1.91,5.42,5.42,0,0,0-4.17,1.85A7.52,7.52,0,0,0,557.8,855.36Z" transform="translate(-134.68 -122.97)"/></svg>