<svg width="180" height="180" viewBox="0 0 180 180" fill="none" xmlns="http://www.w3.org/2000/svg">
<g filter="url(#filter0_d_1_815)">
<circle cx="90" cy="74" r="50" fill="#00CBB8"/>
</g>
<g clip-path="url(#clip0_1_815)">
<path d="M78.0005 50C77.0536 50 76.2861 50.7675 76.2861 51.7143V55.1429H79.7147V51.7143C79.7147 50.7675 78.9472 50 78.0005 50Z" fill="#F5F5FC"/>
<path d="M102 50C101.054 50 100.286 50.7675 100.286 51.7143V55.1429H103.715V51.7143C103.715 50.7675 102.947 50 102 50Z" fill="#F5F5FC"/>
<path d="M108.857 55.1431H103.714V62.0002C103.714 62.947 102.947 63.7146 102 63.7146C101.053 63.7146 100.286 62.947 100.286 62.0002V55.1431H79.7142V62.0002C79.7142 62.947 78.9467 63.7146 77.9999 63.7146C77.0531 63.7146 76.2856 62.947 76.2856 62.0002V55.1431H71.1429C68.3025 55.1431 66 57.4456 66 60.2859V92.8574C66 95.6977 68.3025 98.0002 71.1429 98.0002H108.857C111.697 98.0002 114 95.6977 114 92.8574V60.2859C114 57.4456 111.697 55.1431 108.857 55.1431ZM110.571 92.8574C110.571 93.8042 109.804 94.5717 108.857 94.5717H71.1429C70.196 94.5717 69.4285 93.8042 69.4285 92.8574V70.5716H110.571V92.8574Z" fill="#F5F5FC"/>
<path d="M79.7141 74H76.2856C75.3388 74 74.5713 74.7675 74.5713 75.7143C74.5713 76.6611 75.3388 77.4286 76.2856 77.4286H79.7141C80.6609 77.4286 81.4285 76.6611 81.4285 75.7143C81.4285 74.7675 80.6609 74 79.7141 74Z" fill="#F5F5FC"/>
<path d="M91.7141 74H88.2856C87.3388 74 86.5713 74.7675 86.5713 75.7143C86.5713 76.6611 87.3388 77.4286 88.2856 77.4286H91.7141C92.661 77.4286 93.4285 76.6611 93.4285 75.7143C93.4285 74.7675 92.661 74 91.7141 74Z" fill="#F5F5FC"/>
<path d="M103.714 74H100.286C99.3388 74 98.5713 74.7675 98.5713 75.7143C98.5713 76.6611 99.3388 77.4286 100.286 77.4286H103.714C104.661 77.4286 105.428 76.6611 105.428 75.7143C105.428 74.7675 104.661 74 103.714 74Z" fill="#F5F5FC"/>
<path d="M79.7141 80.8569H76.2856C75.3388 80.8569 74.5713 81.6244 74.5713 82.5713C74.5713 83.5181 75.3388 84.2856 76.2856 84.2856H79.7141C80.6609 84.2856 81.4285 83.5181 81.4285 82.5713C81.4285 81.6244 80.6609 80.8569 79.7141 80.8569Z" fill="#F5F5FC"/>
<path d="M91.7141 80.8569H88.2856C87.3388 80.8569 86.5713 81.6244 86.5713 82.5713C86.5713 83.5181 87.3388 84.2856 88.2856 84.2856H91.7141C92.661 84.2856 93.4285 83.5181 93.4285 82.5713C93.4285 81.6244 92.661 80.8569 91.7141 80.8569Z" fill="#F5F5FC"/>
<path d="M103.714 80.8569H100.286C99.3388 80.8569 98.5713 81.6244 98.5713 82.5713C98.5713 83.5181 99.3388 84.2856 100.286 84.2856H103.714C104.661 84.2856 105.428 83.5181 105.428 82.5713C105.428 81.6244 104.661 80.8569 103.714 80.8569Z" fill="#F5F5FC"/>
<path d="M79.7141 87.7144H76.2856C75.3388 87.7144 74.5713 88.4819 74.5713 89.4287C74.5713 90.3755 75.3388 91.1429 76.2856 91.1429H79.7141C80.6609 91.1429 81.4285 90.3754 81.4285 89.4286C81.4285 88.4818 80.6609 87.7144 79.7141 87.7144Z" fill="#F5F5FC"/>
<path d="M91.7141 87.7144H88.2856C87.3388 87.7144 86.5713 88.4819 86.5713 89.4287C86.5713 90.3755 87.3388 91.143 88.2856 91.143H91.7141C92.661 91.143 93.4285 90.3755 93.4285 89.4287C93.4285 88.4819 92.661 87.7144 91.7141 87.7144Z" fill="#F5F5FC"/>
<path d="M103.714 87.7144H100.286C99.3388 87.7144 98.5713 88.4819 98.5713 89.4287C98.5713 90.3755 99.3388 91.143 100.286 91.143H103.714C104.661 91.143 105.428 90.3755 105.428 89.4287C105.428 88.4819 104.661 87.7144 103.714 87.7144Z" fill="#F5F5FC"/>
</g>
<defs>
<filter id="filter0_d_1_815" x="0" y="0" width="180" height="180" filterUnits="userSpaceOnUse" color-interpolation-filters="sRGB">
<feFlood flood-opacity="0" result="BackgroundImageFix"/>
<feColorMatrix in="SourceAlpha" type="matrix" values="0 0 0 0 0 0 0 0 0 0 0 0 0 0 0 0 0 0 127 0" result="hardAlpha"/>
<feOffset dy="16"/>
<feGaussianBlur stdDeviation="20"/>
<feColorMatrix type="matrix" values="0 0 0 0 0.146118 0 0 0 0 0.172389 0 0 0 0 0.441667 0 0 0 0.1 0"/>
<feBlend mode="normal" in2="BackgroundImageFix" result="effect1_dropShadow_1_815"/>
<feBlend mode="normal" in="SourceGraphic" in2="effect1_dropShadow_1_815" result="shape"/>
</filter>
<clipPath id="clip0_1_815">
<rect width="48" height="48" fill="white" transform="translate(66 50)"/>
</clipPath>
</defs>
</svg>
