<svg id="Слой_1" data-name="Слой 1" xmlns="http://www.w3.org/2000/svg" xmlns:xlink="http://www.w3.org/1999/xlink" viewBox="0 0 287.64 113.5"><defs><style>.cls-1{fill:url(#Безымянный_градиент);}.cls-2{fill:url(#Безымянный_градиент_2);}.cls-3{fill:url(#Безымянный_градиент_3);}.cls-4{fill:url(#Безымянный_градиент_4);}.cls-5{fill:url(#Безымянный_градиент_5);}.cls-6{fill:#bdd3dd;}.cls-10,.cls-7,.cls-8,.cls-9{isolation:isolate;}.cls-10,.cls-8,.cls-9{font-size:35.32px;fill:#f2f2f2;}.cls-8,.cls-9{font-family:Montserrat-ExtraBold, Montserrat;font-weight:800;}.cls-9{letter-spacing:0.01em;}.cls-10{font-family:Montserrat-Medium, Montserrat;font-weight:500;}</style><linearGradient id="Безымянный_градиент" x1="116.96" y1="-128.53" x2="116.96" y2="-174.95" gradientTransform="matrix(1, 0, 0, -1, -74.99, -71.17)" gradientUnits="userSpaceOnUse"><stop offset="0" stop-color="#ff9800"/><stop offset="1" stop-color="#be3d00"/></linearGradient><linearGradient id="Безымянный_градиент_2" x1="115.56" y1="-159.07" x2="115.56" y2="-142.46" gradientTransform="matrix(1, 0, 0, -1, -74.99, -71.17)" gradientUnits="userSpaceOnUse"><stop offset="0" stop-color="#dae5e9"/><stop offset="1" stop-color="#9eb7c7"/></linearGradient><linearGradient id="Безымянный_градиент_3" x1="112.8" y1="-112.55" x2="112.8" y2="-95.59" xlink:href="#Безымянный_градиент_2"/><linearGradient id="Безымянный_градиент_4" x1="114.21" y1="-87.12" x2="114.21" y2="-121.36" gradientTransform="matrix(1, 0, 0, -1, -74.99, -71.17)" gradientUnits="userSpaceOnUse"><stop offset="0" stop-color="#80c1ce"/><stop offset="0.5" stop-color="#24a4b5"/><stop offset="1" stop-color="#007b94"/></linearGradient><linearGradient id="Безымянный_градиент_5" x1="107.17" y1="-77.61" x2="149.51" y2="-199.26" gradientTransform="matrix(1, 0, 0, -1, -74.99, -71.17)" gradientUnits="userSpaceOnUse"><stop offset="0" stop-color="#47626b"/><stop offset="0.24" stop-color="#394f56"/><stop offset="0.73" stop-color="#151d20"/><stop offset="1"/></linearGradient></defs><g id="Слой_1-2" data-name="Слой 1"><path class="cls-1" d="M2.79,90.32H61.48c11,0,16.86-3.77,16.86-11.52S72.5,67.27,61.48,67.27H0v-5.6H61.49c20.26,0,22.45,12,22.45,17.13S81.75,95.92,61.49,95.92H0v-5.6Z" transform="translate(-0.01)"/><path class="cls-2" d="M61.48,67.27c11,0,16.86,3.76,16.86,11.53S72.5,90.32,61.48,90.32H2.79v-23Z" transform="translate(-0.01)"/><path class="cls-3" d="M56.61,23.18c10.7,0,16.22,3.72,16.22,10.84,0,7.3-5.52,11.06-16.22,11.06H2.79V23.18Z" transform="translate(-0.01)"/><path class="cls-4" d="M2.79,45.08H56.61c10.7,0,16.22-3.76,16.22-11.06,0-7.12-5.52-10.84-16.22-10.84H0v-5.6h56.6c19.68,0,21.81,11.5,21.81,16.44S76.29,50.68,56.61,50.68H0v-5.6Z" transform="translate(-0.01)"/><path class="cls-5" d="M90,54.32c12.81,4.54,20.7,14.28,20.7,28.06,0,19.6-16.21,31.12-46.65,31.12H2.79V95.92H61.48c20.26,0,22.45-12,22.45-17.12S81.74,61.67,61.48,61.67H2.79v-11H56.61C76.29,50.67,78.42,39,78.42,34S76.29,17.57,56.61,17.57H2.79V0H60.84c29.85,0,44.4,12.17,44.4,29.65C105.24,40.54,99.73,49.27,90,54.32Z" transform="translate(-0.01)"/><rect class="cls-6" x="2.79" y="29.09" width="62.48" height="2.56"/><rect class="cls-6" x="2.79" y="36.61" width="62.48" height="2.56"/><rect class="cls-6" x="2.79" y="73.76" width="62.48" height="2.56"/><rect class="cls-6" x="2.79" y="81.28" width="62.48" height="2.56"/><g class="cls-7"><text class="cls-8" transform="translate(131.28 51.2)">BE</text><text class="cls-9" transform="translate(182.17 51.2)">T</text><text class="cls-8" transform="translate(204.95 51.2)">TER </text><text class="cls-10" transform="translate(131.17 86.49)">SCHOOL</text></g></g></svg>