<svg xmlns="http://www.w3.org/2000/svg" xmlns:xlink="http://www.w3.org/1999/xlink" viewBox="0 0 287.63 113.51"><defs><style>.cls-1{isolation:isolate;}.cls-2{fill:url(#linear-gradient);}.cls-3{fill:url(#linear-gradient-2);}.cls-4{fill:url(#linear-gradient-3);}.cls-5{fill:url(#linear-gradient-4);}.cls-6{fill:url(#linear-gradient-5);}.cls-7{fill:#bdd3dd;mix-blend-mode:multiply;}.cls-8{font-size:35.32px;fill:#3f3e40;font-family:Montserrat-ExtraBold, Montserrat;font-weight:800;}.cls-9{letter-spacing:0.01em;}.cls-10{letter-spacing:0em;}.cls-11{font-family:Montserrat-Medium, Montserrat;font-weight:500;}</style><linearGradient id="linear-gradient" x1="116.95" y1="244.53" x2="116.95" y2="290.95" gradientUnits="userSpaceOnUse"><stop offset="0" stop-color="#ff9800"/><stop offset="1" stop-color="#be3d00"/></linearGradient><linearGradient id="linear-gradient-2" x1="115.56" y1="275.07" x2="115.56" y2="258.46" gradientUnits="userSpaceOnUse"><stop offset="0" stop-color="#dae5e9"/><stop offset="1" stop-color="#9eb7c7"/></linearGradient><linearGradient id="linear-gradient-3" x1="112.8" y1="228.55" x2="112.8" y2="211.59" xlink:href="#linear-gradient-2"/><linearGradient id="linear-gradient-4" x1="114.2" y1="203.12" x2="114.2" y2="237.36" gradientUnits="userSpaceOnUse"><stop offset="0" stop-color="#80c1ce"/><stop offset="0.5" stop-color="#24a4b5"/><stop offset="1" stop-color="#007b94"/></linearGradient><linearGradient id="linear-gradient-5" x1="107.17" y1="193.61" x2="149.51" y2="315.26" gradientUnits="userSpaceOnUse"><stop offset="0" stop-color="#47626b"/><stop offset="0.24" stop-color="#394f56"/><stop offset="0.73" stop-color="#151d20"/><stop offset="1"/></linearGradient></defs><g class="cls-1"><g id="Слой_1" data-name="Слой 1"><path class="cls-2" d="M77.78,277.49h58.69c11,0,16.86-3.77,16.86-11.52s-5.84-11.53-16.86-11.53H75v-5.6h61.48c20.26,0,22.45,12,22.45,17.13s-2.19,17.12-22.45,17.12H75v-5.6Z" transform="translate(-74.99 -187.17)"/><path class="cls-3" d="M136.47,254.44c11,0,16.86,3.76,16.86,11.53s-5.84,11.52-16.86,11.52H77.78V254.44Z" transform="translate(-74.99 -187.17)"/><path class="cls-4" d="M131.6,210.35c10.7,0,16.22,3.72,16.22,10.84,0,7.3-5.52,11.06-16.22,11.06H77.78v-21.9Z" transform="translate(-74.99 -187.17)"/><path class="cls-5" d="M77.78,232.25H131.6c10.7,0,16.22-3.76,16.22-11.06,0-7.12-5.52-10.84-16.22-10.84H75v-5.6H131.6c19.68,0,21.81,11.5,21.81,16.44s-2.13,16.66-21.81,16.66H75v-5.6Z" transform="translate(-74.99 -187.17)"/><path class="cls-6" d="M165,241.49c12.81,4.54,20.7,14.28,20.7,28.06,0,19.6-16.21,31.12-46.65,31.12H77.78V283.09h58.69c20.26,0,22.45-12,22.45-17.12s-2.19-17.13-22.45-17.13H77.78v-11H131.6c19.68,0,21.81-11.65,21.81-16.66s-2.13-16.44-21.81-16.44H77.78V187.17h58.05c29.85,0,44.4,12.17,44.4,29.65C180.23,227.71,174.72,236.44,165,241.49Z" transform="translate(-74.99 -187.17)"/><rect class="cls-7" x="2.8" y="29.09" width="62.48" height="2.56"/><rect class="cls-7" x="2.8" y="36.61" width="62.48" height="2.56"/><rect class="cls-7" x="2.8" y="73.76" width="62.48" height="2.56"/><rect class="cls-7" x="2.8" y="81.28" width="62.48" height="2.56"/><text class="cls-8" transform="translate(131.29 51.2)">BE<tspan class="cls-9" x="50.89" y="0">T</tspan><tspan class="cls-10" x="73.67" y="0">TER </tspan><tspan class="cls-11"><tspan x="-0.11" y="35.29">SCHOOL</tspan></tspan></text><text x="-74.99" y="-187.17"/></g></g></svg>